<?xml version="1.0" standalone="no"?>
<!DOCTYPE svg PUBLIC "-//W3C//DTD SVG 1.1//EN" "http://www.w3.org/Graphics/SVG/1.1/DTD/svg11.dtd" >
<svg xmlns="http://www.w3.org/2000/svg" xmlns:xlink="http://www.w3.org/1999/xlink" version="1.1">
<metadata></metadata>
<defs>
<font id="bree_serifregular" horiz-adv-x="1024" >
<font-face units-per-em="2048" ascent="1638" descent="-410" />
<missing-glyph horiz-adv-x="409" />
<glyph horiz-adv-x="0" />
<glyph horiz-adv-x="0" />
<glyph horiz-adv-x="682" />
<glyph unicode="&#xd;" horiz-adv-x="450" />
<glyph unicode=" "  horiz-adv-x="409" />
<glyph unicode="&#x09;" horiz-adv-x="409" />
<glyph unicode="&#xa0;" horiz-adv-x="409" />
<glyph unicode="!" horiz-adv-x="567" d="M172 1083v244q0 42 27 69t86 27q116 0 116 -100v-240l-41 -714h-145zM143 102q0 56 39.5 96t98.5 40q66 0 104.5 -37.5t38.5 -96.5q0 -58 -37.5 -98.5t-99.5 -40.5q-67 0 -105.5 39t-38.5 98z" />
<glyph unicode="&#x22;" horiz-adv-x="714" d="M115 1362h190l-20 -471h-150zM408 1362h190l-18 -471h-152z" />
<glyph unicode="#" horiz-adv-x="1093" d="M592 0l26 322h-225l-26 -322h-150l27 322h-207v135h219l29 319h-209v135h219l31 328h149l-31 -328h226l30 328h150l-31 -328h207v-135h-217l-29 -319h207v-135h-219l-27 -322h-149zM434 776l-28 -319h225l28 319h-225z" />
<glyph unicode="$" horiz-adv-x="1095" d="M471 -186v204q-196 6 -352 78v305l203 15v-119q0 -29 7.5 -42t32.5 -22q46 -16 109 -16v383q-63 17 -110 35t-96.5 48.5t-80.5 67.5t-51 93t-20 125q0 152 96.5 250t261.5 122v189h154v-184q171 -9 317 -78v-289l-201 -12v110q0 29 -8 42t-33 22q-45 12 -75 14v-360h2 q63 -19 108.5 -37t98 -50t85 -70t54.5 -96t22 -130q0 -161 -101 -261t-269 -126v-211h-154zM741 401q0 102 -116 150v-320q116 38 116 170zM365 991q0 -53 26.5 -85.5t79.5 -57.5v295q-106 -37 -106 -152z" />
<glyph unicode="%" horiz-adv-x="1640" d="M1260 719q146 0 230.5 -92t84.5 -275q0 -186 -85.5 -283.5t-240.5 -97.5q-154 0 -234.5 94.5t-80.5 278.5q0 179 88.5 277t237.5 98zM1251 113q144 0 144 233q0 232 -140 232q-70 0 -106.5 -56t-36.5 -184q0 -225 139 -225zM395 1346q147 0 231.5 -92t84.5 -275 q0 -186 -85.5 -283.5t-240.5 -97.5q-154 0 -234.5 94.5t-80.5 278.5q0 180 88 277.5t237 97.5zM387 739q143 0 143 234q0 231 -139 231q-70 0 -106.5 -55.5t-36.5 -183.5q0 -226 139 -226zM600 -18l-162 73l598 1282l166 -69z" />
<glyph unicode="&#x26;" horiz-adv-x="1462" d="M973 451q39 97 39 188q0 18 -8.5 24.5t-28.5 8.5l-66 4v160h432v-166l-112 -4q0 -196 -86 -361q77 -65 258 -196l-135 -179q-118 79 -258 193q-73 -73 -182 -112.5t-240 -39.5q-127 0 -223.5 35.5t-151.5 95.5t-82 132t-27 153q0 270 250 426q-63 104 -63 225 q0 155 104.5 251.5t290.5 96.5q194 0 373 -83v-310l-209 -14v125q0 32 -8.5 47.5t-34.5 24.5q-56 16 -109 16q-166 0 -166 -158q0 -61 39.5 -138t108 -156t140 -148.5t155.5 -140.5zM836 266q-249 212 -371 377q-125 -87 -125 -240q0 -105 65 -169t187 -64q157 0 244 96z " />
<glyph unicode="'" horiz-adv-x="419" d="M115 1362h190l-20 -471h-150z" />
<glyph unicode="(" horiz-adv-x="677" d="M141 555q0 227 70.5 468.5t200.5 469.5l194 -90q-223 -441 -223 -838q0 -209 55.5 -409t165.5 -424l-192 -92q-271 460 -271 915z" />
<glyph unicode=")" horiz-adv-x="677" d="M537 582q0 -227 -70.5 -468.5t-200.5 -469.5l-194 90q111 220 167 423.5t56 413.5q0 209 -55.5 409.5t-165.5 424.5l192 92q271 -460 271 -915z" />
<glyph unicode="*" horiz-adv-x="925" d="M367 1141l-275 45l14 90q10 65 57.5 81t94.5 -20l158 -110l-66 291l86 22q65 18 97.5 -17.5t21.5 -97.5l-37 -202l240 151l51 -74q38 -57 15.5 -100.5t-83.5 -48.5l-190 -16l221 -164l-51 -74q-41 -55 -88 -49t-76 61l-98 183l-140 -252l-81 39q-40 19 -54.5 49t-2.5 60 t44 52z" />
<glyph unicode="+" horiz-adv-x="1095" d="M442 745v330h209v-330h316v-200h-316v-328h-209v328h-315v200h315z" />
<glyph unicode="," horiz-adv-x="493" d="M414 162l-211 -479l-129 38l63 416q6 47 32.5 75t68.5 28q12 0 23.5 -1.5t25 -7t22 -8.5t25.5 -13t23.5 -13.5t28.5 -17t28 -17.5z" />
<glyph unicode="-" horiz-adv-x="659" d="M61 496v188h537v-188h-537z" />
<glyph unicode="." horiz-adv-x="462" d="M82 115q0 64 39.5 105.5t105.5 41.5q72 0 113 -39.5t41 -105.5q0 -64 -39 -106t-106 -42q-74 0 -114 39.5t-40 106.5z" />
<glyph unicode="/" horiz-adv-x="876" d="M225 -225l-209 78l627 1693l213 -76z" />
<glyph unicode="0" horiz-adv-x="1095" d="M557 1346q465 0 465 -674q0 -357 -120.5 -524.5t-358.5 -167.5t-354.5 165t-116.5 519q0 343 128.5 512.5t356.5 169.5zM547 176q42 0 76 13.5t63.5 48t49 89.5t31 141t11.5 200q0 136 -16 231t-47.5 148t-71 75.5t-92.5 22.5q-56 0 -97 -25t-72 -81.5t-47 -156 t-16 -241.5q0 -130 15.5 -221.5t46.5 -144t71.5 -76t94.5 -23.5z" />
<glyph unicode="1" horiz-adv-x="929" d="M420 248v805l-240 -123l-90 157l373 232h201v-1135l213 -10v-174h-713v168l196 12q31 2 45.5 16.5t14.5 51.5z" />
<glyph unicode="2" horiz-adv-x="1050" d="M121 0v158l407 514q6 8 18 23q40 50 57 74t36.5 58.5t26 66t6.5 71.5q0 86 -48 131t-124 45q-70 0 -123 -17q-26 -8 -33.5 -23.5t-7.5 -47.5v-146l-209 15v327q194 97 414 97q185 0 287 -99.5t102 -265.5q0 -180 -174 -389l-330 -389h512v-203h-817z" />
<glyph unicode="3" horiz-adv-x="1069" d="M342 764h211q123 77 123 219q0 76 -45 117t-133 41q-62 0 -127 -21q-26 -8 -33.5 -23.5t-7.5 -47.5v-148l-209 14v328q206 103 418 103q188 0 287.5 -91t99.5 -237q0 -106 -51.5 -193t-135.5 -141q207 -65 207 -291q0 -189 -116.5 -304.5t-346.5 -115.5 q-113 0 -224.5 30.5t-176.5 72.5l72 194q69 -38 158 -64t163 -26q223 0 223 199q0 102 -68 150.5t-229 48.5h-77z" />
<glyph unicode="4" horiz-adv-x="1097" d="M711 946h143v-383h182v-194h-184v-185l170 -10v-174h-602v168l127 10q59 3 59 58v135h-524v170l385 809l195 -97l-330 -690h293v111z" />
<glyph unicode="5" horiz-adv-x="1038" d="M905 1124h-469l-41 -313q109 -8 199.5 -35t163.5 -76.5t114 -129.5t41 -185q0 -60 -14.5 -116.5t-48.5 -110.5t-85 -93.5t-129.5 -63.5t-176.5 -24q-115 0 -225 31t-175 72l82 188q160 -88 308 -88q208 0 208 201q0 250 -489 250l88 688h408q47 0 47 57v88l194 -14v-326z " />
<glyph unicode="6" horiz-adv-x="1093" d="M809 1374l47 -184q-232 -29 -348 -141t-141 -293q58 37 134.5 60.5t143.5 23.5q169 0 262.5 -106.5t93.5 -291.5q0 -134 -48 -237t-150.5 -165.5t-247.5 -62.5q-95 0 -170.5 29.5t-126 81t-84 126.5t-48.5 161.5t-15 189.5q0 120 19 223.5t68 205.5t126 178t200.5 130 t284.5 72zM762 432q0 234 -182 234q-54 0 -122.5 -25t-105.5 -55q-4 -125 14 -215.5t68 -147.5t129 -57q88 0 143.5 70.5t55.5 195.5z" />
<glyph unicode="7" horiz-adv-x="972" d="M47 1319h885v-170l-469 -1149h-256l481 1116h-387q-25 0 -35 -15.5t-10 -47.5v-82l-209 14v334z" />
<glyph unicode="8" horiz-adv-x="1095" d="M96 326q0 55 16.5 106t42 90t60 74.5t66 58.5t65.5 43q-207 127 -207 306q0 148 114.5 245t301.5 97q103 0 181 -26t123 -70.5t67 -98t22 -113.5q0 -94 -52 -173t-142 -154q250 -145 250 -357q0 -77 -27.5 -143.5t-82 -119.5t-146 -83.5t-209.5 -30.5q-122 0 -212.5 31.5 t-138.5 84t-70 110.5t-22 123zM741 348q0 83 -57 138t-170 114q-85 -56 -131.5 -115t-46.5 -143q0 -74 53 -126t150 -52q95 0 148.5 49t53.5 135zM547 1171q-72 0 -121 -44t-49 -109q0 -123 194 -221q61 42 105.5 103.5t44.5 125.5q0 67 -48 106t-126 39z" />
<glyph unicode="9" horiz-adv-x="1095" d="M285 -25l-49 191q235 27 357 125t146 270q-119 -78 -282 -78q-169 0 -262 106.5t-93 291.5q0 133 49.5 236.5t153 166t248.5 62.5q118 0 204.5 -44.5t136.5 -126t73.5 -185t23.5 -232.5q0 -120 -19.5 -223t-69.5 -202t-128 -171t-202.5 -122.5t-286.5 -64.5zM342 889 q0 -107 46.5 -167t133.5 -60q56 0 125 22.5t105 52.5q2 92 -7.5 165.5t-33 131.5t-66 89.5t-100.5 31.5q-93 0 -148 -69.5t-55 -196.5z" />
<glyph unicode=":" horiz-adv-x="462" d="M82 115q0 64 39.5 105.5t105.5 41.5q72 0 113 -39.5t41 -105.5q0 -64 -39 -106t-106 -42q-74 0 -114 39.5t-40 106.5zM82 869q0 64 39.5 105.5t105.5 41.5q72 0 113 -39.5t41 -105.5q0 -64 -39 -106t-106 -42q-74 0 -114 39.5t-40 106.5z" />
<glyph unicode=";" horiz-adv-x="493" d="M139 868q0 64 40 106t106 42q72 0 112.5 -40t40.5 -106q0 -64 -39 -105.5t-106 -41.5q-75 0 -114.5 39.5t-39.5 105.5zM414 162l-211 -479l-129 38l63 416q6 47 32.5 75t68.5 28q12 0 23.5 -1.5t25 -7t22 -8.5t25.5 -13t23.5 -13.5t28.5 -17t28 -17.5z" />
<glyph unicode="&#x3c;" horiz-adv-x="1095" d="M889 1100l82 -182l-559 -259l563 -270l-86 -184l-750 368v160z" />
<glyph unicode="=" horiz-adv-x="1095" d="M963 922v-197h-830v197h830zM963 530v-198h-830v198h830z" />
<glyph unicode="&#x3e;" horiz-adv-x="1095" d="M143 918l82 182l750 -367v-160l-750 -368l-86 184l563 270z" />
<glyph unicode="?" horiz-adv-x="886" d="M575 1102q0 64 -38 96.5t-103 32.5q-44 0 -102 -17q-26 -7 -33.5 -22.5t-7.5 -48.5v-109l-209 15v280q195 94 377 94q179 0 266.5 -83.5t87.5 -225.5q0 -55 -12 -102t-29.5 -80.5t-49 -68t-58.5 -57t-70 -54.5q-62 -44 -84 -72.5t-25 -85.5l-10 -225h-196l-11 215 q-6 111 31 176t133 137q7 5 30.5 22t31 23t25 22t24 27t16 29t13 38t3.5 44zM238 102q0 56 39 96t98 40q66 0 104.5 -37.5t38.5 -96.5q0 -58 -37.5 -98.5t-99.5 -40.5q-67 0 -105 39t-38 98z" />
<glyph unicode="@" horiz-adv-x="1951" d="M1634 582q0 131 -37 237t-110 184.5t-191 121t-272 42.5q-170 0 -304 -55.5t-219.5 -153.5t-130 -229.5t-44.5 -286.5q0 -200 70.5 -353t211.5 -241t336 -88q182 0 324 64l51 -150q-159 -69 -381 -69q-165 0 -300.5 45t-227 122.5t-154 184t-91 226t-28.5 251.5 q0 213 69 384t190.5 281.5t284.5 169t355 58.5q172 0 314 -48.5t245 -140.5t160 -233t57 -317q0 -286 -139.5 -436t-369.5 -152h-117l-17 111l-6 2q-80 -119 -241 -119q-75 0 -133.5 22.5t-95.5 60.5t-61.5 92.5t-34 114t-9.5 128.5q0 237 115 368t329 131q55 0 140 -14.5 t167 -44.5v-600l9 -109q286 18 286 439zM1137 739q-53 23 -117 23q-56 -1 -98.5 -21t-67.5 -51.5t-40.5 -78t-20.5 -92t-5 -101.5q0 -55 8.5 -100.5t27.5 -86t56 -63.5t89 -23q48 0 82 17t52 46.5t26 62.5t8 71v397z" />
<glyph unicode="A" horiz-adv-x="1355" d="M139 229l330 955l-129 12v166h469l418 -1182h2l117 -6v-174h-529v166l78 6q35 3 47 16t2 45l-43 127h-479l-62 -180l123 -6v-174h-473v166l68 6q26 3 38 15t23 42zM662 1133l-191 -584h381l-184 584h-6z" />
<glyph unicode="B" horiz-adv-x="1232" d="M80 1362h577q443 0 443 -342q0 -97 -50.5 -169.5t-138.5 -117.5q120 -30 189 -112t69 -213q0 -199 -134.5 -303.5t-389.5 -104.5h-575v166l67 6q29 3 44.5 15.5t15.5 41.5v953l-117 6v174zM446 621v-428h193q266 0 266 217q0 102 -67 156.5t-189 54.5h-203zM446 1174 v-371h152q126 0 187 51.5t61 138.5q0 53 -17 90t-50.5 56t-73 27t-93.5 8h-166z" />
<glyph unicode="C" horiz-adv-x="1232" d="M858 1167q-55 17 -133 17q-191 0 -289 -129t-98 -365q0 -253 92.5 -385.5t298.5 -128.5q88 0 150 19q27 9 35 22.5t8 44.5v164l208 -14v-355q-80 -42 -189.5 -63t-215.5 -21q-314 0 -478.5 176.5t-164.5 524.5q0 155 37 279t98.5 203.5t145.5 132.5t173.5 75t188.5 22 q206 0 385 -83v-349l-209 -14v160q0 31 -8 44.5t-35 22.5z" />
<glyph unicode="D" horiz-adv-x="1361" d="M70 0v166l67 6q29 3 44.5 15.5t15.5 41.5v953l-117 6v174h561q301 0 470 -160t169 -473q0 -156 -34 -281.5t-92 -208t-139 -137t-171.5 -78.5t-192.5 -24h-581zM446 1163v-966h209q175 0 274 126.5t99 368.5q0 134 -30.5 228.5t-87 146t-125 74t-156.5 22.5h-183z" />
<glyph unicode="E" horiz-adv-x="1124" d="M1042 0h-972v166l67 6q29 3 44.5 15.5t15.5 41.5v953l-117 6v174h938v-340l-209 -14v82q0 34 -10.5 48.5t-48.5 14.5h-304v-350h474v-209h-474v-383h330q37 0 47.5 15t10.5 50v103l208 -14v-365z" />
<glyph unicode="F" horiz-adv-x="1112" d="M70 0v166l67 6q29 3 44.5 15.5t15.5 41.5v953l-117 6v174h989v-340l-209 -14v82q0 34 -10.5 48.5t-48.5 14.5h-355v-362h504v-209h-504v-402l183 -6v-174h-559z" />
<glyph unicode="G" horiz-adv-x="1312" d="M1155 477v-371q-88 -60 -210.5 -95.5t-260.5 -35.5q-285 0 -443.5 177t-158.5 526q0 153 40 276.5t104.5 202.5t151.5 132t175.5 75t181.5 22q223 0 402 -83v-349l-209 -14v160q0 31 -8 44.5t-35 22.5q-55 17 -152 17q-200 0 -297.5 -127.5t-97.5 -362.5q0 -516 356 -516 q60 0 123 14.5t94 34.5v305h-2l-157 7v174h510v-164l-48 -4q-33 -3 -46 -17.5t-13 -50.5z" />
<glyph unicode="H" horiz-adv-x="1458" d="M1022 240v354h-580v-414l119 -6v-174h-495v166l67 6q29 3 44.5 15.5t15.5 41.5v953l-117 6v174h495v-166l-67 -6q-32 -3 -47 -17.5t-15 -50.5v-317h580v377l-117 6v174h496v-166l-68 -6q-29 -3 -44 -17.5t-15 -48.5v-944l117 -6v-174h-496v166l68 6q31 3 45 17.5t14 50.5 z" />
<glyph unicode="I" horiz-adv-x="628" d="M193 240v942l-117 6v174h495v-166l-67 -6q-29 -3 -44.5 -17.5t-15.5 -48.5v-944l117 -6v-174h-495v166l67 6q31 3 45.5 17.5t14.5 50.5z" />
<glyph unicode="J" horiz-adv-x="970" d="M418 -27q-209 0 -361 86v359l209 14v-162q0 -31 8 -45t35 -24q47 -17 107 -17q81 0 114 44t33 143v809l-160 8v174h537v-166l-68 -6q-31 -3 -45 -18t-14 -46v-637q0 -145 -8 -215q-15 -144 -111.5 -222.5t-275.5 -78.5z" />
<glyph unicode="K" horiz-adv-x="1273" d="M193 240v942l-117 6v174h491v-166l-67 -6q-29 -3 -44.5 -17.5t-15.5 -48.5v-450l418 508l-115 6v174h480v-166l-68 -6q-23 -3 -41 -16t-41 -41l-291 -357l363 -596l108 -6v-174h-524v166l64 6q62 6 30 66l-202 350l-181 -217v-191l117 -6v-174h-491v166l67 6 q31 3 45.5 17.5t14.5 50.5z" />
<glyph unicode="L" horiz-adv-x="1099" d="M1038 0h-972v166l67 6q29 3 44.5 15.5t15.5 41.5v953l-117 6v174h493v-166l-67 -6q-29 -3 -44.5 -17.5t-15.5 -48.5v-913h340q30 0 38.5 15.5t8.5 49.5v144l209 -14v-406z" />
<glyph unicode="M" horiz-adv-x="1708" d="M508 1362l348 -926h4l350 926h406v-166l-68 -6q-31 -3 -45.5 -18.5t-13.5 -53.5l51 -938l127 -6v-174h-493v166l73 6q56 3 53 53l-38 723h-5l-315 -817h-194l-312 809h-4l-41 -760l133 -6v-174h-483v166l74 6q22 2 36 16.5t15 38.5l55 953l-125 8v174h412z" />
<glyph unicode="N" horiz-adv-x="1443" d="M66 0v166l73 6q27 2 40.5 14.5t13.5 42.5v953l-117 6v174h368l580 -940h4v760l-135 6v174h500v-166l-74 -6q-49 -3 -49 -64v-1126h-240l-592 954h-4v-774l133 -6v-174h-501z" />
<glyph unicode="O" horiz-adv-x="1359" d="M1278 678q0 -343 -163 -524t-439 -181q-279 0 -436.5 180.5t-157.5 524.5q0 152 37 274.5t97 202t141.5 133t166 76t174.5 22.5q94 0 177.5 -23t158 -76.5t128 -134t85 -201.5t31.5 -273zM338 688q0 -77 8 -143t31.5 -135.5t61 -118.5t102 -80t149.5 -31q75 0 134 28 t96 74t61 111t33.5 133t9.5 146q0 48 -3.5 94t-14 97t-26.5 95t-42.5 85t-60.5 70t-83 46t-108 17q-94 0 -164 -41t-109 -112.5t-57 -154.5t-18 -180z" />
<glyph unicode="P" horiz-adv-x="1208" d="M66 0v166l67 6q29 3 44.5 15.5t15.5 41.5v953l-117 6v174h586q229 0 357 -107.5t128 -310.5q0 -226 -145.5 -346.5t-385.5 -120.5h-174v-297l197 -6v-174h-573zM442 676h148q299 0 299 244q0 77 -21 126.5t-66 74.5t-98.5 33.5t-136.5 8.5h-125v-487z" />
<glyph unicode="Q" horiz-adv-x="1359" d="M1276 678q0 -265 -111 -435t-323 -225v-6q73 -4 138.5 -24.5t113 -45t97 -47.5t114 -34t141.5 -2l-25 -197q-83 -9 -166 7t-153 45.5t-135 60.5t-136.5 56.5t-134.5 29.5q-75 6 -157 -11l28 148q-239 31 -363 200.5t-124 479.5q0 152 37 274.5t97 202t141.5 133t166 76 t174.5 22.5q94 0 177.5 -23t158 -76.5t128 -134t85 -201.5t31.5 -273zM336 688q0 -77 8 -143t31.5 -135.5t61 -118.5t102 -80t149.5 -31q75 0 134 28t96 74t61 111t33.5 133t9.5 146q0 48 -3.5 94t-14 97t-26.5 95t-42.5 85t-60.5 70t-83 46t-108 17q-94 0 -164 -41 t-109 -112.5t-57 -154.5t-18 -180z" />
<glyph unicode="R" horiz-adv-x="1282" d="M66 0v166l67 6q29 3 44.5 15.5t15.5 41.5v953l-117 6v174h559q116 0 204 -20t153.5 -63.5t99.5 -117t34 -176.5q0 -73 -22 -135.5t-59 -105.5t-77.5 -72t-86.5 -47q41 -15 66.5 -43t49.5 -82l148 -322l117 -4v-174h-506v166l59 6q35 4 44 19.5t-5 46.5l-96 204 q-23 51 -50.5 73t-78.5 22h-187v-357l133 -6v-174h-509zM442 731h179q251 0 251 225q0 67 -18 109.5t-58 63t-85.5 27.5t-118.5 7h-150v-432z" />
<glyph unicode="S" horiz-adv-x="1069" d="M494 184q245 0 245 197q0 38 -14.5 67.5t-35 49t-58.5 37t-69 27.5t-83 24q-57 15 -100 30.5t-91 38.5t-81.5 53t-61.5 69t-42.5 91.5t-14.5 116.5q0 186 130 293.5t345 107.5q206 0 385 -83v-308l-209 -14v119q0 31 -8 44.5t-35 22.5q-55 17 -133 17q-97 0 -156 -43 t-59 -133q0 -23 4.5 -43t17 -37t23.5 -29.5t34.5 -25.5t38.5 -20.5t48 -19t50 -17t57 -17.5q66 -21 112.5 -40t101.5 -53t89 -74.5t57 -102.5t23 -138q0 -197 -138.5 -307.5t-357.5 -110.5q-233 0 -414 84v324l209 14v-125q0 -31 8 -44.5t35 -22.5q62 -19 148 -19z" />
<glyph unicode="T" horiz-adv-x="1132" d="M446 229v930h-159q-29 0 -38 -16t-9 -47v-97l-209 15v348h1071v-348l-209 -15v97q0 34 -10.5 48.5t-48.5 14.5h-140v-979l162 -6v-174h-577v166l108 6q31 3 45 15.5t14 41.5z" />
<glyph unicode="U" horiz-adv-x="1349" d="M412 1122v-680q0 -143 68 -201.5t200 -58.5q126 0 196 63.5t70 186.5v750l-119 6v174h486v-166l-68 -6q-59 -6 -59 -62v-731q0 -199 -139 -311.5t-375 -112.5q-256 0 -382 109.5t-126 347.5v752l-119 6v174h496v-166l-68 -6q-32 -3 -46.5 -17.5t-14.5 -50.5z" />
<glyph unicode="V" horiz-adv-x="1339" d="M412 1118l274 -825h10l287 887l-125 8v174h471v-166l-67 -6q-27 -3 -40 -16.5t-24 -45.5l-387 -1128h-266l-418 1182l-117 6v174h529v-166l-68 -6q-78 -7 -59 -72z" />
<glyph unicode="W" horiz-adv-x="1812" d="M1802 1196l-67 -6q-31 -3 -45.5 -20t-22.5 -54l-258 -1116h-281l-215 911h-6l-209 -911h-288l-283 1182l-117 6v174h508v-166l-67 -6q-75 -7 -62 -72l178 -790h8l213 925h265l221 -929h4l174 856l-111 8v174h461v-166z" />
<glyph unicode="X" horiz-adv-x="1271" d="M1067 1124l-293 -395l359 -541l129 -8v-180h-570v168l62 6q40 4 54 27t-5 51l-185 285l-235 -357l98 -6v-174h-471v166l64 6q22 3 39 18t39 48l331 475l-311 458l-113 11v180h543v-168l-51 -6q-42 -4 -54 -28.5t9 -55.5l137 -215l199 293l-103 6v174h469v-166l-63 -6 q-22 -3 -39 -18t-39 -48z" />
<glyph unicode="Y" horiz-adv-x="1167" d="M455 229v291l-349 662l-96 6v174h500v-166l-61 -6q-33 -3 -43 -25.5t8 -54.5l174 -356h8l223 426l-102 8v174h440v-166l-61 -6q-23 -3 -38.5 -17.5t-31.5 -44.5l-321 -608v-340l159 -6v-174h-577v166l108 6q31 2 45.5 14.5t14.5 42.5z" />
<glyph unicode="Z" horiz-adv-x="1091" d="M977 1196l-625 -1001h398q30 0 40.5 16t10.5 49v143l209 -14v-389h-942v170l618 997h-340q-55 0 -55 -63v-82l-209 14v326h895v-166z" />
<glyph unicode="[" horiz-adv-x="665" d="M164 -340v1802h430v-166h-205v-1470h205v-166h-430z" />
<glyph unicode="\" horiz-adv-x="901" d="M31 1470l211 78l628 -1695l-211 -76z" />
<glyph unicode="]" horiz-adv-x="665" d="M502 1462v-1802h-430v166h204v1470h-204v166h430z" />
<glyph unicode="^" horiz-adv-x="1132" d="M1042 616l-206 -32l-267 546l-268 -546l-201 34l383 762h179z" />
<glyph unicode="_" d="M0 -301v149h1024v-149h-1024z" />
<glyph unicode="`" d="M479 1610l238 -393l-80 -68l-262 254q-23 22 -35.5 44t-14 43.5t13 41t44.5 33.5z" />
<glyph unicode="a" horiz-adv-x="1161" d="M987 989v-762q0 -33 10.5 -45t40.5 -14l66 -4v-164h-326v119l-6 2q-47 -69 -121.5 -108.5t-158.5 -39.5q-208 0 -309 133.5t-101 364.5q0 278 135.5 434t405.5 156q64 0 164.5 -17.5t199.5 -54.5zM750 326v530q-60 27 -158 27q-71 0 -122.5 -31.5t-81 -88.5t-43 -127 t-13.5 -157q0 -332 213 -332q91 0 148 54.5t57 124.5z" />
<glyph unicode="b" horiz-adv-x="1138" d="M158 61v1176q0 25 -12.5 36t-39.5 13l-71 4v170h360v-485q43 40 109.5 63t138.5 23q193 0 305.5 -130t112.5 -366q0 -592 -496 -592q-107 0 -224.5 25.5t-182.5 62.5zM395 725v-530q80 -41 180 -41q113 0 173.5 88t60.5 290q0 52 -5.5 97.5t-20.5 93t-40 81t-66.5 54.5 t-96.5 21q-73 0 -129 -43.5t-56 -110.5z" />
<glyph unicode="c" horiz-adv-x="964" d="M580 160q114 0 235 88l88 -158q-65 -53 -156.5 -86t-199.5 -33q-227 0 -353 138.5t-126 392.5q0 120 28.5 217t76 160t111.5 105t131.5 59.5t139.5 17.5q164 0 319 -84v-266l-188 -15v99q0 31 -8.5 45.5t-34.5 23.5q-41 13 -80 13q-122 0 -185 -90t-63 -261 q0 -173 66 -269.5t199 -96.5z" />
<glyph unicode="d" horiz-adv-x="1163" d="M582 1061q84 0 168 -25v207q0 25 -13.5 36t-40.5 13l-88 6v162h381v-1245q1 -26 13 -36.5t38 -10.5l72 -4v-164h-332v121l-6 2q-46 -75 -118.5 -112.5t-159.5 -37.5q-93 0 -165.5 28t-118.5 74.5t-76 112.5t-42 136t-12 151q0 267 132 426.5t368 159.5zM750 319v531 q-76 33 -156 33q-70 0 -122 -31.5t-81.5 -86.5t-43 -121.5t-13.5 -145.5q0 -344 221 -344q85 0 140 48t55 117z" />
<glyph unicode="e" horiz-adv-x="991" d="M582 1061q153 0 243 -75t90 -210q0 -65 -20 -119t-53 -91.5t-80.5 -66.5t-98 -46t-110.5 -28t-112 -15t-109 -4q7 -108 68 -175t184 -67q132 0 258 90l78 -166q-41 -36 -138.5 -75.5t-222.5 -39.5q-128 0 -222 37.5t-150.5 108t-83.5 163.5t-27 210q0 115 32.5 217 t94 181t159.5 125t220 46zM690 772q0 56 -33 85.5t-90 29.5q-78 0 -133.5 -46.5t-81 -114t-28.5 -148.5q65 1 122.5 9.5t116 28.5t93 60t34.5 96z" />
<glyph unicode="f" horiz-adv-x="757" d="M197 229v629h-177v172h177v78q0 57 6 102.5t27.5 98.5t58.5 88.5t104 59.5t158 24q67 0 149.5 -21t135.5 -51l-60 -164q-97 51 -194 51q-75 0 -108.5 -41.5t-33.5 -128.5v-96h303v-172h-303v-686l172 -8v-164h-542v156l67 6q32 3 46 17t14 50z" />
<glyph unicode="g" horiz-adv-x="1114" d="M506 -438q-103 0 -213 18t-172 49v285l194 16v-98q0 -30 10 -47t37 -27q56 -20 146 -20q68 0 116 22t73.5 64.5t36.5 94t11 120.5v113q-98 -115 -272 -115q-87 0 -156.5 27.5t-114.5 73.5t-75 109t-42.5 129.5t-12.5 139.5q0 136 39.5 241t111 171t168 99.5t213.5 33.5 q80 0 187 -20t192 -56v-760q0 -174 -4 -223q-19 -227 -131.5 -333.5t-341.5 -106.5zM745 418v440q-73 25 -163 25q-125 0 -191.5 -91.5t-66.5 -250.5q0 -48 3.5 -87.5t17 -86t35.5 -77.5t62 -52t95 -21q89 0 148.5 55t59.5 146z" />
<glyph unicode="h" horiz-adv-x="1228" d="M193 229v998q0 33 -11 45t-41 14l-71 4v170h364v-551q48 69 125 110.5t174 41.5q157 0 241.5 -89t84.5 -267v-535l117 -6v-164h-488v156l68 6q31 3 45 17t14 50v422q0 106 -34.5 163.5t-125.5 57.5q-102 0 -160.5 -60.5t-58.5 -145.5v-496l117 -6v-164h-487v156l67 6 q32 3 46 17t14 50z" />
<glyph unicode="i" horiz-adv-x="606" d="M438 1030v-860l117 -6v-164h-487v156l67 6q31 3 45.5 17t14.5 48v570q0 34 -11.5 46.5t-40.5 12.5l-71 4v170h366zM137 1315q0 66 43.5 109.5t114.5 43.5q67 0 111.5 -44t44.5 -109t-44.5 -107.5t-113.5 -42.5q-70 0 -113 42.5t-43 107.5z" />
<glyph unicode="j" horiz-adv-x="579" d="M426 1030v-1079q0 -67 -6 -117t-26 -104t-54.5 -88.5t-96 -57t-145.5 -22.5q-65 0 -137 19t-125 52l74 170q78 -43 151 -43q61 0 91 41.5t30 139.5v856q0 33 -10.5 45t-40.5 14l-72 4v170h367zM125 1315q0 66 43.5 109.5t114.5 43.5q67 0 111 -44t44 -109t-44 -107.5 t-113 -42.5q-70 0 -113 42.5t-43 107.5z" />
<glyph unicode="k" horiz-adv-x="1138" d="M195 229v998q0 33 -11 45t-41 14l-71 4v170h364v-887q112 11 196.5 70t115.5 156q10 37 0.5 52t-33.5 15l-78 4v160h424v-166l-98 -4q-26 -208 -181 -330l201 -360l125 -6v-164h-299l-234 426q-74 -21 -139 -29v-227h2l117 -6v-164h-487v156l67 6q32 3 46 17t14 50z" />
<glyph unicode="l" horiz-adv-x="610" d="M434 1460v-1290l117 -6v-164h-488v156l68 6q30 3 44.5 16.5t14.5 48.5v1010q0 26 -13 36.5t-38 12.5l-71 4v170h366z" />
<glyph unicode="m" horiz-adv-x="1773" d="M55 864v166h346v-133q116 164 312 164q203 0 272 -164q116 164 311 164q148 0 228 -89t80 -267v-535l116 -6v-164h-487v156l67 6q30 3 44.5 16.5t15.5 48.5v424q0 44 -2 72t-10 59t-22.5 49t-41.5 29.5t-65 11.5q-99 0 -149 -57.5t-50 -152.5v-492l113 -6v-164h-484v156 l68 6q31 3 45 17t14 50v422q0 44 -2 72t-10 59t-22.5 49t-41.5 29.5t-65 11.5q-100 0 -149.5 -59t-49.5 -147v-496l111 -6v-164h-484v156l68 6q31 3 45 17t14 50h3v566q0 34 -11.5 48t-40.5 15z" />
<glyph unicode="n" horiz-adv-x="1228" d="M55 866v164h346v-133q54 77 142.5 120.5t189.5 43.5q157 0 241.5 -89t84.5 -267v-535l117 -6v-164h-488v156l68 6q31 3 45 17t14 50v422q0 111 -35 166t-133 55q-97 0 -154 -61t-57 -145v-496l117 -6v-164h-487v156l67 6q32 3 46 17t14 50v568q0 33 -12 47t-40 16z" />
<glyph unicode="o" horiz-adv-x="1081" d="M539 150q115 0 169 95.5t54 264.5q0 182 -50.5 276.5t-168.5 94.5q-116 0 -172 -90t-56 -246q0 -53 3 -96t11 -90.5t24 -83t40 -65t61 -45t85 -15.5zM68 516q0 123 31 220t79.5 156.5t114.5 99t130 54.5t132 15q38 0 73.5 -3.5t83 -17t87.5 -35t80.5 -61t69 -92.5 t46 -132.5t17.5 -176.5q0 -143 -38.5 -254.5t-106 -180.5t-155 -104t-190.5 -35q-212 0 -333 138t-121 409z" />
<glyph unicode="p" horiz-adv-x="1163" d="M182 -195v992q0 34 -11 47.5t-40 13.5l-86 6v166h346v-133q33 62 119 113t205 51q177 0 273.5 -126.5t96.5 -393.5q0 -277 -120.5 -424.5t-327.5 -147.5q-58 0 -117.5 17t-101.5 43v-283l166 -8v-162h-529v156l68 6q31 3 45 17t14 50zM831 520q0 342 -206 342 q-87 0 -147 -52.5t-60 -123.5v-471q77 -51 180 -51q63 0 109.5 30t72.5 82t38.5 113t12.5 131z" />
<glyph unicode="q" horiz-adv-x="1128" d="M752 -195v283q-98 -115 -273 -115q-86 0 -155.5 30t-113.5 78.5t-74 114.5t-42 134t-12 141q0 152 38.5 267t110 184.5t166.5 104t213 34.5q80 0 187 -20t192 -56v-1239l119 -6v-164h-539v156l121 6q31 2 46.5 16.5t15.5 50.5zM750 336v522q-73 25 -162 25 q-123 0 -188.5 -105t-65.5 -274q0 -52 3 -93t16 -92t35 -84.5t63.5 -57t97.5 -23.5q90 0 145.5 46.5t55.5 135.5z" />
<glyph unicode="r" horiz-adv-x="946" d="M195 229v568q0 33 -11.5 46t-40.5 15l-86 6v166h346v-153q37 80 115 132t176 52q104 0 197 -45v-305l-191 -15v95q0 41 -20 51q-23 10 -55 10q-83 0 -135 -58.5t-52 -148.5v-475l178 -8v-162h-548v156l67 6q32 3 46 17t14 50z" />
<glyph unicode="s" horiz-adv-x="923" d="M604 874q-53 19 -119 19q-69 0 -111 -31.5t-42 -91.5q0 -27 12 -49t27.5 -36t46 -27.5t50.5 -19.5t58 -17q44 -13 69.5 -20.5t66 -23.5t64.5 -31t53 -39.5t45 -52.5t27 -67.5t11 -85.5q0 -154 -112 -241t-283 -87q-104 0 -210 16.5t-167 47.5v285l184 14v-98 q0 -29 10 -44.5t38 -25.5q58 -21 135 -21q161 0 161 125q0 27 -9.5 48t-26 35t-40 24.5t-51.5 19t-60 16.5q-9 2 -13 3q-40 10 -66 18t-63 22t-61 29.5t-50.5 39.5t-42 52.5t-25.5 68.5t-10 87q0 78 31.5 140.5t86 102.5t126 61.5t152.5 21.5q172 0 340 -82v-246l-185 -14 v86q0 30 -9.5 44.5t-37.5 24.5z" />
<glyph unicode="t" horiz-adv-x="772" d="M295 1247h133v-217h272l-20 -172h-252v-539q0 -89 33 -125t100 -36q68 0 139 43l62 -158q-46 -32 -117 -52t-143 -20q-91 0 -154.5 23.5t-95 52.5t-48 83.5t-18.5 87t-2 92.5v1v547h-145l20 150q51 4 90 24.5t66.5 57.5t44 70.5t35.5 86.5z" />
<glyph unicode="u" horiz-adv-x="1210" d="M1153 162v-162h-332v133q-54 -76 -142 -118t-190 -42q-317 0 -317 355v473q0 31 -12 43t-39 14l-66 4v168h361v-649q0 -108 30.5 -163.5t120.5 -55.5q102 0 160.5 59.5t58.5 143.5v432q0 34 -11 46.5t-40 14.5l-65 4v168h360v-803q0 -33 10.5 -44.5t40.5 -14.5z" />
<glyph unicode="v" horiz-adv-x="1142" d="M690 1030h432v-160l-63 -4q-22 -2 -34 -11.5t-21 -37.5l-265 -817h-313l-287 815q-9 29 -20.5 39.5t-38.5 11.5l-60 4v160h482v-164l-125 -6l211 -674h4l205 674l-107 6v164z" />
<glyph unicode="w" horiz-adv-x="1628" d="M745 989h199l213 -762h4l139 633l-104 6v164h412v-158l-68 -4q-22 -2 -34 -11.5t-21 -37.5l-195 -819h-295l-168 610h-6l-174 -610h-301l-207 817q-9 29 -20.5 39.5t-38.5 11.5l-60 4v158h469v-164l-114 -6l141 -629h4z" />
<glyph unicode="x" horiz-adv-x="1093" d="M653 217l-125 164l-170 -211l97 -6v-164h-426v162l63 6q46 5 82 49l236 295l-252 348l-105 12v158h477v-162l-59 -4q-24 -1 -31.5 -17.5t6.5 -35.5l117 -156l158 205l-84 6v164h416v-160l-62 -4q-42 -2 -82 -51l-225 -285l268 -356l105 -12v-162h-488v162l64 4 q27 1 31 16.5t-11 34.5z" />
<glyph unicode="y" horiz-adv-x="1173" d="M821 39v156q-54 -76 -142 -118t-190 -42q-317 0 -317 354v412q0 31 -12 43t-39 14l-66 4v168h361v-588q0 -108 30.5 -163.5t120.5 -55.5q102 0 160.5 59.5t58.5 143.5v371q0 34 -11 47.5t-40 13.5l-65 4v168h360v-991q0 -248 -120 -362.5t-355 -114.5q-103 0 -213 18 t-172 49v285l195 16v-98q0 -30 10 -47t37 -27q56 -20 145 -20q264 0 264 301z" />
<glyph unicode="z" horiz-adv-x="989" d="M918 0h-836v156l526 692h-258q-42 0 -53.5 -16t-11.5 -54v-71l-193 14v309h815v-139l-532 -707h291q34 0 46.5 18t12.5 52v86l193 -14v-326z" />
<glyph unicode="{" horiz-adv-x="696" d="M303 575q78 -27 106.5 -81t28.5 -166q0 -47 -11 -180.5t-11 -180.5q0 -80 19.5 -116.5t82.5 -36.5q39 0 80 10l20 -156q-86 -18 -161 -18q-124 0 -193 70t-69 190q0 42 2 90.5t4.5 83t7 90.5t6.5 84q6 119 -19.5 175.5t-107.5 66.5v151q83 10 109.5 63t21.5 181 q-2 57 -8.5 164t-7.5 127q-6 141 63 214t195 73q79 0 164 -21l-21 -152q-64 11 -82 11q-63 0 -82.5 -32.5t-19.5 -111.5q0 -46 9 -166t9 -167q0 -105 -30.5 -167t-104.5 -92z" />
<glyph unicode="|" horiz-adv-x="561" d="M174 -180v1710h213v-1710h-213z" />
<glyph unicode="}" horiz-adv-x="696" d="M393 575q-74 30 -104.5 92t-30.5 167q0 47 9 167t9 166q0 79 -19.5 111.5t-82.5 32.5q-18 0 -82 -11l-20 152q86 21 164 21q126 0 195 -73t63 -214q-1 -26 -8 -130.5t-9 -160.5q-5 -128 21.5 -181t109.5 -63v-151q-82 -10 -107.5 -66.5t-19.5 -175.5q2 -28 8.5 -106 t9.5 -133t3 -109q0 -120 -69 -190t-193 -70q-76 0 -162 18l20 156q41 -10 80 -10q63 0 83 37t20 116q0 47 -11.5 180.5t-11.5 180.5q0 112 28.5 166t106.5 81z" />
<glyph unicode="~" horiz-adv-x="1224" d="M829 446q-59 0 -122 23.5t-107.5 51.5t-95.5 51.5t-88 23.5q-48 0 -88 -33.5t-84 -99.5l-148 115q63 105 135 161t164 56q56 0 117 -24.5t105.5 -53.5t98.5 -53.5t97 -24.5q93 0 166 131l149 -111q-100 -213 -299 -213z" />
<glyph unicode="&#xa1;" horiz-adv-x="567" d="M395 -57v-244q0 -42 -26.5 -69t-85.5 -27q-117 0 -117 100v240l41 714h145zM424 924q0 -56 -39 -96t-98 -40q-66 0 -105 38t-39 96t38 98.5t100 40.5q67 0 105 -39t38 -98z" />
<glyph unicode="&#xa2;" horiz-adv-x="1095" d="M553 -123v225q-187 28 -293 160.5t-106 353.5q0 127 33 227.5t91 164.5t126.5 102.5t148.5 54.5v238h154v-229q143 -8 284 -82v-267l-188 -14v98q0 31 -8.5 46t-34.5 24q-30 7 -53 10v-704q102 6 215 88l88 -158q-131 -103 -303 -117v-221h-154zM401 641q0 -258 152 -330 v656q-152 -73 -152 -326z" />
<glyph unicode="&#xa3;" horiz-adv-x="1130" d="M238 430l12 162h-172l20 172h164l12 176q8 113 47.5 194.5t103 126.5t136.5 65t162 20q87 0 183.5 -24t164.5 -60v-287l-209 -14v96q0 31 -7.5 45t-33.5 24q-46 19 -96 19q-105 0 -155.5 -52.5t-57.5 -170.5l-12 -158h358l-20 -170h-349l-6 -84q-11 -171 -178 -299l4 -8 q3 1 22.5 8.5t24.5 9t21.5 7t25 7t23.5 4.5t28 4t27 1q54 0 164.5 -20.5t185.5 -20.5q92 0 193 28l-27 -219q-99 -18 -178 -18q-100 0 -251.5 25.5t-243.5 25.5q-123 0 -258 -61v190q159 74 172 256z" />
<glyph unicode="&#xa5;" horiz-adv-x="1126" d="M121 606v156h231l-246 420l-96 6v174h500v-166l-61 -6q-33 -3 -43 -25.5t8 -54.5l153 -315h8l203 385l-102 8v174h440v-166l-61 -6q-23 -3 -38.5 -17.5t-31.5 -44.5l-219 -366h231v-156h-313v-133h313v-156h-313v-137l160 -6v-174h-578v166l109 6q30 2 44.5 14.5 t14.5 42.5v88h-313v156h313v133h-313z" />
<glyph unicode="&#xa6;" horiz-adv-x="563" d="M174 -180v766h215v-766h-215zM174 825v705h215v-705h-215z" />
<glyph unicode="&#xa7;" horiz-adv-x="1130" d="M834 72q26 -70 26 -150q0 -43 -9 -85.5t-34.5 -90t-65.5 -83.5t-107.5 -59.5t-154.5 -23.5q-169 0 -323 80v270l188 15v-99q0 -31 8.5 -46.5t34.5 -24.5q37 -11 74 -11q82 0 124 38t42 102q0 21 -4 39.5t-14.5 36.5t-19 32t-28.5 30.5t-31.5 26.5t-39 27.5t-40 25.5 t-45.5 27.5t-46 26.5q-146 85 -213.5 168.5t-67.5 204.5q0 178 172 325q-27 62 -27 150q0 43 9 85.5t34.5 90t65.5 83.5t107.5 59.5t154.5 23.5q163 0 324 -84v-266l-189 -15v99q0 31 -8.5 46.5t-34.5 24.5q-37 11 -73 11q-82 0 -124 -38t-42 -102q0 -27 6.5 -50t23 -44.5 t31.5 -37.5t44 -36.5t48 -33t57 -35t58 -35.5q64 -41 109 -77t85.5 -82.5t61 -102t20.5 -119.5q0 -81 -42 -163.5t-125 -153.5zM543 344q15 -10 59 -39t70 -48t49 -38q27 24 43 61.5t16 73.5q0 16 -3 31t-6 27t-12.5 25.5t-15 22t-21.5 22t-24 21t-31 23t-33.5 22.5 t-39.5 26t-43 28q-127 80 -178 125q-60 -57 -60 -135q0 -16 3 -31t6 -27t12.5 -25t15.5 -22t21.5 -22.5t24.5 -21t31 -22.5t33.5 -23t39.5 -26t43 -28z" />
<glyph unicode="&#xa8;" d="M580 1325q0 58 39.5 97.5t101.5 39.5t101.5 -39.5t39.5 -97.5q0 -59 -40 -97t-101 -38q-64 0 -102.5 38t-38.5 97zM170 1325q0 58 39.5 97.5t101.5 39.5t102 -39.5t40 -97.5t-40 -96.5t-102 -38.5q-64 0 -102.5 38t-38.5 97z" />
<glyph unicode="&#xa9;" horiz-adv-x="1667" d="M1542 680q0 -203 -91 -367.5t-256 -259t-372 -94.5q-213 0 -373 91t-243.5 251t-83.5 367q0 148 52 280t143 228t222.5 152t282.5 56q156 0 291 -56t228 -151t146.5 -224t53.5 -273zM1380 674q0 159 -72.5 288t-200 202t-282.5 73q-159 0 -283 -75t-190.5 -204.5 t-66.5 -289.5q0 -255 150.5 -408.5t389.5 -153.5q157 0 284 73t199 203t72 292zM838 406q57 0 100.5 21.5t95.5 64.5l82 -111q-111 -115 -282 -115q-177 0 -268 109.5t-91 302.5q0 91 23 163.5t59 117t84 74t94.5 41t93.5 11.5q195 0 308 -153l-115 -90q-44 48 -90 75 t-107 27q-78 0 -132 -62t-54 -202q0 -131 49.5 -202.5t149.5 -71.5z" />
<glyph unicode="&#xaa;" horiz-adv-x="847" d="M573 541v77h-8q-76 -94 -190 -94q-73 0 -128 27.5t-86.5 75t-47 105.5t-15.5 126q0 181 97.5 286t275.5 105q130 0 262 -49v-500q0 -23 9 -31t34 -10l35 -2v-116h-238zM545 756v336q-46 16 -94 16q-83 0 -123.5 -64t-40.5 -165q0 -215 135 -215q53 0 88 30t35 62z" />
<glyph unicode="&#xab;" horiz-adv-x="1085" d="M600 831l-246 -292l232 -328l-97 -86l-356 330q-37 34 -37 86q0 56 60 104l348 279zM1018 831l-246 -292l232 -328l-97 -86l-356 330q-37 34 -37 86q0 57 59 104l349 279z" />
<glyph unicode="&#xac;" horiz-adv-x="1095" d="M788 350v295h-682v199h879v-494h-197z" />
<glyph unicode="&#xad;" horiz-adv-x="659" d="M86 500v190h485v-190h-485z" />
<glyph unicode="&#xae;" horiz-adv-x="948" d="M588 940l74 -166h-103l-63 144q-12 28 -33 28h-39v-172h-92v432h155q68 0 106 -29t38 -87q0 -87 -70 -119q18 -8 27 -31zM424 1020h33q73 0 73 61q0 31 -18 41.5t-55 10.5h-33v-113zM887 989q0 -177 -117 -290t-301 -113q-186 0 -297 111.5t-111 287.5q0 173 114.5 287 t293.5 114q183 0 300.5 -113.5t117.5 -283.5zM778 985q0 133 -87.5 220t-221.5 87q-135 0 -217 -86t-82 -221q0 -136 84 -221.5t215 -85.5q136 0 222.5 84.5t86.5 222.5z" />
<glyph unicode="&#xaf;" d="M213 1249v172h588v-172h-588z" />
<glyph unicode="&#xb0;" horiz-adv-x="610" d="M72 1221q0 104 65 172.5t168 68.5q107 0 170.5 -66.5t63.5 -162.5q0 -108 -66 -178t-174 -70q-105 0 -166 67t-61 169zM199 1221q0 -54 27.5 -87.5t78.5 -33.5t78 34t27 87q0 58 -26.5 91.5t-78.5 33.5q-54 0 -80 -33.5t-26 -91.5z" />
<glyph unicode="&#xb1;" horiz-adv-x="1095" d="M438 745v320h209v-320h316v-200h-316v-275h316v-198h-830v198h305v275h-305v200h305z" />
<glyph unicode="&#xb2;" horiz-adv-x="690" d="M354 1509q124 0 189 -56.5t65 -147.5q0 -69 -27 -122.5t-87 -123.5l-183 -207h324v-154h-563v119l254 295q33 40 47.5 59t28.5 48.5t14 56.5q0 41 -27 63.5t-70 22.5q-57 0 -88 -14q-20 -8 -24 -18t-4 -36v-92l-156 8v224q147 75 307 75z" />
<glyph unicode="&#xb3;" horiz-adv-x="690" d="M201 1169h133q78 47 78 113q0 84 -103 84q-43 0 -73 -10q-19 -6 -23 -14.5t-4 -30.5v-68l-143 10v195q126 61 274 61q120 0 185 -54t65 -142q0 -119 -117 -199q131 -41 131 -174q0 -113 -76.5 -182.5t-222.5 -69.5q-71 0 -143.5 19.5t-112.5 44.5l47 133q43 -23 99 -38.5 t102 -15.5q129 0 129 97q0 56 -40 81t-132 25h-66z" />
<glyph unicode="&#xb4;" d="M303 1217l238 393l96 -45q30 -14 44.5 -33.5t13 -41t-14 -43.5t-35.5 -44l-262 -254z" />
<glyph unicode="&#xb5;" horiz-adv-x="1196" d="M1032 1030v-819q0 -68 53 -68q25 0 80 25l29 -143q-89 -50 -186 -50q-79 0 -118 40.5t-44 125.5q-33 -76 -104.5 -123t-159.5 -47q-65 0 -121.5 26t-89.5 75v-514h-219v1472h229v-592q0 -143 45 -219t154 -76q105 0 162 89.5t57 240.5v557h233z" />
<glyph unicode="&#xb6;" horiz-adv-x="1124" d="M936 1124v-958q0 -135 -21.5 -226t-78 -164t-154 -119t-248.5 -77l-51 201q180 43 248.5 120.5t68.5 225.5v1059h-147v-746q-74 2 -140 19.5t-123 52.5t-98 86t-64.5 123.5t-23.5 159.5q0 128 38 223t106.5 150t155.5 81.5t194 26.5h465v-166l-68 -6q-29 -3 -44 -17.5 t-15 -48.5z" />
<glyph unicode="&#xb7;" horiz-adv-x="632" d="M174 629q0 61 38 100t101 39q68 0 107 -37.5t39 -99.5t-38 -102t-102 -40q-70 0 -107.5 38.5t-37.5 101.5z" />
<glyph unicode="&#xb8;" d="M434 6h117l-35 -135q86 -6 138.5 -49.5t52.5 -118.5q0 -54 -22.5 -94t-60.5 -62t-80 -32.5t-87 -10.5q-98 0 -185 37l33 107q84 -27 137 -27q51 0 75 21t24 55q0 44 -45.5 61t-135.5 17z" />
<glyph unicode="&#xb9;" horiz-adv-x="647" d="M125 834l121 8q19 2 26 8.5t7 23.5v435l-166 -74l-60 117l256 145h150v-655l143 -6v-138h-477v136z" />
<glyph unicode="&#xba;" horiz-adv-x="831" d="M414 678q137 0 137 207q0 108 -31.5 161.5t-107.5 53.5q-68 0 -100.5 -53.5t-32.5 -141.5q0 -107 29.5 -167t105.5 -60zM86 881q0 83 21.5 149t55 106.5t79 67t89.5 37t91 10.5q46 0 88.5 -9t86 -33.5t75 -62t51.5 -99t20 -140.5q0 -183 -92 -283t-245 -100 q-151 0 -235.5 95t-84.5 262z" />
<glyph unicode="&#xbb;" horiz-adv-x="1085" d="M315 539l-245 297l96 92l348 -279q59 -47 59 -104q0 -54 -41 -92l-352 -324l-96 86zM733 539l-246 297l97 92l348 -279q59 -47 59 -104q0 -54 -41 -92l-352 -324l-96 86z" />
<glyph unicode="&#xbc;" horiz-adv-x="1689" d="M127 670l121 8q19 2 26 9t7 24v434l-166 -74l-60 117l256 145h150v-655l143 -6v-137h-477v135zM582 -84l-156 72l664 1417l159 -68zM1278 176v55h-311v119l229 475l141 -65l-188 -387h139l60 155h108v-155h125v-146h-125v-84l146 -6v-137h-478v135l121 8q19 1 26 8.5 t7 24.5z" />
<glyph unicode="&#xbd;" horiz-adv-x="1689" d="M131 670l121 8q19 2 26 9t7 24v434l-166 -74l-60 117l256 145h150v-655l143 -6v-137h-477v135zM567 -84l-155 72l663 1417l160 -68zM1325 811q124 0 189 -57t65 -148q0 -68 -27.5 -122t-87.5 -124l-182 -206h324v-154h-564v119l254 295q33 40 47.5 59t28.5 48.5t14 56.5 q0 41 -26.5 63.5t-69.5 22.5q-54 0 -88 -15q-20 -8 -24 -18t-4 -35v-92l-156 8v223q149 76 307 76z" />
<glyph unicode="&#xbe;" horiz-adv-x="1689" d="M254 1006h133q78 47 78 112q0 84 -103 84q-43 0 -73 -10q-19 -6 -23 -14.5t-4 -30.5v-68l-143 11v194q128 62 274 62q119 0 184.5 -54.5t65.5 -142.5q0 -119 -117 -199q131 -41 131 -174q0 -113 -76.5 -182.5t-222.5 -69.5q-71 0 -143.5 19.5t-112.5 44.5l48 133 q101 -53 200 -53q129 0 129 96q0 56 -40 81t-132 25h-65zM602 -84l-156 72l664 1417l160 -68zM1300 176v55h-311v119l230 475l141 -65l-189 -387h140l59 155h109v-155h125v-146h-125v-84l145 -6v-137h-477v135l121 8q19 1 25.5 8.5t6.5 24.5z" />
<glyph unicode="&#xbf;" horiz-adv-x="886" d="M336 -76q0 -64 38 -96.5t103 -32.5q45 0 103 17q26 7 33.5 22.5t7.5 48.5v109l208 -15v-280q-195 -94 -376 -94q-179 0 -267 83.5t-88 225.5q0 55 12 102t29.5 80.5t49 68t58.5 57t70 54.5q62 44 84 72.5t25 85.5l10 225h197l10 -215q6 -111 -31 -176t-133 -137 q-7 -5 -30.5 -22t-31 -23t-25 -22t-24 -27t-16 -29t-13 -38t-3.5 -44zM674 924q0 -56 -39 -96t-98 -40q-66 0 -105 38t-39 96t37.5 98.5t99.5 40.5q67 0 105.5 -39t38.5 -98z" />
<glyph unicode="&#xc0;" horiz-adv-x="1355" d="M139 229l330 955l-129 12v166h469l418 -1182h2l117 -6v-174h-529v166l78 6q35 3 47 16t2 45l-43 127h-479l-62 -180l123 -6v-174h-473v166l68 6q26 3 38 15t23 42zM662 1133l-191 -584h381l-184 584h-6zM485 1858l332 -322l-61 -84l-318 178q-59 33 -71 74t36 86z" />
<glyph unicode="&#xc1;" horiz-adv-x="1355" d="M139 229l330 955l-129 12v166h469l418 -1182h2l117 -6v-174h-529v166l78 6q35 3 47 16t2 45l-43 127h-479l-62 -180l123 -6v-174h-473v166l68 6q26 3 38 15t23 42zM662 1133l-191 -584h381l-184 584h-6zM453 1536l331 322l82 -68q47 -43 35 -85.5t-70 -74.5l-317 -178z " />
<glyph unicode="&#xc2;" horiz-adv-x="1355" d="M139 229l330 955l-129 12v166h469l418 -1182h2l117 -6v-174h-529v166l78 6q35 3 47 16t2 45l-43 127h-479l-62 -180l123 -6v-174h-473v166l68 6q26 3 38 15t23 42zM662 1133l-191 -584h381l-184 584h-6zM371 1450l-84 70l241 262q42 45 85.5 45t82.5 -41l246 -264 l-84 -72l-246 176z" />
<glyph unicode="&#xc3;" horiz-adv-x="1355" d="M139 229l330 955l-129 12v166h469l418 -1182h2l117 -6v-174h-529v166l78 6q35 3 47 16t2 45l-43 127h-479l-62 -180l123 -6v-174h-473v166l68 6q26 3 38 15t23 42zM662 1133l-191 -584h381l-184 584h-6zM377 1491l-98 72q73 161 208 161q49 0 143.5 -28.5t131.5 -28.5 q50 0 90 66l111 -60q-35 -92 -86 -135t-125 -43q-44 0 -134 27.5t-122 27.5q-41 0 -64 -11t-55 -48z" />
<glyph unicode="&#xc4;" horiz-adv-x="1355" d="M139 229l330 955l-129 12v166h469l418 -1182h2l117 -6v-174h-529v166l78 6q35 3 47 16t2 45l-43 127h-479l-62 -180l123 -6v-174h-473v166l68 6q26 3 38 15t23 42zM662 1133l-191 -584h381l-184 584h-6zM684 1612q0 58 39.5 97.5t101.5 39.5t102 -39.5t40 -97.5 t-40 -96.5t-102 -38.5q-64 0 -102.5 38t-38.5 97zM274 1612q0 58 40 97.5t102 39.5t101.5 -39.5t39.5 -97.5q0 -59 -40 -97t-101 -38q-64 0 -103 38t-39 97z" />
<glyph unicode="&#xc5;" horiz-adv-x="1355" d="M139 229l330 955l-129 12v166h469l418 -1182h2l117 -6v-174h-529v166l78 6q35 3 47 16t2 45l-43 127h-479l-62 -180l123 -6v-174h-473v166l68 6q26 3 38 15t23 42zM662 1133l-191 -584h381l-184 584h-6zM430 1624q0 84 54.5 137.5t140.5 53.5q88 0 139 -52t51 -129 q0 -89 -53.5 -144.5t-143.5 -55.5q-88 0 -138 53.5t-50 136.5zM551 1624q0 -38 19 -62t55 -24q35 0 54 24.5t19 61.5q0 84 -73 84q-74 0 -74 -84z" />
<glyph unicode="&#xc6;" horiz-adv-x="1748" d="M129 229l330 955l-129 12v166h1312v-340l-208 -14v82q0 34 -11 48.5t-49 14.5h-461l121 -350h510v-209h-473l135 -383h195q37 0 47 15t10 50v103l209 -14v-365h-860v166l78 6q35 3 47 16t2 45l-43 127h-479l-62 -180l123 -6v-174h-473v166l68 6q26 3 38 15t23 42z M651 1133l-190 -584h381l-185 584h-6z" />
<glyph unicode="&#xc7;" horiz-adv-x="1232" d="M858 1167q-55 17 -133 17q-191 0 -289 -129t-98 -365q0 -253 92.5 -385.5t298.5 -128.5q88 0 150 19q27 9 35 22.5t8 44.5v164l208 -14v-355q-80 -42 -188.5 -63t-214.5 -21l-27 -102q86 -6 138.5 -49.5t52.5 -118.5q0 -54 -22.5 -94t-60.5 -62t-80 -32.5t-87 -10.5 q-97 0 -184 37l32 107q84 -27 138 -27q51 0 74.5 21t23.5 55q0 44 -45.5 61t-134.5 17l65 207q-259 29 -393.5 203.5t-134.5 488.5q0 155 37 279t98.5 203.5t145.5 132.5t173.5 75t188.5 22q206 0 385 -83v-349l-209 -14v160q0 31 -8 44.5t-35 22.5z" />
<glyph unicode="&#xc8;" horiz-adv-x="1124" d="M1042 0h-972v166l67 6q29 3 44.5 15.5t15.5 41.5v953l-117 6v174h938v-340l-209 -14v82q0 34 -10.5 48.5t-48.5 14.5h-304v-350h474v-209h-474v-383h330q37 0 47.5 15t10.5 50v103l208 -14v-365zM438 1858l332 -322l-61 -84l-318 178q-59 33 -71 74t36 86z" />
<glyph unicode="&#xc9;" horiz-adv-x="1124" d="M1042 0h-972v166l67 6q29 3 44.5 15.5t15.5 41.5v953l-117 6v174h938v-340l-209 -14v82q0 34 -10.5 48.5t-48.5 14.5h-304v-350h474v-209h-474v-383h330q37 0 47.5 15t10.5 50v103l208 -14v-365zM377 1536l332 322l82 -68q47 -43 35 -85.5t-70 -74.5l-318 -178z" />
<glyph unicode="&#xca;" horiz-adv-x="1124" d="M1042 0h-972v166l67 6q29 3 44.5 15.5t15.5 41.5v953l-117 6v174h938v-340l-209 -14v82q0 34 -10.5 48.5t-48.5 14.5h-304v-350h474v-209h-474v-383h330q37 0 47.5 15t10.5 50v103l208 -14v-365zM317 1450l-84 70l242 262q42 45 85.5 45t82.5 -41l246 -264l-84 -72 l-246 176z" />
<glyph unicode="&#xcb;" horiz-adv-x="1124" d="M1042 0h-972v166l67 6q29 3 44.5 15.5t15.5 41.5v953l-117 6v174h938v-340l-209 -14v82q0 34 -10.5 48.5t-48.5 14.5h-304v-350h474v-209h-474v-383h330q37 0 47.5 15t10.5 50v103l208 -14v-365zM629 1612q0 58 39.5 97.5t101.5 39.5t101.5 -39.5t39.5 -97.5 q0 -59 -40 -97t-101 -38q-64 0 -102.5 38t-38.5 97zM219 1612q0 58 39.5 97.5t101.5 39.5t102 -39.5t40 -97.5t-40 -96.5t-102 -38.5q-64 0 -102.5 38t-38.5 97z" />
<glyph unicode="&#xcc;" horiz-adv-x="628" d="M193 240v942l-117 6v174h495v-166l-67 -6q-29 -3 -44.5 -17.5t-15.5 -48.5v-944l117 -6v-174h-495v166l67 6q31 3 45.5 17.5t14.5 50.5zM176 1858l332 -322l-62 -84l-317 178q-59 33 -71 74t36 86z" />
<glyph unicode="&#xcd;" horiz-adv-x="628" d="M193 240v942l-117 6v174h495v-166l-67 -6q-29 -3 -44.5 -17.5t-15.5 -48.5v-944l117 -6v-174h-495v166l67 6q31 3 45.5 17.5t14.5 50.5zM131 1536l332 322l82 -68q47 -43 35 -85.5t-70 -74.5l-317 -178z" />
<glyph unicode="&#xce;" horiz-adv-x="628" d="M193 240v942l-117 6v174h495v-166l-67 -6q-29 -3 -44.5 -17.5t-15.5 -48.5v-944l117 -6v-174h-495v166l67 6q31 3 45.5 17.5t14.5 50.5zM78 1450l-84 70l242 262q84 90 167 4l246 -264l-84 -72l-246 176z" />
<glyph unicode="&#xcf;" horiz-adv-x="628" d="M193 240v942l-117 6v174h495v-166l-67 -6q-29 -3 -44.5 -17.5t-15.5 -48.5v-944l117 -6v-174h-495v166l67 6q31 3 45.5 17.5t14.5 50.5zM389 1612q0 58 39.5 97.5t101.5 39.5t102 -39.5t40 -97.5t-40 -96.5t-102 -38.5q-64 0 -102.5 38t-38.5 97zM-20 1612 q0 58 39.5 97.5t101.5 39.5t101.5 -39.5t39.5 -97.5q0 -59 -40 -97t-101 -38q-64 0 -102.5 38t-38.5 97z" />
<glyph unicode="&#xd0;" horiz-adv-x="1390" d="M98 0v166l68 6q29 3 44 15.5t15 41.5v365h-151v184h151v404l-116 6v174h561q301 0 470 -160t169 -473q0 -156 -34 -281.5t-92 -208t-139 -137t-171.5 -78.5t-192.5 -24h-582zM475 1163v-385h346v-184h-346v-397h209q175 0 274 126.5t99 368.5q0 108 -20.5 190.5t-56 135 t-87.5 85.5t-109 46.5t-127 13.5h-182z" />
<glyph unicode="&#xd1;" horiz-adv-x="1443" d="M66 0v166l73 6q27 2 40.5 14.5t13.5 42.5v953l-117 6v174h368l580 -940h4v760l-135 6v174h500v-166l-74 -6q-49 -3 -49 -64v-1126h-240l-592 954h-4v-774l133 -6v-174h-501zM455 1491l-99 72q37 81 91.5 121t117.5 40q49 0 143.5 -28.5t131.5 -28.5q50 0 90 66l110 -60 q-35 -92 -86 -135t-125 -43q-44 0 -134 27.5t-122 27.5q-41 0 -63.5 -11t-54.5 -48z" />
<glyph unicode="&#xd2;" horiz-adv-x="1359" d="M1278 678q0 -343 -163 -524t-439 -181q-279 0 -436.5 180.5t-157.5 524.5q0 152 37 274.5t97 202t141.5 133t166 76t174.5 22.5q94 0 177.5 -23t158 -76.5t128 -134t85 -201.5t31.5 -273zM338 688q0 -77 8 -143t31.5 -135.5t61 -118.5t102 -80t149.5 -31q75 0 134 28 t96 74t61 111t33.5 133t9.5 146q0 48 -3.5 94t-14 97t-26.5 95t-42.5 85t-60.5 70t-83 46t-108 17q-94 0 -164 -41t-109 -112.5t-57 -154.5t-18 -180zM578 1858l331 -322l-61 -84l-318 178q-59 33 -70.5 74t36.5 86z" />
<glyph unicode="&#xd3;" horiz-adv-x="1359" d="M1278 678q0 -343 -163 -524t-439 -181q-279 0 -436.5 180.5t-157.5 524.5q0 152 37 274.5t97 202t141.5 133t166 76t174.5 22.5q94 0 177.5 -23t158 -76.5t128 -134t85 -201.5t31.5 -273zM338 688q0 -77 8 -143t31.5 -135.5t61 -118.5t102 -80t149.5 -31q75 0 134 28 t96 74t61 111t33.5 133t9.5 146q0 48 -3.5 94t-14 97t-26.5 95t-42.5 85t-60.5 70t-83 46t-108 17q-94 0 -164 -41t-109 -112.5t-57 -154.5t-18 -180zM485 1536l332 322l82 -68q47 -43 35 -85.5t-70 -74.5l-317 -178z" />
<glyph unicode="&#xd4;" horiz-adv-x="1359" d="M1278 678q0 -343 -163 -524t-439 -181q-279 0 -436.5 180.5t-157.5 524.5q0 152 37 274.5t97 202t141.5 133t166 76t174.5 22.5q94 0 177.5 -23t158 -76.5t128 -134t85 -201.5t31.5 -273zM338 688q0 -77 8 -143t31.5 -135.5t61 -118.5t102 -80t149.5 -31q75 0 134 28 t96 74t61 111t33.5 133t9.5 146q0 48 -3.5 94t-14 97t-26.5 95t-42.5 85t-60.5 70t-83 46t-108 17q-94 0 -164 -41t-109 -112.5t-57 -154.5t-18 -180zM451 1450l-84 70l241 262q42 45 85.5 45t82.5 -41l246 -264l-84 -72l-246 176z" />
<glyph unicode="&#xd5;" horiz-adv-x="1359" d="M1278 678q0 -343 -163 -524t-439 -181q-279 0 -436.5 180.5t-157.5 524.5q0 152 37 274.5t97 202t141.5 133t166 76t174.5 22.5q94 0 177.5 -23t158 -76.5t128 -134t85 -201.5t31.5 -273zM338 688q0 -77 8 -143t31.5 -135.5t61 -118.5t102 -80t149.5 -31q75 0 134 28 t96 74t61 111t33.5 133t9.5 146q0 48 -3.5 94t-14 97t-26.5 95t-42.5 85t-60.5 70t-83 46t-108 17q-94 0 -164 -41t-109 -112.5t-57 -154.5t-18 -180zM451 1491l-99 72q37 81 91.5 121t117.5 40q49 0 143.5 -28.5t131.5 -28.5q50 0 90 66l110 -60q-35 -92 -86 -135t-125 -43 q-44 0 -134 27.5t-122 27.5q-41 0 -63.5 -11t-54.5 -48z" />
<glyph unicode="&#xd6;" horiz-adv-x="1359" d="M1278 678q0 -343 -163 -524t-439 -181q-279 0 -436.5 180.5t-157.5 524.5q0 152 37 274.5t97 202t141.5 133t166 76t174.5 22.5q94 0 177.5 -23t158 -76.5t128 -134t85 -201.5t31.5 -273zM338 688q0 -77 8 -143t31.5 -135.5t61 -118.5t102 -80t149.5 -31q75 0 134 28 t96 74t61 111t33.5 133t9.5 146q0 48 -3.5 94t-14 97t-26.5 95t-42.5 85t-60.5 70t-83 46t-108 17q-94 0 -164 -41t-109 -112.5t-57 -154.5t-18 -180zM756 1612q0 58 39.5 97.5t101.5 39.5t101.5 -39.5t39.5 -97.5q0 -59 -40 -97t-101 -38q-64 0 -102.5 38t-38.5 97z M346 1612q0 58 39.5 97.5t101.5 39.5t102 -39.5t40 -97.5t-40 -96.5t-102 -38.5q-64 0 -102.5 38t-38.5 97z" />
<glyph unicode="&#xd7;" horiz-adv-x="1095" d="M403 643l-233 234l147 147l234 -233l229 229l142 -141l-230 -232l232 -231l-148 -148l-231 232l-232 -232l-143 142z" />
<glyph unicode="&#xd8;" horiz-adv-x="1359" d="M1278 678q0 -343 -163 -524t-439 -181q-110 0 -219 33l-103 -211l-178 86l109 225q-203 181 -203 572q0 152 37 274.5t97 202t141.5 133t166 76t174.5 22.5q113 0 211 -34l90 186l183 -84l-101 -209q197 -184 197 -567zM338 688q0 -225 70 -352l393 819q-61 21 -115 21 q-94 0 -164 -41t-109 -112.5t-57 -154.5t-18 -180zM1024 672q0 207 -70 342l-391 -813q55 -21 127 -21q75 0 134 28t96 74t61 111t33.5 133t9.5 146z" />
<glyph unicode="&#xd9;" horiz-adv-x="1349" d="M412 1122v-680q0 -143 68 -201.5t200 -58.5q126 0 196 63.5t70 186.5v750l-119 6v174h486v-166l-68 -6q-59 -6 -59 -62v-731q0 -199 -139 -311.5t-375 -112.5q-256 0 -382 109.5t-126 347.5v752l-119 6v174h496v-166l-68 -6q-32 -3 -46.5 -17.5t-14.5 -50.5zM526 1858 l332 -322l-61 -84l-318 178q-59 33 -71 74t36 86z" />
<glyph unicode="&#xda;" horiz-adv-x="1349" d="M412 1122v-680q0 -143 68 -201.5t200 -58.5q126 0 196 63.5t70 186.5v750l-119 6v174h486v-166l-68 -6q-59 -6 -59 -62v-731q0 -199 -139 -311.5t-375 -112.5q-256 0 -382 109.5t-126 347.5v752l-119 6v174h496v-166l-68 -6q-32 -3 -46.5 -17.5t-14.5 -50.5zM498 1536 l331 322l82 -68q47 -43 35.5 -85.5t-69.5 -74.5l-318 -178z" />
<glyph unicode="&#xdb;" horiz-adv-x="1349" d="M412 1122v-680q0 -143 68 -201.5t200 -58.5q126 0 196 63.5t70 186.5v750l-119 6v174h486v-166l-68 -6q-59 -6 -59 -62v-731q0 -199 -139 -311.5t-375 -112.5q-256 0 -382 109.5t-126 347.5v752l-119 6v174h496v-166l-68 -6q-32 -3 -46.5 -17.5t-14.5 -50.5zM428 1450 l-84 70l242 262q42 45 85.5 45t82.5 -41l245 -264l-84 -72l-245 176z" />
<glyph unicode="&#xdc;" horiz-adv-x="1349" d="M412 1122v-680q0 -143 68 -201.5t200 -58.5q126 0 196 63.5t70 186.5v750l-119 6v174h486v-166l-68 -6q-59 -6 -59 -62v-731q0 -199 -139 -311.5t-375 -112.5q-256 0 -382 109.5t-126 347.5v752l-119 6v174h496v-166l-68 -6q-32 -3 -46.5 -17.5t-14.5 -50.5zM756 1612 q0 58 39.5 97.5t101.5 39.5t101.5 -39.5t39.5 -97.5q0 -59 -40 -97t-101 -38q-64 0 -102.5 38t-38.5 97zM346 1612q0 58 39.5 97.5t101.5 39.5t102 -39.5t40 -97.5t-40 -96.5t-102 -38.5q-64 0 -102.5 38t-38.5 97z" />
<glyph unicode="&#xdd;" horiz-adv-x="1167" d="M455 229v291l-349 662l-96 6v174h500v-166l-61 -6q-33 -3 -43 -25.5t8 -54.5l174 -356h8l223 426l-102 8v174h440v-166l-61 -6q-23 -3 -38.5 -17.5t-31.5 -44.5l-321 -608v-340l159 -6v-174h-577v166l108 6q31 2 45.5 14.5t14.5 42.5zM391 1536l332 322l82 -68 q47 -43 35 -85.5t-70 -74.5l-317 -178z" />
<glyph unicode="&#xde;" horiz-adv-x="1208" d="M442 465h148q143 0 221 51.5t78 171.5q0 71 -21 116t-66 68t-98.5 31t-136.5 8h-125v-446zM442 1145v-35h220q229 0 357 -102t128 -295q0 -216 -145.5 -331.5t-385.5 -115.5h-174v-94l197 -6v-166h-573v160l67 6q29 3 44.5 15.5t15.5 41.5v963l-127 8v168h567v-154 l-131 -6q-60 -4 -60 -57z" />
<glyph unicode="&#xdf;" horiz-adv-x="1280" d="M184 229v815q0 416 492 416q222 0 332 -83t110 -214q0 -58 -27.5 -110t-67 -88.5t-79 -69.5t-67 -68t-27.5 -69q0 -30 20.5 -56t53 -48t71.5 -45.5t78.5 -52.5t72 -63t53 -84t20.5 -110q0 -157 -104 -241.5t-265 -84.5q-187 0 -328 64v285l185 14v-98q0 -33 6 -47.5 t32 -24.5q41 -16 101 -16q58 2 94.5 36.5t36.5 98.5q0 39 -19.5 71.5t-50.5 56t-69 45.5t-76 46t-69 52t-50.5 69t-19.5 92q0 42 14.5 80t38 67.5t51.5 57t56 53t51.5 50.5t38 54.5t14.5 59.5q0 69 -59 103t-164 34q-236 0 -236 -219v-1057h-371v156l68 6q31 3 45 17t14 50z " />
<glyph unicode="&#xe0;" horiz-adv-x="1161" d="M987 989v-762q0 -33 10.5 -45t40.5 -14l66 -4v-164h-326v119l-6 2q-47 -69 -121.5 -108.5t-158.5 -39.5q-208 0 -309 133.5t-101 364.5q0 278 135.5 434t405.5 156q64 0 164.5 -17.5t199.5 -54.5zM750 326v530q-60 27 -158 27q-71 0 -122.5 -31.5t-81 -88.5t-43 -127 t-13.5 -157q0 -332 213 -332q91 0 148 54.5t57 124.5zM518 1610l238 -393l-80 -68l-262 254q-23 22 -35.5 44t-14 43.5t13 41t44.5 33.5z" />
<glyph unicode="&#xe1;" horiz-adv-x="1161" d="M987 989v-762q0 -33 10.5 -45t40.5 -14l66 -4v-164h-326v119l-6 2q-47 -69 -121.5 -108.5t-158.5 -39.5q-208 0 -309 133.5t-101 364.5q0 278 135.5 434t405.5 156q64 0 164.5 -17.5t199.5 -54.5zM750 326v530q-60 27 -158 27q-71 0 -122.5 -31.5t-81 -88.5t-43 -127 t-13.5 -157q0 -332 213 -332q91 0 148 54.5t57 124.5zM438 1217l238 393l96 -45q30 -14 44.5 -33.5t13 -41t-14 -43.5t-35.5 -44l-262 -254z" />
<glyph unicode="&#xe2;" horiz-adv-x="1161" d="M987 989v-762q0 -33 10.5 -45t40.5 -14l66 -4v-164h-326v119l-6 2q-47 -69 -121.5 -108.5t-158.5 -39.5q-208 0 -309 133.5t-101 364.5q0 278 135.5 434t405.5 156q64 0 164.5 -17.5t199.5 -54.5zM750 326v530q-60 27 -158 27q-71 0 -122.5 -31.5t-81 -88.5t-43 -127 t-13.5 -157q0 -332 213 -332q91 0 148 54.5t57 124.5zM356 1151l-84 66l236 309q44 56 92.5 53.5t89.5 -57.5l232 -303l-84 -70l-242 213z" />
<glyph unicode="&#xe3;" horiz-adv-x="1161" d="M987 989v-762q0 -33 10.5 -45t40.5 -14l66 -4v-164h-326v119l-6 2q-47 -69 -121.5 -108.5t-158.5 -39.5q-208 0 -309 133.5t-101 364.5q0 278 135.5 434t405.5 156q64 0 164.5 -17.5t199.5 -54.5zM750 326v530q-60 27 -158 27q-71 0 -122.5 -31.5t-81 -88.5t-43 -127 t-13.5 -157q0 -332 213 -332q91 0 148 54.5t57 124.5zM358 1221l-98 71q37 82 91.5 122t117.5 40q49 0 143 -28.5t131 -28.5q51 0 91 65l110 -59q-35 -92 -86 -135t-125 -43q-44 0 -134 27.5t-122 27.5q-41 0 -64 -11t-55 -48z" />
<glyph unicode="&#xe4;" horiz-adv-x="1161" d="M987 989v-762q0 -33 10.5 -45t40.5 -14l66 -4v-164h-326v119l-6 2q-47 -69 -121.5 -108.5t-158.5 -39.5q-208 0 -309 133.5t-101 364.5q0 278 135.5 434t405.5 156q64 0 164.5 -17.5t199.5 -54.5zM750 326v530q-60 27 -158 27q-71 0 -122.5 -31.5t-81 -88.5t-43 -127 t-13.5 -157q0 -332 213 -332q91 0 148 54.5t57 124.5zM658 1325q0 58 39.5 97.5t101.5 39.5t101.5 -39.5t39.5 -97.5q0 -59 -40 -97t-101 -38q-64 0 -102.5 38t-38.5 97zM248 1325q0 58 39.5 97.5t101.5 39.5t102 -39.5t40 -97.5t-40 -96.5t-102 -38.5q-64 0 -102.5 38 t-38.5 97z" />
<glyph unicode="&#xe5;" horiz-adv-x="1161" d="M987 989v-762q0 -33 10.5 -45t40.5 -14l66 -4v-164h-326v119l-6 2q-47 -69 -121.5 -108.5t-158.5 -39.5q-208 0 -309 133.5t-101 364.5q0 278 135.5 434t405.5 156q64 0 164.5 -17.5t199.5 -54.5zM750 326v530q-60 27 -158 27q-71 0 -122.5 -31.5t-81 -88.5t-43 -127 t-13.5 -157q0 -332 213 -332q91 0 148 54.5t57 124.5zM393 1346q0 83 54.5 136.5t140.5 53.5q88 0 139 -51.5t51 -128.5q0 -89 -53 -145t-143 -56q-88 0 -138.5 54.5t-50.5 136.5zM514 1346q0 -38 19 -62t55 -24q35 0 54.5 24.5t19.5 61.5q0 84 -74 84t-74 -84z" />
<glyph unicode="&#xe6;" horiz-adv-x="1566" d="M1159 1061q153 0 242.5 -75t89.5 -210q0 -76 -25.5 -136.5t-72 -99.5t-101.5 -66t-125 -41.5t-131 -20t-129 -6.5q6 -113 70 -178.5t184 -65.5q122 0 256 92l78 -166q-46 -40 -143 -77.5t-226 -37.5q-212 0 -323 111q-136 -111 -303 -111q-92 0 -164 26t-119.5 71.5 t-78 110.5t-43.5 137.5t-13 158.5q0 273 137 428.5t393 155.5q65 0 145.5 -18.5t147.5 -51.5q109 70 254 70zM588 883q-87 0 -146.5 -54.5t-84.5 -138.5t-25 -190q0 -176 50 -264.5t169 -88.5q88 0 154 66q-54 114 -54 281q0 96 29 192.5t76 165.5q-77 31 -168 31zM1266 768 q0 56 -32.5 87.5t-88.5 31.5q-78 0 -134.5 -47.5t-82.5 -116t-29 -148.5q48 -1 105 7.5t119 28.5t102.5 61t40.5 96z" />
<glyph unicode="&#xe7;" horiz-adv-x="964" d="M580 160q114 0 235 88l88 -158q-132 -109 -321 -117l-25 -102q86 -6 138.5 -49.5t52.5 -118.5q0 -54 -22.5 -94t-60.5 -62t-80 -32.5t-87 -10.5q-98 0 -185 37l33 107q84 -27 137 -27q51 0 75 21t24 55q0 44 -45.5 61t-135.5 17l64 202q-190 23 -293.5 158.5 t-103.5 366.5q0 120 28.5 217t76 160t111.5 105t131.5 59.5t139.5 17.5q164 0 319 -84v-266l-188 -15v99q0 31 -8.5 45.5t-34.5 23.5q-41 13 -80 13q-122 0 -185 -90t-63 -261q0 -173 66 -269.5t199 -96.5z" />
<glyph unicode="&#xe8;" horiz-adv-x="991" d="M582 1061q153 0 243 -75t90 -210q0 -65 -20 -119t-53 -91.5t-80.5 -66.5t-98 -46t-110.5 -28t-112 -15t-109 -4q7 -108 68 -175t184 -67q132 0 258 90l78 -166q-41 -36 -138.5 -75.5t-222.5 -39.5q-128 0 -222 37.5t-150.5 108t-83.5 163.5t-27 210q0 115 32.5 217 t94 181t159.5 125t220 46zM690 772q0 56 -33 85.5t-90 29.5q-78 0 -133.5 -46.5t-81 -114t-28.5 -148.5q65 1 122.5 9.5t116 28.5t93 60t34.5 96zM450 1610l238 -393l-80 -68l-262 254q-23 22 -35.5 44t-14 43.5t13 41t44.5 33.5z" />
<glyph unicode="&#xe9;" horiz-adv-x="991" d="M582 1061q153 0 243 -75t90 -210q0 -65 -20 -119t-53 -91.5t-80.5 -66.5t-98 -46t-110.5 -28t-112 -15t-109 -4q7 -108 68 -175t184 -67q132 0 258 90l78 -166q-41 -36 -138.5 -75.5t-222.5 -39.5q-128 0 -222 37.5t-150.5 108t-83.5 163.5t-27 210q0 115 32.5 217 t94 181t159.5 125t220 46zM690 772q0 56 -33 85.5t-90 29.5q-78 0 -133.5 -46.5t-81 -114t-28.5 -148.5q65 1 122.5 9.5t116 28.5t93 60t34.5 96zM354 1217l238 393l96 -45q30 -14 44.5 -33.5t13 -41t-14 -43.5t-35.5 -44l-262 -254z" />
<glyph unicode="&#xea;" horiz-adv-x="991" d="M582 1061q153 0 243 -75t90 -210q0 -65 -20 -119t-53 -91.5t-80.5 -66.5t-98 -46t-110.5 -28t-112 -15t-109 -4q7 -108 68 -175t184 -67q132 0 258 90l78 -166q-41 -36 -138.5 -75.5t-222.5 -39.5q-128 0 -222 37.5t-150.5 108t-83.5 163.5t-27 210q0 115 32.5 217 t94 181t159.5 125t220 46zM690 772q0 56 -33 85.5t-90 29.5q-78 0 -133.5 -46.5t-81 -114t-28.5 -148.5q65 1 122.5 9.5t116 28.5t93 60t34.5 96zM297 1151l-84 66l236 309q44 56 92.5 53.5t89.5 -57.5l232 -303l-84 -70l-242 213z" />
<glyph unicode="&#xeb;" horiz-adv-x="991" d="M582 1061q-122 0 -220 -46t-159.5 -125t-94 -181t-32.5 -217q0 -117 27 -210t83.5 -163.5t150.5 -108t222 -37.5q125 0 222.5 39.5t138.5 75.5l-78 166q-126 -90 -258 -90q-123 0 -184 67t-68 175q57 0 109 4t112 15t110.5 28t98 46t80.5 66.5t53 91.5t20 119 q0 135 -90 210t-243 75zM690 772q0 -56 -34.5 -96t-93 -60t-116 -28.5t-122.5 -9.5q3 81 28.5 148.5t81 114t133.5 46.5q57 0 90 -29.5t33 -85.5zM596 1325q0 58 39.5 97.5t101.5 39.5t102 -39.5t40 -97.5t-40 -96.5t-102 -38.5q-64 0 -102.5 38t-38.5 97zM186 1325 q0 58 40 97.5t102 39.5t101.5 -39.5t39.5 -97.5q0 -59 -40 -97t-101 -38q-64 0 -103 38t-39 97z" />
<glyph unicode="&#xec;" horiz-adv-x="606" d="M438 1030v-860l117 -6v-164h-487v156l67 6q31 3 45.5 17t14.5 48v570q0 34 -11.5 46.5t-40.5 12.5l-71 4v170h366zM196 1610l238 -393l-80 -68l-262 254q-23 22 -35.5 44t-14 43.5t13 41t44.5 33.5z" />
<glyph unicode="&#xed;" horiz-adv-x="606" d="M438 1030v-860l117 -6v-164h-487v156l67 6q31 3 45.5 17t14.5 48v570q0 34 -11.5 46.5t-40.5 12.5l-71 4v170h366zM168 1217l238 393l96 -45q30 -14 44.5 -33.5t13 -41t-14 -43.5t-35.5 -44l-262 -254z" />
<glyph unicode="&#xee;" horiz-adv-x="606" d="M438 1030v-860l117 -6v-164h-487v156l67 6q31 3 45.5 17t14.5 48v570q0 34 -11.5 46.5t-40.5 12.5l-71 4v170h366zM16 1151l-84 66l236 309q44 56 92.5 53.5t89.5 -57.5l232 -303l-84 -70l-242 213z" />
<glyph unicode="&#xef;" horiz-adv-x="606" d="M438 1030v-860l117 -6v-164h-487v156l67 6q31 3 45.5 17t14.5 48v570q0 34 -11.5 46.5t-40.5 12.5l-71 4v170h366zM319 1325q0 58 40 97.5t102 39.5t101.5 -39.5t39.5 -97.5q0 -59 -40 -97t-101 -38q-64 0 -103 38t-39 97zM-90 1325q0 58 39.5 97.5t101.5 39.5t102 -39.5 t40 -97.5t-40 -96.5t-102 -38.5q-64 0 -102.5 38t-38.5 97z" />
<glyph unicode="&#xf0;" horiz-adv-x="1048" d="M414 977l-95 133l136 92q-90 55 -205 76l49 190q205 -26 350 -133l172 117l92 -133l-137 -96q203 -253 203 -658q0 -129 -26.5 -233.5t-82 -187t-150.5 -128t-222 -45.5q-114 0 -199 34.5t-136.5 97t-76.5 144t-25 181.5q0 212 112 347.5t304 135.5q135 0 234 -65 q-40 146 -127 248zM313 436q0 -130 50 -200t145 -70q110 0 164.5 101.5t54.5 267.5q0 83 -2 112q-37 31 -97.5 53.5t-115.5 22.5q-99 0 -149 -74.5t-50 -212.5z" />
<glyph unicode="&#xf1;" horiz-adv-x="1228" d="M55 866v164h346v-133q54 77 142.5 120.5t189.5 43.5q157 0 241.5 -89t84.5 -267v-535l117 -6v-164h-488v156l68 6q31 3 45 17t14 50v422q0 111 -35 166t-133 55q-97 0 -154 -61t-57 -145v-496l117 -6v-164h-487v156l67 6q32 3 46 17t14 50v568q0 33 -12 47t-40 16z M362 1221l-98 71q37 82 91.5 122t117.5 40q49 0 143 -28.5t131 -28.5q51 0 91 65l110 -59q-35 -92 -86 -135t-125 -43q-44 0 -134 27.5t-122 27.5q-41 0 -64 -11t-55 -48z" />
<glyph unicode="&#xf2;" horiz-adv-x="1081" d="M539 150q115 0 169 95.5t54 264.5q0 182 -50.5 276.5t-168.5 94.5q-116 0 -172 -90t-56 -246q0 -53 3 -96t11 -90.5t24 -83t40 -65t61 -45t85 -15.5zM68 516q0 123 31 220t79.5 156.5t114.5 99t130 54.5t132 15q38 0 73.5 -3.5t83 -17t87.5 -35t80.5 -61t69 -92.5 t46 -132.5t17.5 -176.5q0 -143 -38.5 -254.5t-106 -180.5t-155 -104t-190.5 -35q-212 0 -333 138t-121 409zM467 1610l238 -393l-80 -68l-262 254q-23 22 -35.5 44t-14 43.5t13 41t44.5 33.5z" />
<glyph unicode="&#xf3;" horiz-adv-x="1081" d="M539 150q115 0 169 95.5t54 264.5q0 182 -50.5 276.5t-168.5 94.5q-116 0 -172 -90t-56 -246q0 -53 3 -96t11 -90.5t24 -83t40 -65t61 -45t85 -15.5zM68 516q0 123 31 220t79.5 156.5t114.5 99t130 54.5t132 15q38 0 73.5 -3.5t83 -17t87.5 -35t80.5 -61t69 -92.5 t46 -132.5t17.5 -176.5q0 -143 -38.5 -254.5t-106 -180.5t-155 -104t-190.5 -35q-212 0 -333 138t-121 409zM381 1217l237 393l97 -45q30 -14 44.5 -33.5t13 -41t-14 -43.5t-35.5 -44l-262 -254z" />
<glyph unicode="&#xf4;" horiz-adv-x="1081" d="M539 150q115 0 169 95.5t54 264.5q0 182 -50.5 276.5t-168.5 94.5q-116 0 -172 -90t-56 -246q0 -53 3 -96t11 -90.5t24 -83t40 -65t61 -45t85 -15.5zM68 516q0 123 31 220t79.5 156.5t114.5 99t130 54.5t132 15q38 0 73.5 -3.5t83 -17t87.5 -35t80.5 -61t69 -92.5 t46 -132.5t17.5 -176.5q0 -143 -38.5 -254.5t-106 -180.5t-155 -104t-190.5 -35q-212 0 -333 138t-121 409zM295 1151l-84 66l236 309q44 56 92.5 53.5t89.5 -57.5l232 -303l-84 -70l-242 213z" />
<glyph unicode="&#xf5;" horiz-adv-x="1081" d="M539 150q115 0 169 95.5t54 264.5q0 182 -50.5 276.5t-168.5 94.5q-116 0 -172 -90t-56 -246q0 -53 3 -96t11 -90.5t24 -83t40 -65t61 -45t85 -15.5zM68 516q0 123 31 220t79.5 156.5t114.5 99t130 54.5t132 15q38 0 73.5 -3.5t83 -17t87.5 -35t80.5 -61t69 -92.5 t46 -132.5t17.5 -176.5q0 -143 -38.5 -254.5t-106 -180.5t-155 -104t-190.5 -35q-212 0 -333 138t-121 409zM301 1221l-98 71q37 82 91.5 122t117.5 40q49 0 143 -28.5t131 -28.5q50 0 90 65l111 -59q-35 -92 -86 -135t-125 -43q-44 0 -134 27.5t-122 27.5q-41 0 -64 -11 t-55 -48z" />
<glyph unicode="&#xf6;" horiz-adv-x="1081" d="M539 150q115 0 169 95.5t54 264.5q0 182 -50.5 276.5t-168.5 94.5q-116 0 -172 -90t-56 -246q0 -53 3 -96t11 -90.5t24 -83t40 -65t61 -45t85 -15.5zM68 516q0 123 31 220t79.5 156.5t114.5 99t130 54.5t132 15q38 0 73.5 -3.5t83 -17t87.5 -35t80.5 -61t69 -92.5 t46 -132.5t17.5 -176.5q0 -143 -38.5 -254.5t-106 -180.5t-155 -104t-190.5 -35q-212 0 -333 138t-121 409zM598 1325q0 58 39.5 97.5t101.5 39.5t101.5 -39.5t39.5 -97.5q0 -59 -40 -97t-101 -38q-64 0 -102.5 38t-38.5 97zM188 1325q0 58 39.5 97.5t101.5 39.5t102 -39.5 t40 -97.5t-40 -96.5t-102 -38.5q-64 0 -102.5 38t-38.5 97z" />
<glyph unicode="&#xf7;" horiz-adv-x="1095" d="M418 262q0 58 35.5 97.5t95.5 39.5q62 0 98.5 -37t36.5 -98t-37 -101t-96 -40q-63 0 -98 37.5t-35 101.5zM418 1034q0 58 35.5 97.5t95.5 39.5q62 0 98.5 -37t36.5 -98t-37 -101t-96 -40q-63 0 -98 37.5t-35 101.5zM963 741v-196h-830v196h830z" />
<glyph unicode="&#xf8;" horiz-adv-x="1081" d="M281 -172l-148 74l86 176q-147 141 -147 438q0 123 31 220t79.5 156.5t114.5 99t130 54.5t132 15q87 0 162 -23l78 156l149 -72l-82 -164q150 -132 150 -415q0 -143 -38.5 -254.5t-106 -180.5t-155 -104t-190.5 -35q-87 0 -164 25zM543 150q115 0 169 95.5t54 264.5 q0 128 -27 213l-284 -557q40 -16 88 -16zM547 881q-116 0 -172 -90t-56 -246q0 -147 25 -234l283 555q-34 15 -80 15z" />
<glyph unicode="&#xf9;" horiz-adv-x="1210" d="M1153 162v-162h-332v133q-54 -76 -142 -118t-190 -42q-317 0 -317 355v473q0 31 -12 43t-39 14l-66 4v168h361v-649q0 -108 30.5 -163.5t120.5 -55.5q102 0 160.5 59.5t58.5 143.5v432q0 34 -11 46.5t-40 14.5l-65 4v168h360v-803q0 -33 10.5 -44.5t40.5 -14.5zM479 1610 l238 -393l-80 -68l-262 254q-23 22 -35.5 44t-14 43.5t13 41t44.5 33.5z" />
<glyph unicode="&#xfa;" horiz-adv-x="1210" d="M1153 162v-162h-332v133q-54 -76 -142 -118t-190 -42q-317 0 -317 355v473q0 31 -12 43t-39 14l-66 4v168h361v-649q0 -108 30.5 -163.5t120.5 -55.5q102 0 160.5 59.5t58.5 143.5v432q0 34 -11 46.5t-40 14.5l-65 4v168h360v-803q0 -33 10.5 -44.5t40.5 -14.5zM418 1217 l237 393l97 -45q30 -14 44.5 -33.5t13 -41t-14 -43.5t-35.5 -44l-262 -254z" />
<glyph unicode="&#xfb;" horiz-adv-x="1210" d="M1153 162v-162h-332v133q-54 -76 -142 -118t-190 -42q-317 0 -317 355v473q0 31 -12 43t-39 14l-66 4v168h361v-649q0 -108 30.5 -163.5t120.5 -55.5q102 0 160.5 59.5t58.5 143.5v432q0 34 -11 46.5t-40 14.5l-65 4v168h360v-803q0 -33 10.5 -44.5t40.5 -14.5zM321 1151 l-84 66l236 309q44 56 92.5 53.5t89.5 -57.5l232 -303l-84 -70l-242 213z" />
<glyph unicode="&#xfc;" horiz-adv-x="1210" d="M1153 162v-162h-332v133q-54 -76 -142 -118t-190 -42q-317 0 -317 355v473q0 31 -12 43t-39 14l-66 4v168h361v-649q0 -108 30.5 -163.5t120.5 -55.5q102 0 160.5 59.5t58.5 143.5v432q0 34 -11 46.5t-40 14.5l-65 4v168h360v-803q0 -33 10.5 -44.5t40.5 -14.5zM631 1325 q0 58 39.5 97.5t101.5 39.5t101.5 -39.5t39.5 -97.5q0 -59 -40 -97t-101 -38q-64 0 -102.5 38t-38.5 97zM221 1325q0 58 39.5 97.5t101.5 39.5t102 -39.5t40 -97.5t-40 -96.5t-102 -38.5q-64 0 -102.5 38t-38.5 97z" />
<glyph unicode="&#xfd;" horiz-adv-x="1173" d="M821 39v156q-54 -76 -142 -118t-190 -42q-317 0 -317 354v412q0 31 -12 43t-39 14l-66 4v168h361v-588q0 -108 30.5 -163.5t120.5 -55.5q102 0 160.5 59.5t58.5 143.5v371q0 34 -11 47.5t-40 13.5l-65 4v168h360v-991q0 -248 -120 -362.5t-355 -114.5q-103 0 -213 18 t-172 49v285l195 16v-98q0 -30 10 -47t37 -27q56 -20 145 -20q264 0 264 301zM420 1217l238 393l96 -45q30 -14 44.5 -33.5t13 -41t-14 -43.5t-35.5 -44l-262 -254z" />
<glyph unicode="&#xfe;" horiz-adv-x="1163" d="M831 532q0 52 -5.5 97.5t-20.5 93t-40 81t-66.5 54.5t-96.5 21q-73 0 -128.5 -43.5t-55.5 -110.5v-510q77 -51 180 -51q122 0 177.5 101.5t55.5 266.5zM1083 565q0 -282 -117.5 -439t-328.5 -157q-58 0 -117.5 17t-101.5 43v-283l166 -8v-162h-529v156l68 6q31 3 45 17 t14 50v1432q0 26 -12 36.5t-39 12.5l-72 4v170h359v-485q43 40 109.5 63t138.5 23q191 0 304 -132t113 -364z" />
<glyph unicode="&#xff;" horiz-adv-x="1173" d="M821 39v156q-54 -76 -142 -118t-190 -42q-317 0 -317 354v412q0 31 -12 43t-39 14l-66 4v168h361v-588q0 -108 30.5 -163.5t120.5 -55.5q102 0 160.5 59.5t58.5 143.5v371q0 34 -11 47.5t-40 13.5l-65 4v168h360v-991q0 -248 -120 -362.5t-355 -114.5q-103 0 -213 18 t-172 49v285l195 16v-98q0 -30 10 -47t37 -27q56 -20 145 -20q264 0 264 301zM616 1325q0 58 40 97.5t102 39.5t101.5 -39.5t39.5 -97.5q0 -59 -40 -97t-101 -38q-64 0 -103 38t-39 97zM207 1325q0 58 39.5 97.5t101.5 39.5t101.5 -39.5t39.5 -97.5q0 -59 -40 -97t-101 -38 q-64 0 -102.5 38t-38.5 97z" />
<glyph unicode="&#x100;" horiz-adv-x="1355" d="M139 229l330 955l-129 12v166h469l418 -1182h2l117 -6v-174h-529v166l78 6q35 3 47 16t2 45l-43 127h-479l-62 -180l123 -6v-174h-473v166l68 6q26 3 38 15t23 42zM662 1133l-191 -584h381l-184 584h-6zM326 1503v178h587v-178h-587z" />
<glyph unicode="&#x101;" horiz-adv-x="1161" d="M987 989v-762q0 -33 10.5 -45t40.5 -14l66 -4v-164h-326v119l-6 2q-47 -69 -121.5 -108.5t-158.5 -39.5q-208 0 -309 133.5t-101 364.5q0 278 135.5 434t405.5 156q64 0 164.5 -17.5t199.5 -54.5zM750 326v530q-60 27 -158 27q-71 0 -122.5 -31.5t-81 -88.5t-43 -127 t-13.5 -157q0 -332 213 -332q91 0 148 54.5t57 124.5zM305 1249v172h588v-172h-588z" />
<glyph unicode="&#x102;" horiz-adv-x="1355" d="M139 229l330 955l-129 12v166h469l418 -1182h2l117 -6v-174h-529v166l78 6q35 3 47 16t2 45l-43 127h-479l-62 -180l123 -6v-174h-473v166l68 6q26 3 38 15t23 42zM662 1133l-191 -584h381l-184 584h-6zM831 1790l136 -55q-85 -260 -346 -260q-74 0 -133 21t-98 58.5 t-63.5 81.5t-39.5 97l137 57q32 -80 81 -120t124 -40t121.5 37.5t80.5 122.5z" />
<glyph unicode="&#x103;" horiz-adv-x="1161" d="M987 989v-762q0 -33 10.5 -45t40.5 -14l66 -4v-164h-326v119l-6 2q-47 -69 -121.5 -108.5t-158.5 -39.5q-208 0 -309 133.5t-101 364.5q0 278 135.5 434t405.5 156q64 0 164.5 -17.5t199.5 -54.5zM750 326v530q-60 27 -158 27q-71 0 -122.5 -31.5t-81 -88.5t-43 -127 t-13.5 -157q0 -332 213 -332q91 0 148 54.5t57 124.5zM787 1477l133 -31q-32 -138 -116 -216.5t-216 -78.5q-144 0 -225.5 84.5t-100.5 210.5l140 33q32 -93 77.5 -132.5t114.5 -39.5q64 0 110.5 37.5t82.5 132.5z" />
<glyph unicode="&#x104;" horiz-adv-x="1355" d="M139 229l330 955l-129 12v166h469l418 -1182h2l117 -6v-174h-93q-202 -88 -202 -199q0 -36 18.5 -56.5t65.5 -20.5q44 0 96 22l45 -135q-100 -49 -203 -49q-123 0 -175 56.5t-52 139.5q0 142 180 242h-209v166l78 6q35 3 47 16t2 45l-43 127h-479l-62 -180l123 -6v-174 h-473v166l68 6q26 3 38 15t23 42zM662 1133l-191 -584h381l-184 584h-6z" />
<glyph unicode="&#x105;" horiz-adv-x="1161" d="M987 989v-762q0 -33 10.5 -45t40.5 -14l66 -4v-164q-107 -41 -165 -88t-58 -107q0 -39 18 -60t66 -21q44 0 96 22l45 -135q-100 -49 -203 -49q-123 0 -175 56.5t-52 139.5q0 154 194 228v14h-92v119l-6 2q-47 -69 -121.5 -108.5t-158.5 -39.5q-208 0 -309 133.5 t-101 364.5q0 278 135.5 434t405.5 156q64 0 164.5 -17.5t199.5 -54.5zM750 326v530q-60 27 -158 27q-71 0 -122.5 -31.5t-81 -88.5t-43 -127t-13.5 -157q0 -332 213 -332q91 0 148 54.5t57 124.5z" />
<glyph unicode="&#x106;" horiz-adv-x="1232" d="M858 1167q-55 17 -133 17q-191 0 -289 -129t-98 -365q0 -253 92.5 -385.5t298.5 -128.5q88 0 150 19q27 9 35 22.5t8 44.5v164l208 -14v-355q-80 -42 -189.5 -63t-215.5 -21q-314 0 -478.5 176.5t-164.5 524.5q0 155 37 279t98.5 203.5t145.5 132.5t173.5 75t188.5 22 q206 0 385 -83v-349l-209 -14v160q0 31 -8 44.5t-35 22.5zM487 1536l332 322l82 -68q47 -43 35 -85.5t-70 -74.5l-317 -178z" />
<glyph unicode="&#x107;" horiz-adv-x="964" d="M580 160q114 0 235 88l88 -158q-65 -53 -156.5 -86t-199.5 -33q-227 0 -353 138.5t-126 392.5q0 120 28.5 217t76 160t111.5 105t131.5 59.5t139.5 17.5q164 0 319 -84v-266l-188 -15v99q0 31 -8.5 45.5t-34.5 23.5q-41 13 -80 13q-122 0 -185 -90t-63 -261 q0 -173 66 -269.5t199 -96.5zM375 1217l238 393l96 -45q30 -14 44.5 -33.5t13 -41t-14 -43.5t-35.5 -44l-262 -254z" />
<glyph unicode="&#x108;" horiz-adv-x="1232" d="M858 1167q-55 17 -133 17q-191 0 -289 -129t-98 -365q0 -253 92.5 -385.5t298.5 -128.5q88 0 150 19q27 9 35 22.5t8 44.5v164l208 -14v-355q-80 -42 -189.5 -63t-215.5 -21q-314 0 -478.5 176.5t-164.5 524.5q0 155 37 279t98.5 203.5t145.5 132.5t173.5 75t188.5 22 q206 0 385 -83v-349l-209 -14v160q0 31 -8 44.5t-35 22.5zM459 1450l-84 70l241 262q42 45 85.5 45t82.5 -41l246 -264l-84 -72l-246 176z" />
<glyph unicode="&#x109;" horiz-adv-x="964" d="M580 160q114 0 235 88l88 -158q-65 -53 -156.5 -86t-199.5 -33q-227 0 -353 138.5t-126 392.5q0 120 28.5 217t76 160t111.5 105t131.5 59.5t139.5 17.5q164 0 319 -84v-266l-188 -15v99q0 31 -8.5 45.5t-34.5 23.5q-41 13 -80 13q-122 0 -185 -90t-63 -261 q0 -173 66 -269.5t199 -96.5zM295 1153l-84 66l236 309q44 56 92.5 53.5t89.5 -57.5l232 -303l-84 -70l-242 213z" />
<glyph unicode="&#x10a;" horiz-adv-x="1232" d="M858 1167q-55 17 -133 17q-191 0 -289 -129t-98 -365q0 -253 92.5 -385.5t298.5 -128.5q88 0 150 19q27 9 35 22.5t8 44.5v164l208 -14v-355q-80 -42 -189.5 -63t-215.5 -21q-314 0 -478.5 176.5t-164.5 524.5q0 155 37 279t98.5 203.5t145.5 132.5t173.5 75t188.5 22 q206 0 385 -83v-349l-209 -14v160q0 31 -8 44.5t-35 22.5zM565 1624q0 58 40 97.5t102 39.5t101.5 -39.5t39.5 -97.5q0 -59 -40 -97t-101 -38q-64 0 -103 38t-39 97z" />
<glyph unicode="&#x10b;" horiz-adv-x="964" d="M580 160q114 0 235 88l88 -158q-65 -53 -156.5 -86t-199.5 -33q-227 0 -353 138.5t-126 392.5q0 120 28.5 217t76 160t111.5 105t131.5 59.5t139.5 17.5q164 0 319 -84v-266l-188 -15v99q0 31 -8.5 45.5t-34.5 23.5q-41 13 -80 13q-122 0 -185 -90t-63 -261 q0 -173 66 -269.5t199 -96.5zM404 1325q0 58 39.5 97.5t101.5 39.5t101.5 -39.5t39.5 -97.5q0 -59 -40 -97t-101 -38q-64 0 -102.5 38t-38.5 97z" />
<glyph unicode="&#x10c;" horiz-adv-x="1232" d="M858 1167q-55 17 -133 17q-191 0 -289 -129t-98 -365q0 -253 92.5 -385.5t298.5 -128.5q88 0 150 19q27 9 35 22.5t8 44.5v164l208 -14v-355q-80 -42 -189.5 -63t-215.5 -21q-314 0 -478.5 176.5t-164.5 524.5q0 155 37 279t98.5 203.5t145.5 132.5t173.5 75t188.5 22 q206 0 385 -83v-349l-209 -14v160q0 31 -8 44.5t-35 22.5zM938 1829l84 -70l-242 -262q-42 -45 -85.5 -45t-82.5 41l-245 264l84 72l245 -176z" />
<glyph unicode="&#x10d;" horiz-adv-x="964" d="M580 160q114 0 235 88l88 -158q-65 -53 -156.5 -86t-199.5 -33q-227 0 -353 138.5t-126 392.5q0 120 28.5 217t76 160t111.5 105t131.5 59.5t139.5 17.5q164 0 319 -84v-266l-188 -15v99q0 31 -8.5 45.5t-34.5 23.5q-41 13 -80 13q-122 0 -185 -90t-63 -261 q0 -173 66 -269.5t199 -96.5zM784 1579l84 -66l-235 -299q-44 -56 -92.5 -53t-89.5 58l-232 292l84 70l242 -213z" />
<glyph unicode="&#x10e;" horiz-adv-x="1361" d="M70 0v166l67 6q29 3 44.5 15.5t15.5 41.5v953l-117 6v174h561q301 0 470 -160t169 -473q0 -156 -34 -281.5t-92 -208t-139 -137t-171.5 -78.5t-192.5 -24h-581zM446 1163v-966h209q175 0 274 126.5t99 368.5q0 134 -30.5 228.5t-87 146t-125 74t-156.5 22.5h-183z M856 1829l84 -70l-242 -262q-42 -45 -85.5 -45t-82.5 41l-245 264l84 72l245 -176z" />
<glyph unicode="&#x10f;" horiz-adv-x="1331" d="M582 1061q84 0 168 -25v207q0 25 -13.5 36t-40.5 13l-88 6v162h381v-1245q1 -26 13 -36.5t38 -10.5l72 -4v-164h-332v121l-6 2q-46 -75 -118.5 -112.5t-159.5 -37.5q-93 0 -165.5 28t-118.5 74.5t-76 112.5t-42 136t-12 151q0 267 132 426.5t368 159.5zM750 319v531 q-76 33 -156 33q-70 0 -122 -31.5t-81.5 -86.5t-43 -121.5t-13.5 -145.5q0 -344 221 -344q85 0 140 48t55 117zM1128 1028v432l103 10q66 6 87 -32.5t3 -102.5l-94 -325z" />
<glyph unicode="&#x110;" horiz-adv-x="1390" d="M98 0v166l68 6q29 3 44 15.5t15 41.5v365h-151v184h151v404l-116 6v174h561q301 0 470 -160t169 -473q0 -156 -34 -281.5t-92 -208t-139 -137t-171.5 -78.5t-192.5 -24h-582zM475 1163v-385h346v-184h-346v-397h209q175 0 274 126.5t99 368.5q0 108 -20.5 190.5t-56 135 t-87.5 85.5t-109 46.5t-127 13.5h-182z" />
<glyph unicode="&#x111;" horiz-adv-x="1163" d="M1112 1098h-123v-883q1 -26 13 -36.5t38 -10.5l72 -4v-164h-332v121l-6 2q-46 -75 -118.5 -112.5t-159.5 -37.5q-93 0 -165.5 28t-118.5 74.5t-76 112.5t-42 136t-12 151q0 244 132.5 391.5t367.5 147.5q84 0 168 -25v109h-349v147h349v33q0 25 -13.5 36t-40.5 13l-88 6 v127h381v-215h123v-147zM750 319v484q-76 33 -156 33q-71 0 -123 -27.5t-81 -76.5t-42.5 -107t-13.5 -127q0 -344 221 -344q85 0 140 48t55 117z" />
<glyph unicode="&#x112;" horiz-adv-x="1124" d="M1042 0h-972v166l67 6q29 3 44.5 15.5t15.5 41.5v953l-117 6v174h938v-340l-209 -14v82q0 34 -10.5 48.5t-48.5 14.5h-304v-350h474v-209h-474v-383h330q37 0 47.5 15t10.5 50v103l208 -14v-365zM262 1503v178h588v-178h-588z" />
<glyph unicode="&#x113;" horiz-adv-x="991" d="M582 1061q153 0 243 -75t90 -210q0 -65 -20 -119t-53 -91.5t-80.5 -66.5t-98 -46t-110.5 -28t-112 -15t-109 -4q7 -108 68 -175t184 -67q132 0 258 90l78 -166q-41 -36 -138.5 -75.5t-222.5 -39.5q-128 0 -222 37.5t-150.5 108t-83.5 163.5t-27 210q0 115 32.5 217 t94 181t159.5 125t220 46zM690 772q0 56 -33 85.5t-90 29.5q-78 0 -133.5 -46.5t-81 -114t-28.5 -148.5q65 1 122.5 9.5t116 28.5t93 60t34.5 96zM250 1249v172h588v-172h-588z" />
<glyph unicode="&#x114;" horiz-adv-x="1124" d="M1042 0h-972v166l67 6q29 3 44.5 15.5t15.5 41.5v953l-117 6v174h938v-340l-209 -14v82q0 34 -10.5 48.5t-48.5 14.5h-304v-350h474v-209h-474v-383h330q37 0 47.5 15t10.5 50v103l208 -14v-365zM770 1790l135 -55q-85 -260 -346 -260q-74 0 -133 21t-98 58.5t-63.5 81.5 t-39.5 97l137 57q32 -80 81 -120t124 -40t122 37.5t81 122.5z" />
<glyph unicode="&#x115;" horiz-adv-x="991" d="M582 1061q153 0 243 -75t90 -210q0 -65 -20 -119t-53 -91.5t-80.5 -66.5t-98 -46t-110.5 -28t-112 -15t-109 -4q7 -108 68 -175t184 -67q132 0 258 90l78 -166q-41 -36 -138.5 -75.5t-222.5 -39.5q-128 0 -222 37.5t-150.5 108t-83.5 163.5t-27 210q0 115 32.5 217 t94 181t159.5 125t220 46zM690 772q0 56 -33 85.5t-90 29.5q-78 0 -133.5 -46.5t-81 -114t-28.5 -148.5q65 1 122.5 9.5t116 28.5t93 60t34.5 96zM731 1477l133 -31q-32 -138 -116 -216.5t-216 -78.5q-144 0 -225.5 84.5t-100.5 210.5l140 33q32 -93 77.5 -132.5 t114.5 -39.5q64 0 110.5 37.5t82.5 132.5z" />
<glyph unicode="&#x116;" horiz-adv-x="1124" d="M1042 0h-972v166l67 6q29 3 44.5 15.5t15.5 41.5v953l-117 6v174h938v-340l-209 -14v82q0 34 -10.5 48.5t-48.5 14.5h-304v-350h474v-209h-474v-383h330q37 0 47.5 15t10.5 50v103l208 -14v-365zM426 1624q0 58 39.5 97.5t101.5 39.5t102 -39.5t40 -97.5t-40 -96.5 t-102 -38.5q-64 0 -102.5 38t-38.5 97z" />
<glyph unicode="&#x117;" horiz-adv-x="991" d="M582 1061q153 0 243 -75t90 -210q0 -65 -20 -119t-53 -91.5t-80.5 -66.5t-98 -46t-110.5 -28t-112 -15t-109 -4q7 -108 68 -175t184 -67q132 0 258 90l78 -166q-41 -36 -138.5 -75.5t-222.5 -39.5q-128 0 -222 37.5t-150.5 108t-83.5 163.5t-27 210q0 115 32.5 217 t94 181t159.5 125t220 46zM690 772q0 56 -33 85.5t-90 29.5q-78 0 -133.5 -46.5t-81 -114t-28.5 -148.5q65 1 122.5 9.5t116 28.5t93 60t34.5 96zM406 1325q0 58 39.5 97.5t101.5 39.5t101.5 -39.5t39.5 -97.5q0 -59 -40 -97t-101 -38q-64 0 -102.5 38t-38.5 97z" />
<glyph unicode="&#x118;" horiz-adv-x="1124" d="M1042 0q-231 -80 -231 -199q0 -36 18.5 -56.5t65.5 -20.5q44 0 96 22l45 -135q-100 -49 -202 -49q-123 0 -175.5 56.5t-52.5 139.5q0 142 180 242h-716v166l67 6q29 3 44.5 15.5t15.5 41.5v953l-117 6v174h938v-340l-209 -14v82q0 34 -10.5 48.5t-48.5 14.5h-304v-350 h474v-209h-474v-383h330q37 0 47.5 15t10.5 50v103l208 -14v-365z" />
<glyph unicode="&#x119;" horiz-adv-x="991" d="M813 23q-110 -59 -164.5 -109.5t-54.5 -112.5q0 -36 18.5 -56.5t65.5 -20.5q44 0 96 22l45 -135q-100 -49 -203 -49q-123 0 -175 56.5t-52 139.5q0 128 137 215q-119 5 -206.5 45t-140.5 109.5t-78 160t-25 204.5q0 115 32.5 217t94 181t159.5 125t220 46q153 0 243 -75 t90 -210q0 -65 -20 -119t-53 -91.5t-80.5 -66.5t-98 -46t-110.5 -28t-112 -15t-109 -4q7 -108 68 -175t184 -67q132 0 258 90l78 -166q-24 -21 -107 -65zM690 772q0 56 -33 85.5t-90 29.5q-78 0 -133.5 -46.5t-81 -114t-28.5 -148.5q65 1 122.5 9.5t116 28.5t93 60t34.5 96z " />
<glyph unicode="&#x11a;" horiz-adv-x="1124" d="M1042 0h-972v166l67 6q29 3 44.5 15.5t15.5 41.5v953l-117 6v174h938v-340l-209 -14v82q0 34 -10.5 48.5t-48.5 14.5h-304v-350h474v-209h-474v-383h330q37 0 47.5 15t10.5 50v103l208 -14v-365zM823 1829l84 -70l-241 -262q-42 -45 -85.5 -45t-82.5 41l-246 264l84 72 l246 -176z" />
<glyph unicode="&#x11b;" horiz-adv-x="991" d="M582 1061q153 0 243 -75t90 -210q0 -65 -20 -119t-53 -91.5t-80.5 -66.5t-98 -46t-110.5 -28t-112 -15t-109 -4q7 -108 68 -175t184 -67q132 0 258 90l78 -166q-41 -36 -138.5 -75.5t-222.5 -39.5q-128 0 -222 37.5t-150.5 108t-83.5 163.5t-27 210q0 115 32.5 217 t94 181t159.5 125t220 46zM690 772q0 56 -33 85.5t-90 29.5q-78 0 -133.5 -46.5t-81 -114t-28.5 -148.5q65 1 122.5 9.5t116 28.5t93 60t34.5 96zM780 1579l84 -66l-235 -299q-44 -56 -92.5 -53t-89.5 58l-232 292l84 70l242 -213z" />
<glyph unicode="&#x11c;" horiz-adv-x="1312" d="M1155 477v-371q-88 -60 -210.5 -95.5t-260.5 -35.5q-285 0 -443.5 177t-158.5 526q0 153 40 276.5t104.5 202.5t151.5 132t175.5 75t181.5 22q223 0 402 -83v-349l-209 -14v160q0 31 -8 44.5t-35 22.5q-55 17 -152 17q-200 0 -297.5 -127.5t-97.5 -362.5q0 -516 356 -516 q60 0 123 14.5t94 34.5v305h-2l-157 7v174h510v-164l-48 -4q-33 -3 -46 -17.5t-13 -50.5zM469 1450l-84 70l242 262q42 45 85.5 45t82.5 -41l245 -264l-84 -72l-245 176z" />
<glyph unicode="&#x11d;" horiz-adv-x="1114" d="M506 -438q-103 0 -213 18t-172 49v285l194 16v-98q0 -30 10 -47t37 -27q56 -20 146 -20q68 0 116 22t73.5 64.5t36.5 94t11 120.5v113q-98 -115 -272 -115q-87 0 -156.5 27.5t-114.5 73.5t-75 109t-42.5 129.5t-12.5 139.5q0 136 39.5 241t111 171t168 99.5t213.5 33.5 q80 0 187 -20t192 -56v-760q0 -174 -4 -223q-19 -227 -131.5 -333.5t-341.5 -106.5zM745 418v440q-73 25 -163 25q-125 0 -191.5 -91.5t-66.5 -250.5q0 -48 3.5 -87.5t17 -86t35.5 -77.5t62 -52t95 -21q89 0 148.5 55t59.5 146zM327 1151l-84 66l236 309q44 56 92.5 53.5 t89.5 -57.5l232 -303l-84 -70l-242 213z" />
<glyph unicode="&#x11e;" horiz-adv-x="1312" d="M1155 477v-371q-88 -60 -210.5 -95.5t-260.5 -35.5q-285 0 -443.5 177t-158.5 526q0 153 40 276.5t104.5 202.5t151.5 132t175.5 75t181.5 22q223 0 402 -83v-349l-209 -14v160q0 31 -8 44.5t-35 22.5q-55 17 -152 17q-200 0 -297.5 -127.5t-97.5 -362.5q0 -516 356 -516 q60 0 123 14.5t94 34.5v305h-2l-157 7v174h510v-164l-48 -4q-33 -3 -46 -17.5t-13 -50.5zM901 1790l135 -55q-85 -260 -346 -260q-74 0 -133 21t-98 58.5t-63.5 81.5t-39.5 97l138 57q32 -80 80.5 -120t123.5 -40t122 37.5t81 122.5z" />
<glyph unicode="&#x11f;" horiz-adv-x="1114" d="M506 -438q-103 0 -213 18t-172 49v285l194 16v-98q0 -30 10 -47t37 -27q56 -20 146 -20q68 0 116 22t73.5 64.5t36.5 94t11 120.5v113q-98 -115 -272 -115q-87 0 -156.5 27.5t-114.5 73.5t-75 109t-42.5 129.5t-12.5 139.5q0 136 39.5 241t111 171t168 99.5t213.5 33.5 q80 0 187 -20t192 -56v-760q0 -174 -4 -223q-19 -227 -131.5 -333.5t-341.5 -106.5zM745 418v440q-73 25 -163 25q-125 0 -191.5 -91.5t-66.5 -250.5q0 -48 3.5 -87.5t17 -86t35.5 -77.5t62 -52t95 -21q89 0 148.5 55t59.5 146zM770 1477l133 -31q-32 -138 -116 -216.5 t-216 -78.5q-144 0 -225.5 84.5t-100.5 210.5l140 33q32 -93 77.5 -132.5t114.5 -39.5q64 0 110.5 37.5t82.5 132.5z" />
<glyph unicode="&#x120;" horiz-adv-x="1312" d="M1155 477v-371q-88 -60 -210.5 -95.5t-260.5 -35.5q-285 0 -443.5 177t-158.5 526q0 153 40 276.5t104.5 202.5t151.5 132t175.5 75t181.5 22q223 0 402 -83v-349l-209 -14v160q0 31 -8 44.5t-35 22.5q-55 17 -152 17q-200 0 -297.5 -127.5t-97.5 -362.5q0 -516 356 -516 q60 0 123 14.5t94 34.5v305h-2l-157 7v174h510v-164l-48 -4q-33 -3 -46 -17.5t-13 -50.5zM582 1624q0 58 39.5 97.5t101.5 39.5t101.5 -39.5t39.5 -97.5q0 -59 -40 -97t-101 -38q-64 0 -102.5 38t-38.5 97z" />
<glyph unicode="&#x121;" horiz-adv-x="1114" d="M506 -438q-103 0 -213 18t-172 49v285l194 16v-98q0 -30 10 -47t37 -27q56 -20 146 -20q68 0 116 22t73.5 64.5t36.5 94t11 120.5v113q-98 -115 -272 -115q-87 0 -156.5 27.5t-114.5 73.5t-75 109t-42.5 129.5t-12.5 139.5q0 136 39.5 241t111 171t168 99.5t213.5 33.5 q80 0 187 -20t192 -56v-760q0 -174 -4 -223q-19 -227 -131.5 -333.5t-341.5 -106.5zM745 418v440q-73 25 -163 25q-125 0 -191.5 -91.5t-66.5 -250.5q0 -48 3.5 -87.5t17 -86t35.5 -77.5t62 -52t95 -21q89 0 148.5 55t59.5 146zM432 1325q0 58 39.5 97.5t101.5 39.5 t101.5 -39.5t39.5 -97.5q0 -59 -40 -97t-101 -38q-64 0 -102.5 38t-38.5 97z" />
<glyph unicode="&#x122;" horiz-adv-x="1312" d="M1155 477v-371q-88 -60 -210.5 -95.5t-260.5 -35.5q-285 0 -443.5 177t-158.5 526q0 153 40 276.5t104.5 202.5t151.5 132t175.5 75t181.5 22q223 0 402 -83v-349l-209 -14v160q0 31 -8 44.5t-35 22.5q-55 17 -152 17q-200 0 -297.5 -127.5t-97.5 -362.5q0 -516 356 -516 q60 0 123 14.5t94 34.5v305h-2l-157 7v174h510v-164l-48 -4q-33 -3 -46 -17.5t-13 -50.5zM639 -125l-121 -405l94 -45l176 276q23 36 28 66.5t-13.5 54.5t-63.5 33z" />
<glyph unicode="&#x123;" horiz-adv-x="1114" d="M506 -438q-103 0 -213 18t-172 49v285l194 16v-98q0 -30 10 -47t37 -27q56 -20 146 -20q68 0 116 22t73.5 64.5t36.5 94t11 120.5v113q-98 -115 -272 -115q-87 0 -156.5 27.5t-114.5 73.5t-75 109t-42.5 129.5t-12.5 139.5q0 136 39.5 241t111 171t168 99.5t213.5 33.5 q80 0 187 -20t192 -56v-760q0 -174 -4 -223q-19 -227 -131.5 -333.5t-341.5 -106.5zM745 418v440q-73 25 -163 25q-125 0 -191.5 -91.5t-66.5 -250.5q0 -48 3.5 -87.5t17 -86t35.5 -77.5t62 -52t95 -21q89 0 148.5 55t59.5 146zM762 1581l-121 -405l-100 20q-45 9 -63.5 33 t-13.5 54.5t28 66.5l176 276z" />
<glyph unicode="&#x124;" horiz-adv-x="1458" d="M1022 240v354h-580v-414l119 -6v-174h-495v166l67 6q29 3 44.5 15.5t15.5 41.5v953l-117 6v174h495v-166l-67 -6q-32 -3 -47 -17.5t-15 -50.5v-317h580v377l-117 6v174h496v-166l-68 -6q-29 -3 -44 -17.5t-15 -48.5v-944l117 -6v-174h-496v166l68 6q31 3 45 17.5t14 50.5 zM483 1450l-84 70l242 262q42 45 85.5 45t82.5 -41l246 -264l-84 -72l-246 176z" />
<glyph unicode="&#x125;" horiz-adv-x="1228" d="M193 229v998q0 33 -11 45t-41 14l-71 4v170h364v-551q48 69 125 110.5t174 41.5q157 0 241.5 -89t84.5 -267v-535l117 -6v-164h-488v156l68 6q31 3 45 17t14 50v422q0 106 -34.5 163.5t-125.5 57.5q-102 0 -160.5 -60.5t-58.5 -145.5v-496l117 -6v-164h-487v156l67 6 q32 3 46 17t14 50zM14 1507l-84 70l242 262q42 45 85.5 45t82.5 -41l246 -264l-84 -72l-246 176z" />
<glyph unicode="&#x126;" horiz-adv-x="1490" d="M1034 240v354h-579v-414l118 -6v-174h-495v166l67 6q29 3 44.5 15.5t15.5 41.5v697h-127v157h127v99l-117 6v174h496v-166l-68 -6q-32 -3 -46.5 -17.5t-14.5 -50.5v-39h579v99l-116 6v174h495v-166l-67 -6q-29 -3 -44.5 -17.5t-15.5 -48.5v-41h137v-157h-137v-746l117 -6 v-174h-496v166l68 6q31 3 45 17.5t14 50.5zM455 805h579v121h-579v-121z" />
<glyph unicode="&#x127;" horiz-adv-x="1228" d="M770 1081h-336v-223q48 69 125 110.5t174 41.5q157 0 241.5 -89.5t84.5 -267.5v-483l117 -6v-164h-488v156l68 6q31 3 45 17t14 50v371q0 106 -34.5 163.5t-125.5 57.5q-102 0 -160.5 -61t-58.5 -146v-444l117 -6v-164h-487v156l67 6q32 3 46 17t14 50v852h-134v148h134 v8q0 33 -11 45t-41 14l-71 4v160h364v-231h336v-148z" />
<glyph unicode="&#x128;" horiz-adv-x="628" d="M193 240v942l-117 6v174h495v-166l-67 -6q-29 -3 -44.5 -17.5t-15.5 -48.5v-944l117 -6v-174h-495v166l67 6q31 3 45.5 17.5t14.5 50.5zM88 1491l-98 72q37 81 91.5 121t117.5 40q49 0 143 -28.5t131 -28.5q50 0 90 66l111 -60q-35 -92 -86 -135t-125 -43 q-44 0 -134 27.5t-122 27.5q-41 0 -64 -11t-55 -48z" />
<glyph unicode="&#x129;" horiz-adv-x="606" d="M438 1030v-860l117 -6v-164h-487v156l67 6q31 3 45.5 17t14.5 48v570q0 34 -11.5 46.5t-40.5 12.5l-71 4v170h366zM32 1221l-98 71q37 82 91.5 122t117.5 40q49 0 143 -28.5t131 -28.5q51 0 91 65l110 -59q-35 -92 -86 -135t-125 -43q-44 0 -134 27.5t-122 27.5 q-41 0 -64 -11t-55 -48z" />
<glyph unicode="&#x12a;" horiz-adv-x="628" d="M193 240v942l-117 6v174h495v-166l-67 -6q-29 -3 -44.5 -17.5t-15.5 -48.5v-944l117 -6v-174h-495v166l67 6q31 3 45.5 17.5t14.5 50.5zM25 1503v178h587v-178h-587z" />
<glyph unicode="&#x12b;" horiz-adv-x="606" d="M438 1030v-860l117 -6v-164h-487v156l67 6q31 3 45.5 17t14.5 48v570q0 34 -11.5 46.5t-40.5 12.5l-71 4v170h366zM-31 1249v172h588v-172h-588z" />
<glyph unicode="&#x12c;" horiz-adv-x="628" d="M193 240v942l-117 6v174h495v-166l-67 -6q-29 -3 -44.5 -17.5t-15.5 -48.5v-944l117 -6v-174h-495v166l67 6q31 3 45.5 17.5t14.5 50.5zM528 1790l136 -55q-85 -260 -347 -260q-261 0 -333 258l137 57q32 -80 81 -120t124 -40t121.5 37.5t80.5 122.5z" />
<glyph unicode="&#x12d;" horiz-adv-x="606" d="M438 1030v-860l117 -6v-164h-487v156l67 6q31 3 45.5 17t14.5 48v570q0 34 -11.5 46.5t-40.5 12.5l-71 4v170h366zM469 1477l133 -31q-32 -138 -116 -216.5t-216 -78.5q-144 0 -225.5 84.5t-100.5 210.5l140 33q32 -93 77.5 -132.5t114.5 -39.5q64 0 110.5 37.5 t82.5 132.5z" />
<glyph unicode="&#x12e;" horiz-adv-x="628" d="M193 240v942l-117 6v174h495v-166l-67 -6q-29 -3 -44.5 -17.5t-15.5 -48.5v-944l117 -6v-174q-217 -84 -217 -199q0 -36 18.5 -56.5t65.5 -20.5q44 0 96 22l45 -135q-100 -49 -202 -49q-123 0 -175.5 56.5t-52.5 139.5q0 43 14 78.5t43 63.5t55 46t66 40v14h-251v166 l67 6q31 3 45.5 17.5t14.5 50.5z" />
<glyph unicode="&#x12f;" horiz-adv-x="606" d="M438 1030v-860l117 -6v-164q-240 -78 -240 -199q0 -36 18.5 -56.5t65.5 -20.5q45 0 97 22l45 -135q-100 -49 -203 -49q-123 0 -175 56.5t-52 139.5t49 134t133 90v18h-225v156l67 6q31 3 45.5 17t14.5 48v570q0 34 -11.5 46.5t-40.5 12.5l-71 4v170h366zM137 1315 q0 66 43.5 109.5t114.5 43.5q67 0 111.5 -44t44.5 -109t-44.5 -107.5t-113.5 -42.5q-70 0 -113 42.5t-43 107.5z" />
<glyph unicode="&#x130;" horiz-adv-x="628" d="M193 240v942l-117 6v174h495v-166l-67 -6q-29 -3 -44.5 -17.5t-15.5 -48.5v-944l117 -6v-174h-495v166l67 6q31 3 45.5 17.5t14.5 50.5zM182 1624q0 58 40 97.5t102 39.5t101.5 -39.5t39.5 -97.5q0 -59 -40 -97t-101 -38q-64 0 -103 38t-39 97z" />
<glyph unicode="&#x131;" horiz-adv-x="606" d="M438 1030v-860l117 -6v-164h-487v156l67 6q31 3 45.5 17t14.5 48v570q0 34 -11.5 46.5t-40.5 12.5l-71 4v170h366z" />
<glyph unicode="&#x132;" horiz-adv-x="1599" d="M193 240v942l-117 6v174h495v-166l-67 -6q-29 -3 -44.5 -17.5t-15.5 -48.5v-944l117 -6v-174h-495v166l67 6q31 3 45.5 17.5t14.5 50.5zM1047 -27q-209 0 -361 86v359l209 14v-162q0 -31 8 -45t35 -24q47 -17 106 -17q82 0 115 44t33 143v809l-160 8v174h537v-166l-68 -6 q-31 -3 -45 -18t-14 -46v-637q0 -145 -8 -215q-15 -144 -111.5 -222.5t-275.5 -78.5z" />
<glyph unicode="&#x133;" horiz-adv-x="1185" d="M438 1030v-860l117 -6v-164h-487v156l67 6q31 3 45.5 17t14.5 48v570q0 34 -11.5 46.5t-40.5 12.5l-71 4v170h366zM137 1315q0 66 43.5 109.5t114.5 43.5q67 0 111.5 -44t44.5 -109t-44.5 -107.5t-113.5 -42.5q-70 0 -113 42.5t-43 107.5zM1032 1030v-1079q0 -67 -6 -117 t-26 -104t-54 -88.5t-95.5 -57t-145.5 -22.5q-65 0 -137.5 19t-125.5 52l74 170q78 -43 152 -43q61 0 90.5 41.5t29.5 139.5v856q0 33 -10.5 45t-40.5 14l-71 4v170h366zM731 1315q0 66 43.5 109.5t114.5 43.5q67 0 111 -44t44 -109t-44 -107.5t-113 -42.5q-70 0 -113 42.5 t-43 107.5z" />
<glyph unicode="&#x134;" horiz-adv-x="970" d="M418 -27q-209 0 -361 86v359l209 14v-162q0 -31 8 -45t35 -24q47 -17 107 -17q81 0 114 44t33 143v809l-160 8v174h537v-166l-68 -6q-31 -3 -45 -18t-14 -46v-637q0 -145 -8 -215q-15 -144 -111.5 -222.5t-275.5 -78.5zM426 1452l-84 70l242 262q42 45 85.5 45t82.5 -41 l245 -264l-84 -72l-245 176z" />
<glyph unicode="&#x135;" horiz-adv-x="579" d="M426 1030v-1079q0 -67 -6 -117t-26 -104t-54.5 -88.5t-96 -57t-145.5 -22.5q-65 0 -137 19t-125 52l74 170q78 -43 151 -43q61 0 91 41.5t30 139.5v856q0 33 -10.5 45t-40.5 14l-72 4v170h367zM14 1151l-84 66l236 309q44 56 92.5 53.5t89.5 -57.5l232 -303l-84 -70 l-242 213z" />
<glyph unicode="&#x136;" horiz-adv-x="1273" d="M193 240v942l-117 6v174h491v-166l-67 -6q-29 -3 -44.5 -17.5t-15.5 -48.5v-450l418 508l-115 6v174h480v-166l-68 -6q-23 -3 -41 -16t-41 -41l-291 -357l363 -596l108 -6v-174h-524v166l64 6q62 6 30 66l-202 350l-181 -217v-191l117 -6v-174h-491v166l67 6 q31 3 45.5 17.5t14.5 50.5zM571 -125l-120 -405l94 -45l176 276q23 36 28 66.5t-13.5 54.5t-63.5 33z" />
<glyph unicode="&#x137;" horiz-adv-x="1138" d="M195 229v998q0 33 -11 45t-41 14l-71 4v170h364v-887q112 11 196.5 70t115.5 156q10 37 0.5 52t-33.5 15l-78 4v160h424v-166l-98 -4q-26 -208 -181 -330l201 -360l125 -6v-164h-299l-234 426q-74 -21 -139 -29v-227h2l117 -6v-164h-487v156l67 6q32 3 46 17t14 50z M510 -125l-121 -405l94 -45l176 276q23 36 28 66.5t-13.5 54.5t-63.5 33z" />
<glyph unicode="&#x138;" horiz-adv-x="1138" d="M195 229v568q0 33 -11 45t-41 14l-71 4v170h364v-457q112 11 196.5 70t115.5 156q10 37 0.5 52t-33.5 15l-78 4v160h424v-166l-98 -4q-26 -208 -181 -330l201 -360l125 -6v-164h-299l-234 426q-74 -21 -139 -29v-227h2l117 -6v-164h-487v156l67 6q32 3 46 17t14 50z" />
<glyph unicode="&#x139;" horiz-adv-x="1099" d="M1038 0h-972v166l67 6q29 3 44.5 15.5t15.5 41.5v953l-117 6v174h493v-166l-67 -6q-29 -3 -44.5 -17.5t-15.5 -48.5v-913h340q30 0 38.5 15.5t8.5 49.5v144l209 -14v-406zM119 1536l332 322l81 -68q47 -43 35.5 -85.5t-69.5 -74.5l-318 -178z" />
<glyph unicode="&#x13a;" horiz-adv-x="610" d="M434 1460v-1290l117 -6v-164h-488v156l68 6q30 3 44.5 16.5t14.5 48.5v1010q0 26 -13 36.5t-38 12.5l-71 4v170h366zM70 1599l331 322l82 -68q47 -43 35.5 -85t-69.5 -74l-318 -178z" />
<glyph unicode="&#x13b;" horiz-adv-x="1099" d="M1038 0h-972v166l67 6q29 3 44.5 15.5t15.5 41.5v953l-117 6v174h493v-166l-67 -6q-29 -3 -44.5 -17.5t-15.5 -48.5v-913h340q30 0 38.5 15.5t8.5 49.5v144l209 -14v-406zM526 -125l-120 -405l94 -45l176 276q23 36 28 66.5t-13.5 54.5t-63.5 33z" />
<glyph unicode="&#x13c;" horiz-adv-x="610" d="M434 1460v-1290l117 -6v-164h-488v156l68 6q30 3 44.5 16.5t14.5 48.5v1010q0 26 -13 36.5t-38 12.5l-71 4v170h366zM250 -125l-121 -405l94 -45l176 276q23 36 28 66.5t-13.5 54.5t-63.5 33z" />
<glyph unicode="&#x13d;" horiz-adv-x="1099" d="M1038 0h-972v166l67 6q29 3 44.5 15.5t15.5 41.5v953l-117 6v174h493v-166l-67 -6q-29 -3 -44.5 -17.5t-15.5 -48.5v-913h340q30 0 38.5 15.5t8.5 49.5v144l209 -14v-406zM741 915v433l103 10q66 6 87 -32.5t3 -102.5l-94 -326z" />
<glyph unicode="&#x13e;" horiz-adv-x="774" d="M434 1460v-1290l117 -6v-164h-488v156l68 6q30 3 44.5 16.5t14.5 48.5v1010q0 26 -13 36.5t-38 12.5l-71 4v170h366zM571 1028v432l103 10q66 6 87 -32.5t3 -102.5l-94 -325z" />
<glyph unicode="&#x13f;" horiz-adv-x="1099" d="M1038 0h-972v166l67 6q29 3 44.5 15.5t15.5 41.5v953l-117 6v174h493v-166l-67 -6q-29 -3 -44.5 -17.5t-15.5 -48.5v-913h340q30 0 38.5 15.5t8.5 49.5v144l209 -14v-406zM692 778q0 58 40 97.5t102 39.5t101.5 -39.5t39.5 -97.5q0 -59 -40 -97t-101 -38q-64 0 -103 38 t-39 97z" />
<glyph unicode="&#x140;" horiz-adv-x="776" d="M434 1460v-1290l117 -6v-164h-488v156l68 6q30 3 44.5 16.5t14.5 48.5v1010q0 26 -13 36.5t-38 12.5l-71 4v170h366zM555 778q0 58 39.5 97.5t101.5 39.5t102 -39.5t40 -97.5t-40 -96.5t-102 -38.5q-64 0 -102.5 38t-38.5 97z" />
<glyph unicode="&#x141;" horiz-adv-x="1099" d="M1038 0h-972v166l67 6q29 3 44.5 15.5t15.5 41.5v271l-136 -74l-47 178l183 98v480l-117 6v174h493v-166l-67 -6q-29 -3 -44.5 -17.5t-15.5 -48.5v-317l379 199l49 -181l-428 -221v-393h340q30 0 38.5 15.5t8.5 49.5v144l209 -14v-406z" />
<glyph unicode="&#x142;" horiz-adv-x="671" d="M465 1460v-518l147 107l68 -179l-215 -149v-551l117 -6v-164h-488v156l68 6q30 3 44.5 16.5t14.5 48.5v367l-133 -96l-68 178l201 137v424q0 26 -13 36.5t-38 12.5l-72 4v170h367z" />
<glyph unicode="&#x143;" horiz-adv-x="1443" d="M66 0v166l73 6q27 2 40.5 14.5t13.5 42.5v953l-117 6v174h368l580 -940h4v760l-135 6v174h500v-166l-74 -6q-49 -3 -49 -64v-1126h-240l-592 954h-4v-774l133 -6v-174h-501zM551 1536l332 322l82 -68q47 -43 35 -85.5t-70 -74.5l-318 -178z" />
<glyph unicode="&#x144;" horiz-adv-x="1228" d="M55 866v164h346v-133q54 77 142.5 120.5t189.5 43.5q157 0 241.5 -89t84.5 -267v-535l117 -6v-164h-488v156l68 6q31 3 45 17t14 50v422q0 111 -35 166t-133 55q-97 0 -154 -61t-57 -145v-496l117 -6v-164h-487v156l67 6q32 3 46 17t14 50v568q0 33 -12 47t-40 16z M444 1217l238 393l96 -45q30 -14 44.5 -33.5t13 -41t-14 -43.5t-35.5 -44l-262 -254z" />
<glyph unicode="&#x145;" horiz-adv-x="1443" d="M66 0v166l73 6q27 2 40.5 14.5t13.5 42.5v953l-117 6v174h368l580 -940h4v760l-135 6v174h500v-166l-74 -6q-49 -3 -49 -64v-1126h-240l-592 954h-4v-774l133 -6v-174h-501zM641 -125l-121 -405l94 -45l177 276q23 36 28 66.5t-14 54.5t-64 33z" />
<glyph unicode="&#x146;" horiz-adv-x="1228" d="M55 866v164h346v-133q54 77 142.5 120.5t189.5 43.5q157 0 241.5 -89t84.5 -267v-535l117 -6v-164h-488v156l68 6q31 3 45 17t14 50v422q0 111 -35 166t-133 55q-97 0 -154 -61t-57 -145v-496l117 -6v-164h-487v156l67 6q32 3 46 17t14 50v568q0 33 -12 47t-40 16z M553 -125l-121 -405l94 -45l176 276q23 36 28 66.5t-13.5 54.5t-63.5 33z" />
<glyph unicode="&#x147;" horiz-adv-x="1443" d="M66 0v166l73 6q27 2 40.5 14.5t13.5 42.5v953l-117 6v174h368l580 -940h4v760l-135 6v174h500v-166l-74 -6q-49 -3 -49 -64v-1126h-240l-592 954h-4v-774l133 -6v-174h-501zM963 1829l84 -70l-242 -262q-42 -45 -85.5 -45t-82.5 41l-246 264l84 72l246 -176z" />
<glyph unicode="&#x148;" horiz-adv-x="1228" d="M55 866v164h346v-133q54 77 142.5 120.5t189.5 43.5q157 0 241.5 -89t84.5 -267v-535l117 -6v-164h-488v156l68 6q31 3 45 17t14 50v422q0 111 -35 166t-133 55q-97 0 -154 -61t-57 -145v-496l117 -6v-164h-487v156l67 6q32 3 46 17t14 50v568q0 33 -12 47t-40 16z M847 1579l84 -66l-235 -299q-44 -56 -92.5 -53t-89.5 58l-232 292l84 70l242 -213z" />
<glyph unicode="&#x149;" horiz-adv-x="1228" d="M55 866v164h346v-133q54 77 142.5 120.5t189.5 43.5q157 0 241.5 -89t84.5 -267v-535l117 -6v-164h-488v156l68 6q31 3 45 17t14 50v422q0 111 -35 166t-133 55q-97 0 -154 -61t-57 -145v-496l117 -6v-164h-487v156l67 6q32 3 46 17t14 50v568q0 33 -12 47t-40 16z M-150 985l70 430l98 -4q62 -3 77 -45t-13 -94l-141 -318z" />
<glyph unicode="&#x14a;" horiz-adv-x="1443" d="M66 0v166l73 6q27 2 40.5 14.5t13.5 42.5v953l-117 6v174h368l574 -928h4v748l-135 6v174h506v-166l-74 -6q-49 -3 -49 -64v-1171q0 -98 -14 -167t-49 -124t-99.5 -81.5t-161.5 -26.5q-189 0 -346 92l90 178q109 -66 199 -66q71 0 101 44t30 149v63l-578 930h-4v-766 l133 -6v-174h-505z" />
<glyph unicode="&#x14b;" horiz-adv-x="1212" d="M55 866v164h346v-133q54 77 142.5 120.5t189.5 43.5q157 0 241.5 -89t84.5 -267v-754q0 -67 -6 -117t-26 -104t-54.5 -88.5t-96 -57t-145.5 -22.5q-65 0 -137 19t-125 52l74 170q78 -43 151 -43q61 0 91 41.5t30 139.5v710q0 111 -35 166t-133 55q-97 0 -154 -61 t-57 -145v-496l117 -6v-164h-487v156l67 6q32 3 46 17t14 50v568q0 33 -12 47t-40 16z" />
<glyph unicode="&#x14c;" horiz-adv-x="1359" d="M1278 678q0 -343 -163 -524t-439 -181q-279 0 -436.5 180.5t-157.5 524.5q0 152 37 274.5t97 202t141.5 133t166 76t174.5 22.5q94 0 177.5 -23t158 -76.5t128 -134t85 -201.5t31.5 -273zM338 688q0 -77 8 -143t31.5 -135.5t61 -118.5t102 -80t149.5 -31q75 0 134 28 t96 74t61 111t33.5 133t9.5 146q0 48 -3.5 94t-14 97t-26.5 95t-42.5 85t-60.5 70t-83 46t-108 17q-94 0 -164 -41t-109 -112.5t-57 -154.5t-18 -180zM393 1503v178h588v-178h-588z" />
<glyph unicode="&#x14d;" horiz-adv-x="1081" d="M539 150q115 0 169 95.5t54 264.5q0 182 -50.5 276.5t-168.5 94.5q-116 0 -172 -90t-56 -246q0 -53 3 -96t11 -90.5t24 -83t40 -65t61 -45t85 -15.5zM68 516q0 123 31 220t79.5 156.5t114.5 99t130 54.5t132 15q38 0 73.5 -3.5t83 -17t87.5 -35t80.5 -61t69 -92.5 t46 -132.5t17.5 -176.5q0 -143 -38.5 -254.5t-106 -180.5t-155 -104t-190.5 -35q-212 0 -333 138t-121 409zM242 1249v172h588v-172h-588z" />
<glyph unicode="&#x14e;" horiz-adv-x="1359" d="M1278 678q0 -343 -163 -524t-439 -181q-279 0 -436.5 180.5t-157.5 524.5q0 152 37 274.5t97 202t141.5 133t166 76t174.5 22.5q94 0 177.5 -23t158 -76.5t128 -134t85 -201.5t31.5 -273zM338 688q0 -77 8 -143t31.5 -135.5t61 -118.5t102 -80t149.5 -31q75 0 134 28 t96 74t61 111t33.5 133t9.5 146q0 48 -3.5 94t-14 97t-26.5 95t-42.5 85t-60.5 70t-83 46t-108 17q-94 0 -164 -41t-109 -112.5t-57 -154.5t-18 -180zM891 1790l135 -55q-85 -260 -346 -260q-74 0 -133 21t-98 58.5t-63.5 81.5t-39.5 97l137 57q32 -80 81 -120t124 -40 t122 37.5t81 122.5z" />
<glyph unicode="&#x14f;" horiz-adv-x="1081" d="M539 150q115 0 169 95.5t54 264.5q0 182 -50.5 276.5t-168.5 94.5q-116 0 -172 -90t-56 -246q0 -53 3 -96t11 -90.5t24 -83t40 -65t61 -45t85 -15.5zM68 516q0 123 31 220t79.5 156.5t114.5 99t130 54.5t132 15q38 0 73.5 -3.5t83 -17t87.5 -35t80.5 -61t69 -92.5 t46 -132.5t17.5 -176.5q0 -143 -38.5 -254.5t-106 -180.5t-155 -104t-190.5 -35q-212 0 -333 138t-121 409zM729 1477l133 -31q-32 -138 -116 -216.5t-216 -78.5q-144 0 -225.5 84.5t-100.5 210.5l140 33q32 -93 77.5 -132.5t114.5 -39.5q64 0 110.5 37.5t82.5 132.5z" />
<glyph unicode="&#x150;" horiz-adv-x="1359" d="M1278 678q0 -343 -163 -524t-439 -181q-279 0 -436.5 180.5t-157.5 524.5q0 152 37 274.5t97 202t141.5 133t166 76t174.5 22.5q94 0 177.5 -23t158 -76.5t128 -134t85 -201.5t31.5 -273zM338 688q0 -77 8 -143t31.5 -135.5t61 -118.5t102 -80t149.5 -31q75 0 134 28 t96 74t61 111t33.5 133t9.5 146q0 48 -3.5 94t-14 97t-26.5 95t-42.5 85t-60.5 70t-83 46t-108 17q-94 0 -164 -41t-109 -112.5t-57 -154.5t-18 -180zM369 1524l338 313l81 -70q45 -44 32.5 -85.5t-70.5 -73.5l-322 -170zM795 1524l338 313l81 -70q45 -44 32.5 -85.5 t-70.5 -73.5l-322 -170z" />
<glyph unicode="&#x151;" horiz-adv-x="1081" d="M539 150q115 0 169 95.5t54 264.5q0 182 -50.5 276.5t-168.5 94.5q-116 0 -172 -90t-56 -246q0 -53 3 -96t11 -90.5t24 -83t40 -65t61 -45t85 -15.5zM68 516q0 123 31 220t79.5 156.5t114.5 99t130 54.5t132 15q38 0 73.5 -3.5t83 -17t87.5 -35t80.5 -61t69 -92.5 t46 -132.5t17.5 -176.5q0 -143 -38.5 -254.5t-106 -180.5t-155 -104t-190.5 -35q-212 0 -333 138t-121 409zM256 1223l238 393l88 -41q30 -14 44.5 -33.5t13 -41t-14 -43.5t-35.5 -44l-254 -258zM604 1217l238 393l88 -41q30 -14 44.5 -33.5t13 -41t-14 -43.5t-35.5 -44 l-254 -258z" />
<glyph unicode="&#x152;" horiz-adv-x="1814" d="M1708 1362v-340l-209 -14v82q0 34 -10.5 48.5t-48.5 14.5h-303v-350h473v-209h-473v-383h329q37 0 47.5 15t10.5 50v103l209 -14v-365h-824q-115 -27 -229 -27q-285 0 -441.5 180.5t-156.5 526.5q0 152 37 274t97.5 201.5t142.5 132.5t168.5 75.5t179.5 22.5 q94 0 202 -24h799zM338 690q0 -78 9.5 -146t35 -136.5t66 -117.5t107.5 -79.5t155 -30.5q103 0 176 31v926q-96 41 -180 41q-78 0 -141 -27.5t-105 -74t-70 -109.5t-40.5 -132t-12.5 -145z" />
<glyph unicode="&#x153;" horiz-adv-x="1652" d="M1243 1061q153 0 243.5 -75t90.5 -210q0 -76 -26 -136.5t-72.5 -100t-103 -67t-125 -41.5t-130 -20t-127.5 -5q6 -110 68.5 -177t185.5 -67q127 0 256 92l78 -166q-41 -36 -138 -75.5t-222 -39.5q-263 0 -365 174q-52 -90 -141 -133t-201 -43q-207 0 -326.5 136.5 t-119.5 406.5q0 123 30.5 220.5t78 157.5t112 99.5t127.5 54.5t129 15q245 0 336 -187q118 187 362 187zM539 150q113 0 168 96t55 264q0 180 -50.5 275.5t-168.5 95.5q-115 0 -171.5 -90.5t-56.5 -247.5q0 -63 4.5 -114.5t19 -105.5t38 -90t65 -59.5t97.5 -23.5zM1352 766 q0 56 -33.5 88.5t-89.5 32.5q-77 0 -133 -47.5t-82 -116t-29 -148.5q49 -1 105.5 7.5t118.5 27.5t102.5 60t40.5 96z" />
<glyph unicode="&#x154;" horiz-adv-x="1282" d="M66 0v166l67 6q29 3 44.5 15.5t15.5 41.5v953l-117 6v174h559q116 0 204 -20t153.5 -63.5t99.5 -117t34 -176.5q0 -73 -22 -135.5t-59 -105.5t-77.5 -72t-86.5 -47q41 -15 66.5 -43t49.5 -82l148 -322l117 -4v-174h-506v166l59 6q35 4 44 19.5t-5 46.5l-96 204 q-23 51 -50.5 73t-78.5 22h-187v-357l133 -6v-174h-509zM442 731h179q251 0 251 225q0 67 -18 109.5t-58 63t-85.5 27.5t-118.5 7h-150v-432zM418 1536l332 322l81 -68q47 -43 35.5 -85.5t-69.5 -74.5l-318 -178z" />
<glyph unicode="&#x155;" horiz-adv-x="946" d="M195 229v568q0 33 -11.5 46t-40.5 15l-86 6v166h346v-153q37 80 115 132t176 52q104 0 197 -45v-305l-191 -15v95q0 41 -20 51q-23 10 -55 10q-83 0 -135 -58.5t-52 -148.5v-475l178 -8v-162h-548v156l67 6q32 3 46 17t14 50zM354 1217l238 393l96 -45q30 -14 44.5 -33.5 t13 -41t-14 -43.5t-35.5 -44l-262 -254z" />
<glyph unicode="&#x156;" horiz-adv-x="1282" d="M66 0v166l67 6q29 3 44.5 15.5t15.5 41.5v953l-117 6v174h559q116 0 204 -20t153.5 -63.5t99.5 -117t34 -176.5q0 -73 -22 -135.5t-59 -105.5t-77.5 -72t-86.5 -47q41 -15 66.5 -43t49.5 -82l148 -322l117 -4v-174h-506v166l59 6q35 4 44 19.5t-5 46.5l-96 204 q-23 51 -50.5 73t-78.5 22h-187v-357l133 -6v-174h-509zM442 731h179q251 0 251 225q0 67 -18 109.5t-58 63t-85.5 27.5t-118.5 7h-150v-432zM580 -125l-121 -405l94 -45l176 276q23 36 28 66.5t-13.5 54.5t-63.5 33z" />
<glyph unicode="&#x157;" horiz-adv-x="946" d="M195 229v568q0 33 -11.5 46t-40.5 15l-86 6v166h346v-153q37 80 115 132t176 52q104 0 197 -45v-305l-191 -15v95q0 41 -20 51q-23 10 -55 10q-83 0 -135 -58.5t-52 -148.5v-475l178 -8v-162h-548v156l67 6q32 3 46 17t14 50zM283 -125l-121 -405l94 -45l176 276 q23 36 28 66.5t-13.5 54.5t-63.5 33z" />
<glyph unicode="&#x158;" horiz-adv-x="1282" d="M66 0v166l67 6q29 3 44.5 15.5t15.5 41.5v953l-117 6v174h559q116 0 204 -20t153.5 -63.5t99.5 -117t34 -176.5q0 -73 -22 -135.5t-59 -105.5t-77.5 -72t-86.5 -47q41 -15 66.5 -43t49.5 -82l148 -322l117 -4v-174h-506v166l59 6q35 4 44 19.5t-5 46.5l-96 204 q-23 51 -50.5 73t-78.5 22h-187v-357l133 -6v-174h-509zM442 731h179q251 0 251 225q0 67 -18 109.5t-58 63t-85.5 27.5t-118.5 7h-150v-432zM815 1829l84 -70l-242 -262q-42 -45 -85.5 -45t-82.5 41l-245 264l84 72l245 -176z" />
<glyph unicode="&#x159;" horiz-adv-x="946" d="M195 229v568q0 33 -11.5 46t-40.5 15l-86 6v166h346v-153q37 80 115 132t176 52q104 0 197 -45v-305l-191 -15v95q0 41 -20 51q-23 10 -55 10q-83 0 -135 -58.5t-52 -148.5v-475l178 -8v-162h-548v156l67 6q32 3 46 17t14 50zM704 1579l84 -66l-235 -299 q-44 -56 -92.5 -53t-89.5 58l-232 292l84 70l242 -213z" />
<glyph unicode="&#x15a;" horiz-adv-x="1069" d="M494 184q245 0 245 197q0 38 -14.5 67.5t-35 49t-58.5 37t-69 27.5t-83 24q-57 15 -100 30.5t-91 38.5t-81.5 53t-61.5 69t-42.5 91.5t-14.5 116.5q0 186 130 293.5t345 107.5q206 0 385 -83v-308l-209 -14v119q0 31 -8 44.5t-35 22.5q-55 17 -133 17q-97 0 -156 -43 t-59 -133q0 -23 4.5 -43t17 -37t23.5 -29.5t34.5 -25.5t38.5 -20.5t48 -19t50 -17t57 -17.5q66 -21 112.5 -40t101.5 -53t89 -74.5t57 -102.5t23 -138q0 -197 -138.5 -307.5t-357.5 -110.5q-233 0 -414 84v324l209 14v-125q0 -31 8 -44.5t35 -22.5q62 -19 148 -19zM377 1536 l332 322l82 -68q47 -43 35 -85.5t-70 -74.5l-318 -178z" />
<glyph unicode="&#x15b;" horiz-adv-x="923" d="M604 874q-53 19 -119 19q-69 0 -111 -31.5t-42 -91.5q0 -27 12 -49t27.5 -36t46 -27.5t50.5 -19.5t58 -17q44 -13 69.5 -20.5t66 -23.5t64.5 -31t53 -39.5t45 -52.5t27 -67.5t11 -85.5q0 -154 -112 -241t-283 -87q-104 0 -210 16.5t-167 47.5v285l184 14v-98 q0 -29 10 -44.5t38 -25.5q58 -21 135 -21q161 0 161 125q0 27 -9.5 48t-26 35t-40 24.5t-51.5 19t-60 16.5q-9 2 -13 3q-40 10 -66 18t-63 22t-61 29.5t-50.5 39.5t-42 52.5t-25.5 68.5t-10 87q0 78 31.5 140.5t86 102.5t126 61.5t152.5 21.5q172 0 340 -82v-246l-185 -14 v86q0 30 -9.5 44.5t-37.5 24.5zM328 1217l238 393l96 -45q30 -14 44.5 -33.5t13 -41t-14 -43.5t-35.5 -44l-262 -254z" />
<glyph unicode="&#x15c;" horiz-adv-x="1069" d="M494 184q245 0 245 197q0 38 -14.5 67.5t-35 49t-58.5 37t-69 27.5t-83 24q-57 15 -100 30.5t-91 38.5t-81.5 53t-61.5 69t-42.5 91.5t-14.5 116.5q0 186 130 293.5t345 107.5q206 0 385 -83v-308l-209 -14v119q0 31 -8 44.5t-35 22.5q-55 17 -133 17q-97 0 -156 -43 t-59 -133q0 -23 4.5 -43t17 -37t23.5 -29.5t34.5 -25.5t38.5 -20.5t48 -19t50 -17t57 -17.5q66 -21 112.5 -40t101.5 -53t89 -74.5t57 -102.5t23 -138q0 -197 -138.5 -307.5t-357.5 -110.5q-233 0 -414 84v324l209 14v-125q0 -31 8 -44.5t35 -22.5q62 -19 148 -19zM317 1450 l-84 70l242 262q42 45 85.5 45t82.5 -41l246 -264l-84 -72l-246 176z" />
<glyph unicode="&#x15d;" horiz-adv-x="923" d="M604 874q-53 19 -119 19q-69 0 -111 -31.5t-42 -91.5q0 -27 12 -49t27.5 -36t46 -27.5t50.5 -19.5t58 -17q44 -13 69.5 -20.5t66 -23.5t64.5 -31t53 -39.5t45 -52.5t27 -67.5t11 -85.5q0 -154 -112 -241t-283 -87q-104 0 -210 16.5t-167 47.5v285l184 14v-98 q0 -29 10 -44.5t38 -25.5q58 -21 135 -21q161 0 161 125q0 27 -9.5 48t-26 35t-40 24.5t-51.5 19t-60 16.5q-9 2 -13 3q-40 10 -66 18t-63 22t-61 29.5t-50.5 39.5t-42 52.5t-25.5 68.5t-10 87q0 78 31.5 140.5t86 102.5t126 61.5t152.5 21.5q172 0 340 -82v-246l-185 -14 v86q0 30 -9.5 44.5t-37.5 24.5zM243 1151l-84 66l236 309q44 56 92.5 53.5t89.5 -57.5l232 -303l-84 -70l-242 213z" />
<glyph unicode="&#x15e;" horiz-adv-x="1069" d="M494 184q245 0 245 197q0 38 -14.5 67.5t-35 49t-58.5 37t-69 27.5t-83 24q-57 15 -100 30.5t-91 38.5t-81.5 53t-61.5 69t-42.5 91.5t-14.5 116.5q0 186 130 293.5t345 107.5q206 0 385 -83v-308l-209 -14v119q0 31 -8 44.5t-35 22.5q-55 17 -133 17q-97 0 -156 -43 t-59 -133q0 -23 4.5 -43t17 -37t23.5 -29.5t34.5 -25.5t38.5 -20.5t48 -19t50 -17t57 -17.5q66 -21 112.5 -40t101.5 -53t89 -74.5t57 -102.5t23 -138q0 -179 -115.5 -287.5t-304.5 -126.5l-27 -106q86 -6 138.5 -49.5t52.5 -118.5q0 -54 -22.5 -94t-60.5 -62t-80 -32.5 t-87 -10.5q-98 0 -185 37l33 107q84 -27 137 -27q51 0 75 21t24 55q0 44 -45.5 61t-135.5 17l64 198q-207 6 -371 84v324l209 14v-125q0 -31 8 -44.5t35 -22.5q62 -19 148 -19z" />
<glyph unicode="&#x15f;" horiz-adv-x="923" d="M604 874q-53 19 -119 19q-69 0 -111 -31.5t-42 -91.5q0 -27 12 -49t27.5 -36t46 -27.5t50.5 -19.5t58 -17q44 -13 69.5 -20.5t66 -23.5t64.5 -31t53 -39.5t45 -52.5t27 -67.5t11 -85.5q0 -143 -96.5 -228t-249.5 -98l-27 -104q86 -6 138.5 -49.5t52.5 -118.5 q0 -54 -22.5 -94t-60.5 -62t-80 -32.5t-87 -10.5q-97 0 -184 37l33 107q84 -27 137 -27q51 0 74.5 21t23.5 55q0 44 -45.5 61t-134.5 17l63 200q-207 11 -307 62v285l184 14v-98q0 -29 10 -44.5t38 -25.5q58 -21 135 -21q161 0 161 125q0 27 -9.5 48t-26 35t-40 24.5 t-51.5 19t-60 16.5q-9 2 -13 3q-40 10 -66 18t-63 22t-61 29.5t-50.5 39.5t-42 52.5t-25.5 68.5t-10 87q0 78 31.5 140.5t86 102.5t126 61.5t152.5 21.5q172 0 340 -82v-246l-185 -14v86q0 30 -9.5 44.5t-37.5 24.5z" />
<glyph unicode="&#x160;" horiz-adv-x="1069" d="M494 184q245 0 245 197q0 38 -14.5 67.5t-35 49t-58.5 37t-69 27.5t-83 24q-57 15 -100 30.5t-91 38.5t-81.5 53t-61.5 69t-42.5 91.5t-14.5 116.5q0 186 130 293.5t345 107.5q206 0 385 -83v-308l-209 -14v119q0 31 -8 44.5t-35 22.5q-55 17 -133 17q-97 0 -156 -43 t-59 -133q0 -23 4.5 -43t17 -37t23.5 -29.5t34.5 -25.5t38.5 -20.5t48 -19t50 -17t57 -17.5q66 -21 112.5 -40t101.5 -53t89 -74.5t57 -102.5t23 -138q0 -197 -138.5 -307.5t-357.5 -110.5q-233 0 -414 84v324l209 14v-125q0 -31 8 -44.5t35 -22.5q62 -19 148 -19zM791 1829 l83 -70l-241 -262q-42 -45 -85.5 -45t-82.5 41l-246 264l84 72l246 -176z" />
<glyph unicode="&#x161;" horiz-adv-x="923" d="M604 874q-53 19 -119 19q-69 0 -111 -31.5t-42 -91.5q0 -27 12 -49t27.5 -36t46 -27.5t50.5 -19.5t58 -17q44 -13 69.5 -20.5t66 -23.5t64.5 -31t53 -39.5t45 -52.5t27 -67.5t11 -85.5q0 -154 -112 -241t-283 -87q-104 0 -210 16.5t-167 47.5v285l184 14v-98 q0 -29 10 -44.5t38 -25.5q58 -21 135 -21q161 0 161 125q0 27 -9.5 48t-26 35t-40 24.5t-51.5 19t-60 16.5q-9 2 -13 3q-40 10 -66 18t-63 22t-61 29.5t-50.5 39.5t-42 52.5t-25.5 68.5t-10 87q0 78 31.5 140.5t86 102.5t126 61.5t152.5 21.5q172 0 340 -82v-246l-185 -14 v86q0 30 -9.5 44.5t-37.5 24.5zM720 1579l84 -66l-235 -299q-44 -56 -92.5 -53t-89.5 58l-232 292l84 70l242 -213z" />
<glyph unicode="&#x162;" horiz-adv-x="1132" d="M446 229v916h-159q-29 0 -38 -16t-9 -48v-82l-209 15v348h1071v-348l-209 -15v82q0 34 -10.5 49t-48.5 15h-140v-965l162 -6v-174h-235l-33 -129q85 -6 137.5 -49.5t52.5 -118.5q0 -54 -22.5 -94t-60.5 -62t-80 -32.5t-87 -10.5q-97 0 -184 37l33 107q84 -27 137 -27 q51 0 74.5 21t23.5 55q0 44 -45.5 61t-134.5 17l72 225h-225v166l108 6q31 3 45 15.5t14 41.5z" />
<glyph unicode="&#x163;" horiz-adv-x="772" d="M295 1247h133v-217h272l-20 -172h-252v-539q0 -89 33 -125t100 -36q68 0 139 43l62 -158q-45 -32 -114 -51t-142 -21l-25 -100q86 -6 138.5 -49.5t52.5 -118.5q0 -54 -22.5 -94t-60.5 -62t-80 -32.5t-87 -10.5q-97 0 -184 37l32 107q84 -27 138 -27q51 0 74.5 21t23.5 55 q0 44 -45.5 61t-134.5 17l65 207q-34 7 -62 18.5t-48.5 24.5t-36 33.5t-25.5 36t-17 42t-10.5 42.5t-5.5 45.5t-2 43v43.5v547h-145l20 150q51 4 90 24.5t66.5 57.5t44 70.5t35.5 86.5z" />
<glyph unicode="&#x164;" horiz-adv-x="1132" d="M446 229v930h-159q-29 0 -38 -16t-9 -47v-97l-209 15v348h1071v-348l-209 -15v97q0 34 -10.5 48.5t-48.5 14.5h-140v-979l162 -6v-174h-577v166l108 6q31 3 45 15.5t14 41.5zM817 1829l84 -70l-242 -262q-84 -90 -167 -4l-246 264l84 72l245 -176z" />
<glyph unicode="&#x165;" horiz-adv-x="772" d="M295 1247h133v-217h272l-20 -172h-252v-539q0 -89 33 -125t100 -36q68 0 139 43l62 -158q-46 -32 -117 -52t-143 -20q-91 0 -154.5 23.5t-95 52.5t-48 83.5t-18.5 87t-2 92.5v1v547h-145l20 150q51 4 90 24.5t66.5 57.5t44 70.5t35.5 86.5zM557 1143v432l102 10 q66 6 87.5 -32.5t3.5 -102.5l-95 -326z" />
<glyph unicode="&#x166;" horiz-adv-x="1132" d="M446 229v328h-256v184h256v404h-159q-29 0 -38 -16t-9 -48v-82l-209 15v348h1071v-348l-209 -15v82q0 34 -10.5 49t-48.5 15h-140v-404h254v-184h-254v-377l162 -6v-174h-577v166l108 6q31 3 45 15.5t14 41.5z" />
<glyph unicode="&#x167;" horiz-adv-x="772" d="M295 1247h133v-217h272l-20 -172h-252v-196h246v-173h-246v-170q0 -89 33 -125t100 -36q68 0 139 43l62 -158q-46 -32 -117 -52t-143 -20q-91 0 -154.5 23.5t-95 52.5t-48 83.5t-18.5 87t-2 92.5v1v178h-143v173h143v196h-145l20 150q51 4 90 24.5t66.5 57.5t44 70.5 t35.5 86.5z" />
<glyph unicode="&#x168;" horiz-adv-x="1349" d="M412 1122v-680q0 -143 68 -201.5t200 -58.5q126 0 196 63.5t70 186.5v750l-119 6v174h486v-166l-68 -6q-59 -6 -59 -62v-731q0 -199 -139 -311.5t-375 -112.5q-256 0 -382 109.5t-126 347.5v752l-119 6v174h496v-166l-68 -6q-32 -3 -46.5 -17.5t-14.5 -50.5zM449 1491 l-99 72q37 81 91.5 121t117.5 40q49 0 143.5 -28.5t131.5 -28.5q50 0 90 66l110 -60q-35 -92 -86 -135t-125 -43q-44 0 -134 27.5t-122 27.5q-41 0 -63.5 -11t-54.5 -48z" />
<glyph unicode="&#x169;" horiz-adv-x="1210" d="M1153 162v-162h-332v133q-54 -76 -142 -118t-190 -42q-317 0 -317 355v473q0 31 -12 43t-39 14l-66 4v168h361v-649q0 -108 30.5 -163.5t120.5 -55.5q102 0 160.5 59.5t58.5 143.5v432q0 34 -11 46.5t-40 14.5l-65 4v168h360v-803q0 -33 10.5 -44.5t40.5 -14.5zM321 1221 l-98 71q37 82 91.5 122t117.5 40q49 0 143 -28.5t131 -28.5q51 0 91 65l110 -59q-35 -92 -86 -135t-125 -43q-44 0 -134 27.5t-122 27.5q-41 0 -64 -11t-55 -48z" />
<glyph unicode="&#x16a;" horiz-adv-x="1349" d="M412 1122v-680q0 -143 68 -201.5t200 -58.5q126 0 196 63.5t70 186.5v750l-119 6v174h486v-166l-68 -6q-59 -6 -59 -62v-731q0 -199 -139 -311.5t-375 -112.5q-256 0 -382 109.5t-126 347.5v752l-119 6v174h496v-166l-68 -6q-32 -3 -46.5 -17.5t-14.5 -50.5zM385 1503 v178h588v-178h-588z" />
<glyph unicode="&#x16b;" horiz-adv-x="1210" d="M1153 162v-162h-332v133q-54 -76 -142 -118t-190 -42q-317 0 -317 355v473q0 31 -12 43t-39 14l-66 4v168h361v-649q0 -108 30.5 -163.5t120.5 -55.5q102 0 160.5 59.5t58.5 143.5v432q0 34 -11 46.5t-40 14.5l-65 4v168h360v-803q0 -33 10.5 -44.5t40.5 -14.5zM252 1249 v172h588v-172h-588z" />
<glyph unicode="&#x16c;" horiz-adv-x="1349" d="M412 1122v-680q0 -143 68 -201.5t200 -58.5q126 0 196 63.5t70 186.5v750l-119 6v174h486v-166l-68 -6q-59 -6 -59 -62v-731q0 -199 -139 -311.5t-375 -112.5q-256 0 -382 109.5t-126 347.5v752l-119 6v174h496v-166l-68 -6q-32 -3 -46.5 -17.5t-14.5 -50.5zM889 1790 l135 -55q-85 -260 -346 -260q-74 0 -133 21t-98 58.5t-63.5 81.5t-39.5 97l137 57q32 -80 81 -120t124 -40t122 37.5t81 122.5z" />
<glyph unicode="&#x16d;" horiz-adv-x="1210" d="M1153 162v-162h-332v133q-54 -76 -142 -118t-190 -42q-317 0 -317 355v473q0 31 -12 43t-39 14l-66 4v168h361v-649q0 -108 30.5 -163.5t120.5 -55.5q102 0 160.5 59.5t58.5 143.5v432q0 34 -11 46.5t-40 14.5l-65 4v168h360v-803q0 -33 10.5 -44.5t40.5 -14.5zM756 1477 l133 -31q-32 -138 -116 -216.5t-216 -78.5q-144 0 -225.5 84.5t-100.5 210.5l140 33q32 -93 77.5 -132.5t114.5 -39.5q64 0 110.5 37.5t82.5 132.5z" />
<glyph unicode="&#x16e;" horiz-adv-x="1349" d="M412 1122v-680q0 -143 68 -201.5t200 -58.5q126 0 196 63.5t70 186.5v750l-119 6v174h486v-166l-68 -6q-59 -6 -59 -62v-731q0 -199 -139 -311.5t-375 -112.5q-256 0 -382 109.5t-126 347.5v752l-119 6v174h496v-166l-68 -6q-32 -3 -46.5 -17.5t-14.5 -50.5zM492 1624 q0 84 54 137.5t140 53.5q88 0 139.5 -52t51.5 -129q0 -89 -53.5 -144.5t-143.5 -55.5q-88 0 -138 53.5t-50 136.5zM612 1624q0 -38 19 -62t55 -24q35 0 54.5 24.5t19.5 61.5q0 84 -74 84t-74 -84z" />
<glyph unicode="&#x16f;" horiz-adv-x="1210" d="M1153 162v-162h-332v133q-54 -76 -142 -118t-190 -42q-317 0 -317 355v473q0 31 -12 43t-39 14l-66 4v168h361v-649q0 -108 30.5 -163.5t120.5 -55.5q102 0 160.5 59.5t58.5 143.5v432q0 34 -11 46.5t-40 14.5l-65 4v168h360v-803q0 -33 10.5 -44.5t40.5 -14.5zM372 1346 q0 83 54.5 136.5t140.5 53.5q88 0 139 -51.5t51 -128.5q0 -89 -53 -145t-143 -56q-88 0 -138.5 54.5t-50.5 136.5zM493 1346q0 -38 19 -62t55 -24q35 0 54.5 24.5t19.5 61.5q0 84 -74 84t-74 -84z" />
<glyph unicode="&#x170;" horiz-adv-x="1349" d="M412 1122v-680q0 -143 68 -201.5t200 -58.5q126 0 196 63.5t70 186.5v750l-119 6v174h486v-166l-68 -6q-59 -6 -59 -62v-731q0 -199 -139 -311.5t-375 -112.5q-256 0 -382 109.5t-126 347.5v752l-119 6v174h496v-166l-68 -6q-32 -3 -46.5 -17.5t-14.5 -50.5zM346 1524 l338 313l82 -70q44 -44 31.5 -85.5t-70.5 -73.5l-321 -170zM772 1524l338 313l82 -70q44 -44 31.5 -85.5t-70.5 -73.5l-322 -170z" />
<glyph unicode="&#x171;" horiz-adv-x="1210" d="M1153 162v-162h-332v133q-54 -76 -142 -118t-190 -42q-317 0 -317 355v473q0 31 -12 43t-39 14l-66 4v168h361v-649q0 -108 30.5 -163.5t120.5 -55.5q102 0 160.5 59.5t58.5 143.5v432q0 34 -11 46.5t-40 14.5l-65 4v168h360v-803q0 -33 10.5 -44.5t40.5 -14.5zM285 1223 l238 393l88 -41q30 -14 44.5 -33.5t13 -41t-14 -43.5t-35.5 -44l-254 -258zM633 1217l238 393l88 -41q30 -14 44.5 -33.5t13 -41t-14 -43.5t-35.5 -44l-254 -258z" />
<glyph unicode="&#x172;" horiz-adv-x="1349" d="M412 1122v-680q0 -143 68 -201.5t200 -58.5q126 0 196 63.5t70 186.5v750l-119 6v174h486v-166l-68 -6q-59 -6 -59 -62v-731q0 -119 -52.5 -209.5t-146.5 -142.5q-221 -121 -221 -244q0 -36 18.5 -56.5t65.5 -20.5q44 0 96 22l45 -135q-100 -49 -203 -49 q-123 0 -175 56.5t-52 139.5q0 128 137 215h-26q-256 0 -382 109.5t-126 347.5v752l-119 6v174h496v-166l-68 -6q-32 -3 -46.5 -17.5t-14.5 -50.5z" />
<glyph unicode="&#x173;" horiz-adv-x="1210" d="M1153 162v-162q-219 -83 -219 -199q0 -36 18.5 -56.5t65.5 -20.5q44 0 96 22l45 -135q-100 -49 -203 -49q-64 0 -110.5 17t-71 46t-35 60.5t-10.5 68.5q0 85 54.5 143.5t131.5 92.5v16h-94v127q-54 -76 -142 -118t-190 -42q-317 0 -317 355v473q0 31 -12 43t-39 14l-66 4 v168h361v-649q0 -108 30.5 -163.5t120.5 -55.5q102 0 160.5 59.5t58.5 143.5v432q0 34 -11 46.5t-40 14.5l-65 4v168h360v-803q0 -33 10.5 -44.5t40.5 -14.5z" />
<glyph unicode="&#x174;" horiz-adv-x="1812" d="M1802 1196l-67 -6q-31 -3 -45.5 -20t-22.5 -54l-258 -1116h-281l-215 911h-6l-209 -911h-288l-283 1182l-117 6v174h508v-166l-67 -6q-75 -7 -62 -72l178 -790h8l213 925h265l221 -929h4l174 856l-111 8v174h461v-166zM668 1450l-84 70l241 262q42 45 85.5 45t82.5 -41 l246 -264l-84 -72l-246 176z" />
<glyph unicode="&#x175;" horiz-adv-x="1628" d="M745 989h199l213 -762h4l139 633l-104 6v164h412v-158l-68 -4q-22 -2 -34 -11.5t-21 -37.5l-195 -819h-295l-168 610h-6l-174 -610h-301l-207 817q-9 29 -20.5 39.5t-38.5 11.5l-60 4v158h469v-164l-114 -6l141 -629h4zM602 1151l-84 66l236 309q44 56 92.5 53.5 t89.5 -57.5l232 -303l-84 -70l-242 213z" />
<glyph unicode="&#x176;" horiz-adv-x="1167" d="M455 229v291l-349 662l-96 6v174h500v-166l-61 -6q-33 -3 -43 -25.5t8 -54.5l174 -356h8l223 426l-102 8v174h440v-166l-61 -6q-23 -3 -38.5 -17.5t-31.5 -44.5l-321 -608v-340l159 -6v-174h-577v166l108 6q31 2 45.5 14.5t14.5 42.5zM340 1450l-84 70l242 262 q42 45 85.5 45t82.5 -41l245 -264l-84 -72l-245 176z" />
<glyph unicode="&#x177;" horiz-adv-x="1173" d="M821 39v156q-54 -76 -142 -118t-190 -42q-317 0 -317 354v412q0 31 -12 43t-39 14l-66 4v168h361v-588q0 -108 30.5 -163.5t120.5 -55.5q102 0 160.5 59.5t58.5 143.5v371q0 34 -11 47.5t-40 13.5l-65 4v168h360v-991q0 -248 -120 -362.5t-355 -114.5q-103 0 -213 18 t-172 49v285l195 16v-98q0 -30 10 -47t37 -27q56 -20 145 -20q264 0 264 301zM305 1151l-84 66l236 309q44 56 92.5 53.5t89.5 -57.5l232 -303l-84 -70l-242 213z" />
<glyph unicode="&#x178;" horiz-adv-x="1167" d="M455 229v291l-349 662l-96 6v174h500v-166l-61 -6q-33 -3 -43 -25.5t8 -54.5l174 -356h8l223 426l-102 8v174h440v-166l-61 -6q-23 -3 -38.5 -17.5t-31.5 -44.5l-321 -608v-340l159 -6v-174h-577v166l108 6q31 2 45.5 14.5t14.5 42.5zM672 1612q0 58 39.5 97.5 t101.5 39.5t101.5 -39.5t39.5 -97.5q0 -59 -40 -97t-101 -38q-64 0 -102.5 38t-38.5 97zM262 1612q0 58 39.5 97.5t101.5 39.5t102 -39.5t40 -97.5t-40 -96.5t-102 -38.5q-64 0 -102.5 38t-38.5 97z" />
<glyph unicode="&#x179;" horiz-adv-x="1091" d="M977 1196l-625 -1001h398q30 0 40.5 16t10.5 49v143l209 -14v-389h-942v170l618 997h-340q-55 0 -55 -63v-82l-209 14v326h895v-166zM365 1536l331 322l82 -68q47 -43 35 -85.5t-70 -74.5l-317 -178z" />
<glyph unicode="&#x17a;" horiz-adv-x="989" d="M918 0h-836v156l526 692h-258q-42 0 -53.5 -16t-11.5 -54v-71l-193 14v309h815v-139l-532 -707h291q34 0 46.5 18t12.5 52v86l193 -14v-326zM334 1217l238 393l96 -45q30 -14 44.5 -33.5t13 -41t-14 -43.5t-35.5 -44l-262 -254z" />
<glyph unicode="&#x17b;" horiz-adv-x="1091" d="M977 1196l-625 -1001h398q30 0 40.5 16t10.5 49v143l209 -14v-389h-942v170l618 997h-340q-55 0 -55 -63v-82l-209 14v326h895v-166zM387 1624q0 58 39.5 97.5t101.5 39.5t102 -39.5t40 -97.5t-40 -96.5t-102 -38.5q-64 0 -102.5 38t-38.5 97z" />
<glyph unicode="&#x17c;" horiz-adv-x="989" d="M918 0h-836v156l526 692h-258q-42 0 -53.5 -16t-11.5 -54v-71l-193 14v309h815v-139l-532 -707h291q34 0 46.5 18t12.5 52v86l193 -14v-326zM344 1325q0 58 39.5 97.5t101.5 39.5t101.5 -39.5t39.5 -97.5q0 -59 -40 -97t-101 -38q-64 0 -102.5 38t-38.5 97z" />
<glyph unicode="&#x17d;" horiz-adv-x="1091" d="M977 1196l-625 -1001h398q30 0 40.5 16t10.5 49v143l209 -14v-389h-942v170l618 997h-340q-55 0 -55 -63v-82l-209 14v326h895v-166zM786 1829l84 -70l-241 -262q-42 -45 -85.5 -45t-82.5 41l-246 264l84 72l246 -176z" />
<glyph unicode="&#x17e;" horiz-adv-x="989" d="M918 0h-836v156l526 692h-258q-42 0 -53.5 -16t-11.5 -54v-71l-193 14v309h815v-139l-532 -707h291q34 0 46.5 18t12.5 52v86l193 -14v-326zM731 1579l84 -66l-235 -299q-44 -56 -92.5 -53t-89.5 58l-232 292l84 70l242 -213z" />
<glyph unicode="&#x17f;" horiz-adv-x="757" d="M197 229v629h-177v172h177v78q0 57 6 102.5t27.5 98.5t58.5 88.5t104 59.5t158 24q67 0 149.5 -21t135.5 -51l-60 -164q-97 51 -194 51q-75 0 -108.5 -41.5t-33.5 -128.5v-954l172 -8v-164h-542v156l67 6q32 3 46 17t14 50z" />
<glyph unicode="&#x192;" horiz-adv-x="1120" d="M158 602l30 195h224l26 153q11 63 22.5 107.5t31.5 93.5t49 81.5t69.5 60t98 40.5t131.5 13q68 0 148.5 -20.5t139.5 -51.5l-81 -164q-44 24 -97.5 38.5t-93.5 14.5q-72 0 -110.5 -37t-53.5 -118l-39 -211h303l-34 -195h-301l-109 -627q-13 -77 -29 -132t-46.5 -109.5 t-73 -88t-109 -54.5t-154.5 -21q-67 0 -144 20t-136 52l82 161q94 -51 190 -51q72 0 111 38t53 118l121 694h-219z" />
<glyph unicode="&#x2c6;" d="M268 1151l-84 66l236 309q44 56 92.5 53.5t89.5 -57.5l232 -303l-84 -70l-242 213z" />
<glyph unicode="&#x2c7;" d="M743 1579l84 -66l-235 -299q-44 -56 -92.5 -53t-89.5 58l-232 292l84 70l242 -213z" />
<glyph unicode="&#x2d8;" d="M711 1477l133 -31q-32 -138 -116 -216.5t-216 -78.5q-144 0 -225.5 84.5t-100.5 210.5l140 33q32 -93 77.5 -132.5t114.5 -39.5q64 0 110.5 37.5t82.5 132.5z" />
<glyph unicode="&#x2d9;" d="M375 1325q0 58 39.5 97.5t101.5 39.5t101.5 -39.5t39.5 -97.5q0 -59 -40 -97t-101 -38q-64 0 -102.5 38t-38.5 97z" />
<glyph unicode="&#x2da;" d="M317 1346q0 83 54.5 136.5t140.5 53.5q88 0 139 -51.5t51 -128.5q0 -89 -53 -145t-143 -56q-88 0 -138.5 54.5t-50.5 136.5zM438 1346q0 -38 19 -62t55 -24q35 0 54.5 24.5t19.5 61.5q0 84 -74 84t-74 -84z" />
<glyph unicode="&#x2db;" d="M465 12l215 -8q-213 -93 -213 -203q0 -36 18.5 -56.5t65.5 -20.5q44 0 96 22l45 -135q-100 -49 -203 -49q-123 0 -175 56.5t-52 139.5q0 47 17.5 87t50 71t63 52t72.5 44z" />
<glyph unicode="&#x2dc;" d="M272 1221l-98 71q37 82 91.5 122t117.5 40q49 0 143 -28.5t131 -28.5q51 0 91 65l110 -59q-35 -92 -86 -135t-125 -43q-44 0 -134 27.5t-122 27.5q-41 0 -64 -11t-55 -48z" />
<glyph unicode="&#x2dd;" d="M168 1223l238 393l88 -41q30 -14 44.5 -33.5t13 -41t-14 -43.5t-35.5 -44l-254 -258zM516 1217l238 393l88 -41q30 -14 44.5 -33.5t13 -41t-14 -43.5t-35.5 -44l-254 -258z" />
<glyph unicode="&#x3a9;" horiz-adv-x="1599" d="M150 707q0 151 51.5 273t141 201.5t207.5 122t253 42.5q301 0 476 -156.5t175 -448.5q0 -164 -69 -302.5t-181 -221.5h297v-217h-567v176q266 193 266 510q0 115 -30.5 203t-85 141t-125 79t-154.5 26q-64 0 -121.5 -15.5t-108.5 -50t-87.5 -86t-58 -128t-21.5 -171.5 q0 -176 82 -307t204 -203v-174h-581v217h278q-113 77 -177 204t-64 286z" />
<glyph unicode="&#x3c0;" horiz-adv-x="1290" d="M1217 840h-158v-592q0 -59 11.5 -81t49.5 -22q28 0 86 15l33 -146q-80 -41 -197 -41q-215 0 -215 220v647h-344v-840h-231v840h-160v190h1125v-190z" />
<glyph unicode="&#x2000;" horiz-adv-x="960" />
<glyph unicode="&#x2001;" horiz-adv-x="1921" />
<glyph unicode="&#x2002;" horiz-adv-x="960" />
<glyph unicode="&#x2003;" horiz-adv-x="1921" />
<glyph unicode="&#x2004;" horiz-adv-x="640" />
<glyph unicode="&#x2005;" horiz-adv-x="480" />
<glyph unicode="&#x2006;" horiz-adv-x="320" />
<glyph unicode="&#x2007;" horiz-adv-x="320" />
<glyph unicode="&#x2008;" horiz-adv-x="240" />
<glyph unicode="&#x2009;" horiz-adv-x="384" />
<glyph unicode="&#x200a;" horiz-adv-x="106" />
<glyph unicode="&#x2010;" horiz-adv-x="659" d="M61 496v188h537v-188h-537z" />
<glyph unicode="&#x2011;" horiz-adv-x="659" d="M61 496v188h537v-188h-537z" />
<glyph unicode="&#x2012;" horiz-adv-x="659" d="M61 496v188h537v-188h-537z" />
<glyph unicode="&#x2013;" d="M0 500v170h1024v-170h-1024z" />
<glyph unicode="&#x2014;" horiz-adv-x="2048" d="M0 500v170h2048v-170h-2048z" />
<glyph unicode="&#x2018;" horiz-adv-x="450" d="M410 1456l-119 -483q-126 13 -189 47q-39 20 -39 65q0 39 23 80l195 338z" />
<glyph unicode="&#x2019;" horiz-adv-x="434" d="M63 1020l119 483q126 -13 189 -47q39 -20 39 -65q0 -39 -23 -80l-194 -338z" />
<glyph unicode="&#x201a;" horiz-adv-x="464" d="M393 152l-209 -453l-129 39l62 389q8 47 33.5 74.5t66.5 27.5q9 0 18 -1t19.5 -4l17.5 -5t19 -8t18.5 -9t20 -11t19 -11.5t22 -13.5t22.5 -14z" />
<glyph unicode="&#x201c;" horiz-adv-x="790" d="M410 1456l-119 -483q-126 13 -189 47q-39 20 -39 65q0 39 23 80l195 338zM750 1456l-119 -483q-126 13 -189 47q-39 20 -39 65q0 39 23 80l195 338z" />
<glyph unicode="&#x201d;" horiz-adv-x="774" d="M63 1020l119 483q126 -13 189 -47q39 -20 39 -65q0 -39 -23 -80l-194 -338zM403 1020l119 483q126 -13 189 -47q39 -20 39 -65q0 -39 -23 -80l-195 -338z" />
<glyph unicode="&#x201e;" horiz-adv-x="804" d="M393 152l-209 -453l-129 39l62 389q8 47 33.5 74.5t66.5 27.5q9 0 18 -1t19.5 -4l17.5 -5t19 -8t18.5 -9t20 -11t19 -11.5t22 -13.5t22.5 -14zM733 152l-209 -453l-129 39l62 389q8 47 33.5 74.5t66.5 27.5q9 0 18 -1t19.5 -4l17.5 -5t19 -8t18.5 -9t20 -11t19 -11.5 t22 -13.5t22.5 -14z" />
<glyph unicode="&#x2020;" horiz-adv-x="821" d="M98 967l-16 71q-15 49 13.5 78t76.5 21l180 -33l-47 258l68 16q52 13 85 -14.5t25 -71.5l-32 -192l266 49l16 -66q15 -50 -14 -81.5t-76 -22.5l-192 39l41 -432q5 -47 -26.5 -73.5t-84.5 -14.5l-88 20l55 500z" />
<glyph unicode="&#x2021;" horiz-adv-x="899" d="M145 987l-16 72q-15 49 13.5 77.5t76.5 20.5l180 -33l-47 238l68 16q52 13 85 -14.5t25 -71.5l-32 -172l266 49l16 -65q15 -50 -14 -82t-76 -23l-182 37v-194l246 51l16 -72q15 -49 -13.5 -77.5t-76.5 -20.5l-180 33l47 -238l-68 -16q-52 -13 -85 14.5t-25 71.5l32 172 l-266 -49l-16 65q-15 50 14 82t76 23l182 -37v192z" />
<glyph unicode="&#x2022;" d="M274 635q0 113 67 182.5t171 69.5t171 -69.5t67 -182.5q0 -114 -67 -184t-171 -70t-171 69.5t-67 184.5z" />
<glyph unicode="&#x2026;" horiz-adv-x="1488" d="M74 115q0 64 39.5 105.5t105.5 41.5q72 0 113 -39.5t41 -105.5q0 -64 -39.5 -106t-106.5 -42q-74 0 -113.5 39.5t-39.5 106.5zM602 115q0 64 40 105.5t106 41.5q72 0 112.5 -39.5t40.5 -105.5q0 -64 -39 -106t-106 -42q-74 0 -114 39.5t-40 106.5zM1114 115 q0 64 40 105.5t106 41.5q72 0 112.5 -39.5t40.5 -105.5q0 -64 -39 -106t-106 -42q-74 0 -114 39.5t-40 106.5z" />
<glyph unicode="&#x202f;" horiz-adv-x="384" />
<glyph unicode="&#x2030;" horiz-adv-x="1892" d="M1556 608q127 0 201 -78.5t74 -234.5q0 -157 -77 -240.5t-210 -83.5q-131 0 -201.5 81t-70.5 237q0 153 78 236t206 83zM1548 100q123 0 123 193q0 184 -119 184q-118 0 -118 -194q0 -98 29 -140.5t85 -42.5zM924 608q125 0 199.5 -78.5t74.5 -234.5t-77.5 -240 t-209.5 -84q-131 0 -201.5 81t-70.5 237q0 153 78.5 236t206.5 83zM915 100q121 0 121 193q0 184 -116 184q-121 0 -121 -194q0 -183 116 -183zM348 1346q126 0 200.5 -79.5t74.5 -234.5q0 -157 -77 -240t-210 -83q-132 0 -202.5 80t-70.5 237q0 152 78.5 236t206.5 84z M340 838q123 0 123 190q0 186 -119 186t-119 -196q0 -97 29.5 -138.5t85.5 -41.5zM244 223l-113 137l903 754l117 -137z" />
<glyph unicode="&#x2039;" horiz-adv-x="667" d="M600 831l-246 -292l232 -328l-97 -86l-356 330q-37 34 -37 86q0 56 60 104l348 279z" />
<glyph unicode="&#x203a;" horiz-adv-x="667" d="M315 539l-245 297l96 92l348 -279q59 -47 59 -104q0 -54 -41 -92l-352 -324l-96 86z" />
<glyph unicode="&#x2044;" horiz-adv-x="354" d="M-80 -84l-156 72l664 1417l160 -68z" />
<glyph unicode="&#x205f;" horiz-adv-x="480" />
<glyph unicode="&#x20ac;" horiz-adv-x="1148" d="M735 1143q-112 0 -179.5 -76t-78.5 -193h434v-167h-829v167h145q12 118 58.5 210t117.5 148t158.5 85t186.5 29q87 0 184.5 -24t165.5 -60v-287l-209 -14v96q0 30 -8 43.5t-35 23.5q-49 19 -111 19zM82 422v168h829v-168h-430q25 -120 89 -180t180 -60q132 0 247 97 l117 -164q-76 -69 -177.5 -104.5t-211.5 -35.5q-421 0 -498 447h-145z" />
<glyph unicode="&#x2122;" horiz-adv-x="1595" d="M289 809v422h-70q-16 0 -20 -8t-4 -25v-41l-115 8v197h579v-197l-114 -8v41q0 18 -5.5 25.5t-25.5 7.5h-61v-445l82 -6v-106h-330v104l55 2q29 6 29 29zM975 1362l155 -410h3l155 410h238v-115l-33 -2q-12 -2 -18 -5t-10.5 -10.5t-4.5 -21.5l27 -422l65 -4v-108h-272v104 l37 4q29 0 29 27l-19 332h-4l-152 -400h-106l-160 402h-2l-20 -357l67 -4v-108h-260v104l37 4q27 0 27 29l20 428l-63 4v119h264z" />
<glyph unicode="&#x2202;" horiz-adv-x="1136" d="M285 1192l49 178q149 -28 264 -81t192 -124.5t126 -167t70.5 -203t21.5 -237.5q0 -97 -14.5 -181t-48 -159.5t-84.5 -129t-129 -85t-177 -31.5q-117 0 -204.5 36t-138.5 100t-76 143.5t-25 173.5q0 198 112.5 317t300.5 119q133 0 248 -72q-20 147 -156 258.5t-331 145.5 zM772 590q-41 39 -101.5 65.5t-121.5 26.5q-94 0 -147.5 -69.5t-53.5 -192.5q0 -129 54.5 -198.5t154.5 -69.5q217 0 217 368q0 45 -2 70z" />
<glyph unicode="&#x2206;" horiz-adv-x="1370" d="M1337 0h-1304l526 1362h256zM690 1102h-8l-336 -912h678z" />
<glyph unicode="&#x220f;" horiz-adv-x="1406" d="M31 1362h1353v-166l-67 -6q-31 -3 -45.5 -18t-14.5 -54v-1208l117 -6v-174h-493v166l73 6q52 3 52 55v1186h-607v-1233l121 -6v-174h-497v166l73 6q24 2 37.5 16.5t13.5 38.5v1223l-116 8v174z" />
<glyph unicode="&#x2211;" horiz-adv-x="1200" d="M1149 113v-383h-1094v194l533 627l-514 614v197h1056v-363l-208 -14v94q0 34 -11 49t-49 15h-456l479 -590l-504 -604h502q37 0 47 15t10 50v113z" />
<glyph unicode="&#x221a;" horiz-adv-x="1366" d="M1395 1497l-537 -1526h-231l-289 828l-197 -101l-71 168l409 207l264 -782l410 1206h242z" />
<glyph unicode="&#x221e;" horiz-adv-x="1564" d="M1481 731q0 -153 -89.5 -244.5t-228.5 -91.5q-202 0 -377 199q-172 -203 -366 -203q-157 0 -246.5 87t-89.5 229q0 137 95 233t245 96q114 0 197.5 -52.5t166.5 -166.5q102 115 188.5 168t199.5 53q146 0 225.5 -88.5t79.5 -218.5zM1280 717q0 67 -35 106t-102 39 q-59 0 -109.5 -38t-111.5 -113q48 -67 107 -107.5t116 -40.5q63 0 99 45.5t36 108.5zM649 707q-52 82 -103 118.5t-110 36.5q-75 0 -115 -43t-40 -108q0 -66 39.5 -107t111.5 -41q114 0 217 144z" />
<glyph unicode="&#x222b;" horiz-adv-x="798" d="M727 1217q-81 24 -137 24q-58 0 -81.5 -29t-19.5 -112q1 -31 4.5 -81t4.5 -67l51 -835q1 -12 3 -43.5t3.5 -57.5t1.5 -41q5 -131 -63 -212.5t-205 -81.5q-131 0 -230 40l33 154q84 -25 133 -25q56 0 78 25t19 100q0 16 -1 35t-3 40.5t-3 31.5l-51 889q-6 105 -6 149 q0 56 13.5 104t43.5 91t86.5 67.5t135.5 24.5q109 0 215 -37z" />
<glyph unicode="&#x2248;" horiz-adv-x="1269" d="M850 285q-62 0 -126 21.5t-108 48t-95 48t-89 21.5q-52 0 -96 -34t-90 -97l-142 115q67 100 141 156.5t165 56.5q54 0 114 -22.5t105 -49.5t100 -49.5t100 -22.5q54 0 98 31t91 98l141 -119q-125 -202 -309 -202zM844 709q-62 0 -126 21.5t-108 48t-95 48t-89 21.5 q-52 0 -94.5 -33.5t-91.5 -97.5l-140 114q65 100 139 156.5t167 56.5q54 0 114 -22.5t104.5 -49t100 -49t100.5 -22.5q53 0 97.5 31.5t91.5 97.5l141 -119q-125 -202 -311 -202z" />
<glyph unicode="&#x2260;" horiz-adv-x="1095" d="M963 530v-198h-410l-57 -215h-205l59 215h-217v198h270l56 195h-326v197h381l59 213h197l-57 -213h250v-197h-304l-53 -195h357z" />
<glyph unicode="&#x2264;" horiz-adv-x="1095" d="M948 238v-199h-798v199h798zM956 999l-536 -249l541 -256l-87 -185l-722 350v168l722 355z" />
<glyph unicode="&#x2265;" horiz-adv-x="1095" d="M162 39v199h799v-199h-799zM690 750l-536 249l82 183l722 -355v-168l-722 -350l-86 185z" />
<glyph unicode="&#x25ca;" horiz-adv-x="1189" d="M1090 678l-388 -678h-208l-390 674l392 672h204zM854 678l-258 450l-252 -452l258 -465z" />
<glyph unicode="&#x25fc;" horiz-adv-x="1034" d="M0 1034h1034v-1034h-1034v1034z" />
<glyph unicode="&#xfb01;" horiz-adv-x="1202" d="M197 229v629h-177v172h177v78q0 55 8.5 102.5t34 99t66.5 88t112.5 60t165.5 23.5q96 0 196.5 -28t161.5 -62l-63 -166q-135 71 -265 71q-91 0 -132.5 -42t-41.5 -128v-96h586v-860l117 -6v-164h-488v156l68 6q30 3 44.5 16.5t14.5 48.5v570q0 31 -11 46t-42 15h-289 v-686l131 -8v-164h-501v156l67 6q32 3 46 17t14 50z" />
<glyph unicode="&#xfb02;" horiz-adv-x="1200" d="M1024 1460v-1290l117 -6v-164h-488v156l68 6q30 3 44.5 16.5t14.5 48.5v631h-340v-686l131 -8v-164h-501v156l67 6q32 3 46 17t14 50v629h-177v172h177v78q0 55 8 102.5t32 99t63 88t106 60t155 23.5q146 0 268 -64l121 43h74zM440 1137v-107h340v217q-82 49 -180 49 q-84 0 -122 -40t-38 -119z" />
<glyph unicode="&#xfb03;" horiz-adv-x="1779" d="M782 229v629h-342v-686l131 -8v-164h-501v156l67 6q32 3 46 17t14 50v629h-177v172h177v78q0 57 6 102.5t27 98.5t57 88.5t101 59.5t153 24q114 0 207 -35l-50 -170q-68 20 -116 20q-75 0 -108.5 -41.5t-33.5 -128.5v-96h342v78q0 55 8.5 102.5t34 99t66.5 88t112.5 60 t165.5 23.5q96 0 197 -28t162 -62l-64 -166q-135 71 -264 71q-91 0 -132.5 -42t-41.5 -128v-96h586v-860l117 -6v-164h-488v156l68 6q30 3 44.5 16.5t14.5 48.5v570q0 31 -11 46t-42 15h-289v-686l131 -8v-164h-502v156l68 6q31 3 45 17t14 50z" />
<glyph unicode="&#xfb04;" horiz-adv-x="1785" d="M1610 1460v-1290l116 -6v-164h-487v156l68 6q30 3 44.5 16.5t14.5 48.5v631h-340v-686l131 -8v-164h-502v156l68 6q31 3 45 17t14 50v629h-342v-686l131 -8v-164h-501v156l67 6q32 3 46 17t14 50v629h-177v172h177v78q0 57 6 102.5t27 98.5t57 88.5t101 59.5t153 24 q114 0 207 -35l-50 -170q-68 20 -116 20q-75 0 -108.5 -41.5t-33.5 -128.5v-96h342v78q0 54 8 102t32.5 99.5t63 88t106 60t155.5 23.5q146 0 268 -64l121 43h74zM1026 1137v-107h340v217q-82 49 -180 49q-84 0 -122 -40t-38 -119z" />
</font>
</defs>
</svg>
